{
.appVersion = "1357";
DisplayStrings = (
"HH0H1HH2HH3\012HH4HH5HH6HH\012HH7H8HH9HH/zero.lf \0120/Placeholder 0/space 1/Placeholder 1/space 2/Placeholder 2/space 3/Placeholder 3/space 4/Placeholder 4/space 5/Placeholder 5/space 6/Placeholder 6/space 7/Placeholder 7/space 8/Placeholder 8/space 9/Placeholder 9\01201234561713897293\012nn/Placeholder no/Placeholder oo\012",

glyphs = (
{
glyphname = .notdef;
lastChange = "2021-11-23 06:06:24 +0000";
layers = (
{
background = {
paths = (
{
closed = 1;
nodes = (
"437 0 LINE",
"437 800 LINE",
"62 800 LINE",
"62 0 LINE"
);
},
{
closed = 1;
nodes = (
"137 738 LINE",
"364 738 LINE",
"251 441 LINE"
);
},
{
closed = 1;
nodes = (
"124 112 LINE",
"124 698 LINE",
"237 405 LINE"
);
},
{
closed = 1;
nodes = (
"374 120 LINE",
"265 405 LINE",
"374 690 LINE"
);
},
{
closed = 1;
nodes = (
"368 63 LINE",
"133 63 LINE",
"251 368 LINE"
);
}
);
};
layerId = "47CF47DF-B93A-4126-8606-39E7B9FB561A";
paths = (
{
closed = 1;
nodes = (
"437 10 LINE",
"437 810 LINE",
"62 810 LINE",
"62 10 LINE"
);
},
{
closed = 1;
nodes = (
"251 378 LINE",
"368 73 LINE",
"133 73 LINE"
);
},
{
closed = 1;
nodes = (
"124 708 LINE",
"237 415 LINE",
"124 122 LINE"
);
},
{
closed = 1;
nodes = (
"265 415 LINE",
"374 700 LINE",
"374 130 LINE"
);
},
{
closed = 1;
nodes = (
"137 748 LINE",
"364 748 LINE",
"251 451 LINE"
);
}
);
width = 499;
}
);
note = .notdef;
},
{
glyphname = A;
lastChange = "2021-11-23 05:45:25 +0000";
layers = (
{
anchors = (
{
name = bottom;
position = "{329, -60}";
},
{
name = ogonek;
position = "{720, -99}";
},
{
name = top;
position = "{525, 700}";
}
);
background = {
paths = (
{
closed = 1;
nodes = (
"-102 -193 OFFCURVE",
"-42 -168 OFFCURVE",
"27 -119 CURVE",
"68 -138 OFFCURVE",
"103 -147 OFFCURVE",
"131 -147 CURVE SMOOTH",
"138 -147 OFFCURVE",
"141 -145 OFFCURVE",
"141 -142 CURVE SMOOTH",
"141 -139 OFFCURVE",
"138 -137 OFFCURVE",
"132 -136 CURVE SMOOTH",
"87 -128 OFFCURVE",
"56 -120 OFFCURVE",
"38 -111 CURVE",
"117 -52 OFFCURVE",
"198 30 OFFCURVE",
"283 136 CURVE",
"314 140 OFFCURVE",
"354 143 OFFCURVE",
"404 146 CURVE SMOOTH",
"455 150 OFFCURVE",
"481 149 OFFCURVE",
"481 162 CURVE SMOOTH",
"481 164 OFFCURVE",
"479 165 OFFCURVE",
"475 165 CURVE SMOOTH",
"476 165 OFFCURVE",
"459 164 OFFCURVE",
"421 163 CURVE SMOOTH",
"363 160 OFFCURVE",
"322 158 OFFCURVE",
"299 156 CURVE",
"354 228 OFFCURVE",
"403 302 OFFCURVE",
"445 378 CURVE SMOOTH",
"500 479 OFFCURVE",
"528 558 OFFCURVE",
"528 617 CURVE SMOOTH",
"528 669 OFFCURVE",
"499 705 OFFCURVE",
"447 705 CURVE SMOOTH",
"440 705 OFFCURVE",
"436 703 OFFCURVE",
"436 699 CURVE SMOOTH",
"436 696 OFFCURVE",
"439 694 OFFCURVE",
"445 693 CURVE SMOOTH",
"474 688 OFFCURVE",
"488 670 OFFCURVE",
"488 638 CURVE SMOOTH",
"488 584 OFFCURVE",
"459 502 OFFCURVE",
"400 392 CURVE SMOOTH",
"355 306 OFFCURVE",
"305 226 OFFCURVE",
"252 152 CURVE",
"234 151 OFFCURVE",
"217 149 OFFCURVE",
"202 146 CURVE",
"217 165 OFFCURVE",
"229 183 OFFCURVE",
"239 199 CURVE",
"292 240 OFFCURVE",
"319 269 OFFCURVE",
"319 287 CURVE SMOOTH",
"319 292 OFFCURVE",
"317 294 OFFCURVE",
"313 294 CURVE SMOOTH",
"308 294 OFFCURVE",
"301 292 OFFCURVE",
"291 287 CURVE",
"384 460 OFFCURVE",
"430 572 OFFCURVE",
"430 622 CURVE SMOOTH",
"430 624 OFFCURVE",
"430 625 OFFCURVE",
"429 626 CURVE",
"426 623 OFFCURVE",
"423 618 OFFCURVE",
"420 610 CURVE SMOOTH",
"393 530 OFFCURVE",
"363 454 OFFCURVE",
"328 382 CURVE SMOOTH",
"305 333 OFFCURVE",
"286 299 OFFCURVE",
"273 280 CURVE",
"268 301 OFFCURVE",
"261 312 OFFCURVE",
"251 312 CURVE SMOOTH",
"236 312 OFFCURVE",
"228 291 OFFCURVE",
"228 249 CURVE SMOOTH",
"228 238 OFFCURVE",
"229 223 OFFCURVE",
"231 206 CURVE",
"220 187 OFFCURVE",
"205 167 OFFCURVE",
"188 144 CURVE",
"139 135 OFFCURVE",
"97 124 OFFCURVE",
"62 109 CURVE SMOOTH",
"-24 72 OFFCURVE",
"-67 31 OFFCURVE",
"-67 -16 CURVE SMOOTH",
"-67 -39 OFFCURVE",
"-56 -60 OFFCURVE",
"-34 -81 CURVE",
"-84 -120 OFFCURVE",
"-121 -139 OFFCURVE",
"-146 -139 CURVE SMOOTH",
"-149 -139 OFFCURVE",
"-154 -137 OFFCURVE",
"-157 -137 CURVE SMOOTH",
"-162 -137 OFFCURVE",
"-165 -139 OFFCURVE",
"-165 -144 CURVE SMOOTH",
"-165 -150 OFFCURVE",
"-160 -153 OFFCURVE",
"-150 -153 CURVE SMOOTH",
"-124 -153 OFFCURVE",
"-83 -131 OFFCURVE",
"-27 -87 CURVE",
"-17 -96 OFFCURVE",
"-5 -104 OFFCURVE",
"9 -111 CURVE",
"-51 -156 OFFCURVE",
"-104 -179 OFFCURVE",
"-150 -179 CURVE SMOOTH",
"-177 -179 OFFCURVE",
"-190 -169 OFFCURVE",
"-190 -150 CURVE SMOOTH",
"-190 -144 OFFCURVE",
"-189 -137 OFFCURVE",
"-187 -130 CURVE",
"-196 -137 OFFCURVE",
"-200 -147 OFFCURVE",
"-200 -162 CURVE SMOOTH",
"-200 -183 OFFCURVE",
"-184 -193 OFFCURVE",
"-152 -193 CURVE SMOOTH"
);
},
{
closed = 1;
nodes = (
"-19 -57 OFFCURVE",
"-21 -47 OFFCURVE",
"-21 -38 CURVE SMOOTH",
"-21 -6 OFFCURVE",
"2 25 OFFCURVE",
"47 55 CURVE SMOOTH",
"79 77 OFFCURVE",
"117 95 OFFCURVE",
"160 109 CURVE",
"103 42 OFFCURVE",
"45 -17 OFFCURVE",
"-15 -66 CURVE"
);
},
{
closed = 1;
nodes = (
"8 -93 OFFCURVE",
"-3 -84 OFFCURVE",
"-10 -73 CURVE",
"56 -18 OFFCURVE",
"118 44 OFFCURVE",
"176 114 CURVE",
"195 119 OFFCURVE",
"214 124 OFFCURVE",
"234 128 CURVE",
"159 29 OFFCURVE",
"88 -48 OFFCURVE",
"21 -102 CURVE"
);
},
{
closed = 1;
nodes = (
"657 -128 OFFCURVE",
"673 -123 OFFCURVE",
"689 -114 CURVE SMOOTH",
"701 -107 OFFCURVE",
"714 -93 OFFCURVE",
"728 -74 CURVE SMOOTH",
"742 -55 OFFCURVE",
"749 -40 OFFCURVE",
"750 -27 CURVE",
"712 -88 OFFCURVE",
"677 -118 OFFCURVE",
"646 -118 CURVE SMOOTH",
"622 -118 OFFCURVE",
"601 -97 OFFCURVE",
"583 -56 CURVE SMOOTH",
"553 13 OFFCURVE",
"538 140 OFFCURVE",
"538 323 CURVE SMOOTH",
"538 491 LINE SMOOTH",
"537 506 OFFCURVE",
"533 513 OFFCURVE",
"527 513 CURVE SMOOTH",
"523 513 OFFCURVE",
"521 507 OFFCURVE",
"520 494 CURVE SMOOTH",
"511 393 LINE SMOOTH",
"494 242 OFFCURVE",
"485 148 OFFCURVE",
"485 112 CURVE SMOOTH",
"485 53 OFFCURVE",
"492 7 OFFCURVE",
"507 -26 CURVE SMOOTH",
"518 -51 OFFCURVE",
"537 -75 OFFCURVE",
"563 -96 CURVE SMOOTH",
"589 -117 OFFCURVE",
"615 -128 OFFCURVE",
"640 -128 CURVE SMOOTH"
);
}
);
};
layerId = "47CF47DF-B93A-4126-8606-39E7B9FB561A";
paths = (
{
closed = 1;
nodes = (
"-102 -183 OFFCURVE",
"-42 -158 OFFCURVE",
"27 -109 CURVE",
"68 -128 OFFCURVE",
"103 -137 OFFCURVE",
"131 -137 CURVE SMOOTH",
"138 -137 OFFCURVE",
"141 -135 OFFCURVE",
"141 -132 CURVE SMOOTH",
"141 -129 OFFCURVE",
"138 -127 OFFCURVE",
"132 -126 CURVE SMOOTH",
"87 -118 OFFCURVE",
"56 -110 OFFCURVE",
"38 -101 CURVE",
"117 -42 OFFCURVE",
"198 40 OFFCURVE",
"283 146 CURVE",
"314 150 OFFCURVE",
"354 153 OFFCURVE",
"404 156 CURVE SMOOTH",
"455 160 OFFCURVE",
"481 159 OFFCURVE",
"481 172 CURVE SMOOTH",
"481 174 OFFCURVE",
"479 175 OFFCURVE",
"475 175 CURVE SMOOTH",
"476 175 OFFCURVE",
"459 174 OFFCURVE",
"421 173 CURVE SMOOTH",
"363 170 OFFCURVE",
"322 168 OFFCURVE",
"299 166 CURVE",
"354 238 OFFCURVE",
"403 312 OFFCURVE",
"445 388 CURVE SMOOTH",
"500 489 OFFCURVE",
"528 568 OFFCURVE",
"528 627 CURVE SMOOTH",
"528 679 OFFCURVE",
"499 715 OFFCURVE",
"447 715 CURVE SMOOTH",
"440 715 OFFCURVE",
"436 713 OFFCURVE",
"436 709 CURVE SMOOTH",
"436 706 OFFCURVE",
"439 704 OFFCURVE",
"445 703 CURVE SMOOTH",
"474 698 OFFCURVE",
"488 680 OFFCURVE",
"488 648 CURVE SMOOTH",
"488 594 OFFCURVE",
"459 512 OFFCURVE",
"400 402 CURVE SMOOTH",
"355 316 OFFCURVE",
"305 236 OFFCURVE",
"252 162 CURVE",
"234 161 OFFCURVE",
"217 159 OFFCURVE",
"202 156 CURVE",
"217 175 OFFCURVE",
"229 193 OFFCURVE",
"239 209 CURVE",
"292 250 OFFCURVE",
"319 279 OFFCURVE",
"319 297 CURVE SMOOTH",
"319 302 OFFCURVE",
"317 304 OFFCURVE",
"313 304 CURVE SMOOTH",
"308 304 OFFCURVE",
"301 302 OFFCURVE",
"291 297 CURVE",
"384 470 OFFCURVE",
"430 582 OFFCURVE",
"430 632 CURVE SMOOTH",
"430 634 OFFCURVE",
"430 635 OFFCURVE",
"429 636 CURVE",
"426 633 OFFCURVE",
"423 628 OFFCURVE",
"420 620 CURVE SMOOTH",
"393 540 OFFCURVE",
"363 464 OFFCURVE",
"328 392 CURVE SMOOTH",
"305 343 OFFCURVE",
"286 309 OFFCURVE",
"273 290 CURVE",
"268 311 OFFCURVE",
"261 322 OFFCURVE",
"251 322 CURVE SMOOTH",
"236 322 OFFCURVE",
"228 301 OFFCURVE",
"228 259 CURVE SMOOTH",
"228 248 OFFCURVE",
"229 233 OFFCURVE",
"231 216 CURVE",
"220 197 OFFCURVE",
"205 177 OFFCURVE",
"188 154 CURVE",
"139 145 OFFCURVE",
"97 134 OFFCURVE",
"62 119 CURVE SMOOTH",
"-24 82 OFFCURVE",
"-67 41 OFFCURVE",
"-67 -6 CURVE SMOOTH",
"-67 -29 OFFCURVE",
"-56 -50 OFFCURVE",
"-34 -71 CURVE",
"-84 -110 OFFCURVE",
"-121 -129 OFFCURVE",
"-146 -129 CURVE SMOOTH",
"-149 -129 OFFCURVE",
"-154 -127 OFFCURVE",
"-157 -127 CURVE SMOOTH",
"-162 -127 OFFCURVE",
"-165 -129 OFFCURVE",
"-165 -134 CURVE SMOOTH",
"-165 -140 OFFCURVE",
"-160 -143 OFFCURVE",
"-150 -143 CURVE SMOOTH",
"-124 -143 OFFCURVE",
"-83 -121 OFFCURVE",
"-27 -77 CURVE",
"-17 -86 OFFCURVE",
"-5 -94 OFFCURVE",
"9 -101 CURVE",
"-51 -146 OFFCURVE",
"-104 -169 OFFCURVE",
"-150 -169 CURVE SMOOTH",
"-177 -169 OFFCURVE",
"-190 -159 OFFCURVE",
"-190 -140 CURVE SMOOTH",
"-190 -134 OFFCURVE",
"-189 -127 OFFCURVE",
"-187 -120 CURVE",
"-196 -127 OFFCURVE",
"-200 -137 OFFCURVE",
"-200 -152 CURVE SMOOTH",
"-200 -173 OFFCURVE",
"-184 -183 OFFCURVE",
"-152 -183 CURVE SMOOTH"
);
},
{
closed = 1;
nodes = (
"-19 -47 OFFCURVE",
"-21 -37 OFFCURVE",
"-21 -28 CURVE SMOOTH",
"-21 4 OFFCURVE",
"2 35 OFFCURVE",
"47 65 CURVE SMOOTH",
"79 87 OFFCURVE",
"117 105 OFFCURVE",
"160 119 CURVE",
"103 52 OFFCURVE",
"45 -7 OFFCURVE",
"-15 -56 CURVE"
);
},
{
closed = 1;
nodes = (
"8 -83 OFFCURVE",
"-3 -74 OFFCURVE",
"-10 -63 CURVE",
"56 -8 OFFCURVE",
"118 54 OFFCURVE",
"176 124 CURVE",
"195 129 OFFCURVE",
"214 134 OFFCURVE",
"234 138 CURVE",
"159 39 OFFCURVE",
"88 -38 OFFCURVE",
"21 -92 CURVE"
);
},
{
closed = 1;
nodes = (
"657 -118 OFFCURVE",
"673 -113 OFFCURVE",
"689 -104 CURVE SMOOTH",
"701 -97 OFFCURVE",
"714 -83 OFFCURVE",
"728 -64 CURVE SMOOTH",
"742 -45 OFFCURVE",
"749 -30 OFFCURVE",
"750 -17 CURVE",
"712 -78 OFFCURVE",
"677 -108 OFFCURVE",
"646 -108 CURVE SMOOTH",
"622 -108 OFFCURVE",
"601 -87 OFFCURVE",
"583 -46 CURVE SMOOTH",
"553 23 OFFCURVE",
"538 150 OFFCURVE",
"538 333 CURVE SMOOTH",
"538 501 LINE SMOOTH",
"538 516 OFFCURVE",
"533 523 OFFCURVE",
"527 523 CURVE SMOOTH",
"523 523 OFFCURVE",
"521 517 OFFCURVE",
"520 504 CURVE SMOOTH",
"511 403 LINE SMOOTH",
"498 252 OFFCURVE",
"485 158 OFFCURVE",
"485 122 CURVE SMOOTH",
"485 63 OFFCURVE",
"492 17 OFFCURVE",
"507 -16 CURVE SMOOTH",
"518 -41 OFFCURVE",
"537 -65 OFFCURVE",
"563 -86 CURVE SMOOTH",
"589 -107 OFFCURVE",
"615 -118 OFFCURVE",
"640 -118 CURVE SMOOTH"
);
}
);
width = 657;
}
);
note = A;
unicode = 0041;
},
{
glyphname = AE;
lastChange = "2021-11-23 05:59:21 +0000";
layers = (
{
anchors = (
{
name = bottom;
position = "{471, 0}";
},
{
name = top;
position = "{713, 650}";
}
);
background = {
paths = (
{
closed = 1;
nodes = (
"543 553 OFFCURVE",
"560 554 OFFCURVE",
"578 554 CURVE SMOOTH",
"580 554 LINE",
"566 512 OFFCURVE",
"554 457 OFFCURVE",
"545 388 CURVE SMOOTH",
"521 219 LINE",
"467 214 OFFCURVE",
"405 209 OFFCURVE",
"334 204 CURVE",
"374 255 OFFCURVE",
"411 310 OFFCURVE",
"446 371 CURVE SMOOTH",
"487 442 OFFCURVE",
"514 502 OFFCURVE",
"527 552 CURVE"
);
},
{
closed = 1;
nodes = (
"421 538 OFFCURVE",
"440 541 OFFCURVE",
"476 547 CURVE",
"439 438 OFFCURVE",
"376 322 OFFCURVE",
"287 199 CURVE",
"270 198 OFFCURVE",
"253 196 OFFCURVE",
"236 193 CURVE",
"322 310 OFFCURVE",
"383 425 OFFCURVE",
"419 538 CURVE"
);
},
{
closed = 1;
nodes = (
"805 267 OFFCURVE",
"763 261 OFFCURVE",
"703 249 CURVE SMOOTH",
"634 235 OFFCURVE",
"590 227 OFFCURVE",
"571 225 CURVE",
"578 254 OFFCURVE",
"586 309 OFFCURVE",
"597 389 CURVE SMOOTH",
"607 459 OFFCURVE",
"617 514 OFFCURVE",
"627 553 CURVE",
"726 548 OFFCURVE",
"809 535 OFFCURVE",
"876 514 CURVE SMOOTH",
"891 509 OFFCURVE",
"903 507 OFFCURVE",
"914 507 CURVE",
"896 470 OFFCURVE",
"878 450 OFFCURVE",
"861 447 CURVE SMOOTH",
"849 445 OFFCURVE",
"843 443 OFFCURVE",
"843 442 CURVE SMOOTH",
"843 433 OFFCURVE",
"869 418 OFFCURVE",
"882 418 CURVE SMOOTH",
"901 418 OFFCURVE",
"917 430 OFFCURVE",
"928 454 CURVE SMOOTH",
"933 466 OFFCURVE",
"939 487 OFFCURVE",
"946 516 CURVE",
"948 517 OFFCURVE",
"949 519 OFFCURVE",
"949 522 CURVE SMOOTH",
"949 523 OFFCURVE",
"949 523 OFFCURVE",
"948 524 CURVE",
"954 553 OFFCURVE",
"957 579 OFFCURVE",
"957 602 CURVE SMOOTH",
"957 611 OFFCURVE",
"956 616 OFFCURVE",
"954 616 CURVE SMOOTH",
"945 616 OFFCURVE",
"944 600 OFFCURVE",
"943 591 CURVE SMOOTH",
"940 576 OFFCURVE",
"935 559 OFFCURVE",
"928 541 CURVE",
"899 552 OFFCURVE",
"852 563 OFFCURVE",
"785 572 CURVE SMOOTH",
"729 579 OFFCURVE",
"680 584 OFFCURVE",
"637 585 CURVE",
"644 604 OFFCURVE",
"647 615 OFFCURVE",
"647 617 CURVE SMOOTH",
"647 628 OFFCURVE",
"642 633 OFFCURVE",
"632 633 CURVE SMOOTH",
"619 633 OFFCURVE",
"606 617 OFFCURVE",
"592 585 CURVE",
"533 582 LINE",
"535 593 OFFCURVE",
"536 604 OFFCURVE",
"536 614 CURVE SMOOTH",
"536 661 OFFCURVE",
"515 690 OFFCURVE",
"474 701 CURVE SMOOTH",
"463 704 OFFCURVE",
"454 705 OFFCURVE",
"447 705 CURVE SMOOTH",
"440 705 OFFCURVE",
"436 703 OFFCURVE",
"436 699 CURVE SMOOTH",
"436 696 OFFCURVE",
"439 694 OFFCURVE",
"445 693 CURVE SMOOTH",
"477 688 OFFCURVE",
"493 668 OFFCURVE",
"493 633 CURVE SMOOTH",
"493 617 OFFCURVE",
"490 598 OFFCURVE",
"485 576 CURVE",
"464 573 OFFCURVE",
"445 569 OFFCURVE",
"426 564 CURVE",
"439 612 OFFCURVE",
"446 643 OFFCURVE",
"446 657 CURVE SMOOTH",
"446 658 OFFCURVE",
"446 658 OFFCURVE",
"445 659 CURVE",
"441 659 OFFCURVE",
"438 657 OFFCURVE",
"437 652 CURVE SMOOTH",
"433 639 OFFCURVE",
"430 628 OFFCURVE",
"429 621 CURVE SMOOTH",
"424 600 OFFCURVE",
"418 580 OFFCURVE",
"411 560 CURVE",
"402 557 OFFCURVE",
"397 553 OFFCURVE",
"397 549 CURVE SMOOTH",
"397 546 OFFCURVE",
"400 543 OFFCURVE",
"405 541 CURVE",
"364 420 OFFCURVE",
"300 303 OFFCURVE",
"213 189 CURVE",
"168 180 OFFCURVE",
"129 169 OFFCURVE",
"98 156 CURVE SMOOTH",
"57 138 OFFCURVE",
"23 115 OFFCURVE",
"-6 86 CURVE SMOOTH",
"-41 51 OFFCURVE",
"-58 15 OFFCURVE",
"-58 -23 CURVE SMOOTH",
"-58 -46 OFFCURVE",
"-51 -64 OFFCURVE",
"-36 -79 CURVE",
"-63 -99 OFFCURVE",
"-89 -113 OFFCURVE",
"-112 -122 CURVE SMOOTH",
"-122 -125 OFFCURVE",
"-129 -128 OFFCURVE",
"-134 -129 CURVE SMOOTH",
"-141 -131 OFFCURVE",
"-144 -134 OFFCURVE",
"-144 -138 CURVE SMOOTH",
"-144 -141 OFFCURVE",
"-142 -142 OFFCURVE",
"-137 -142 CURVE SMOOTH",
"-110 -142 OFFCURVE",
"-72 -125 OFFCURVE",
"-23 -90 CURVE",
"-14 -97 OFFCURVE",
"-3 -104 OFFCURVE",
"9 -111 CURVE",
"-51 -156 OFFCURVE",
"-104 -179 OFFCURVE",
"-150 -179 CURVE SMOOTH",
"-177 -179 OFFCURVE",
"-190 -169 OFFCURVE",
"-190 -150 CURVE SMOOTH",
"-190 -144 OFFCURVE",
"-189 -137 OFFCURVE",
"-187 -130 CURVE",
"-196 -137 OFFCURVE",
"-200 -147 OFFCURVE",
"-200 -162 CURVE SMOOTH",
"-200 -183 OFFCURVE",
"-184 -193 OFFCURVE",
"-152 -193 CURVE SMOOTH",
"-102 -193 OFFCURVE",
"-42 -168 OFFCURVE",
"27 -119 CURVE",
"68 -138 OFFCURVE",
"103 -147 OFFCURVE",
"131 -147 CURVE SMOOTH",
"138 -147 OFFCURVE",
"141 -145 OFFCURVE",
"141 -142 CURVE SMOOTH",
"141 -139 OFFCURVE",
"138 -137 OFFCURVE",
"132 -136 CURVE SMOOTH",
"87 -128 OFFCURVE",
"55 -120 OFFCURVE",
"38 -111 CURVE",
"115 -53 OFFCURVE",
"208 43 OFFCURVE",
"315 178 CURVE",
"362 177 OFFCURVE",
"428 181 OFFCURVE",
"515 191 CURVE",
"492 87 OFFCURVE",
"455 21 OFFCURVE",
"404 -7 CURVE SMOOTH",
"389 -16 OFFCURVE",
"380 -20 OFFCURVE",
"375 -20 CURVE SMOOTH",
"359 -20 OFFCURVE",
"322 -18 OFFCURVE",
"307 -18 CURVE SMOOTH",
"298 -18 OFFCURVE",
"293 -20 OFFCURVE",
"293 -23 CURVE SMOOTH",
"293 -30 OFFCURVE",
"297 -32 OFFCURVE",
"305 -31 CURVE",
"304 -34 LINE",
"305 -43 OFFCURVE",
"317 -48 OFFCURVE",
"342 -48 CURVE SMOOTH",
"363 -48 OFFCURVE",
"383 -45 OFFCURVE",
"402 -40 CURVE",
"554 -57 OFFCURVE",
"649 -66 OFFCURVE",
"688 -66 CURVE SMOOTH",
"742 -66 OFFCURVE",
"784 -60 OFFCURVE",
"813 -48 CURVE SMOOTH",
"876 -23 OFFCURVE",
"907 17 OFFCURVE",
"907 72 CURVE SMOOTH",
"907 87 OFFCURVE",
"903 105 OFFCURVE",
"895 124 CURVE SMOOTH",
"886 147 OFFCURVE",
"875 159 OFFCURVE",
"862 159 CURVE SMOOTH",
"857 159 OFFCURVE",
"855 157 OFFCURVE",
"855 152 CURVE SMOOTH",
"855 149 OFFCURVE",
"861 138 OFFCURVE",
"872 121 CURVE SMOOTH",
"883 104 OFFCURVE",
"889 88 OFFCURVE",
"889 75 CURVE SMOOTH",
"889 15 OFFCURVE",
"797 -27 OFFCURVE",
"585 -27 CURVE SMOOTH",
"546 -27 OFFCURVE",
"498 -26 OFFCURVE",
"439 -23 CURVE",
"496 11 OFFCURVE",
"538 85 OFFCURVE",
"565 198 CURVE",
"699 217 OFFCURVE",
"781 233 OFFCURVE",
"812 246 CURVE SMOOTH",
"825 252 OFFCURVE",
"831 258 OFFCURVE",
"831 265 CURVE SMOOTH",
"831 266 OFFCURVE",
"830 267 OFFCURVE",
"828 267 CURVE SMOOTH"
);
},
{
closed = 1;
nodes = (
"173 45 OFFCURVE",
"90 -47 OFFCURVE",
"21 -102 CURVE",
"10 -95 OFFCURVE",
"0 -87 OFFCURVE",
"-7 -78 CURVE",
"52 -33 OFFCURVE",
"125 47 OFFCURVE",
"213 161 CURVE",
"231 166 OFFCURVE",
"250 171 OFFCURVE",
"270 175 CURVE"
);
},
{
closed = 1;
nodes = (
"100 47 OFFCURVE",
"33 -25 OFFCURVE",
"-16 -64 CURVE",
"-18 -59 OFFCURVE",
"-19 -54 OFFCURVE",
"-19 -48 CURVE SMOOTH",
"-19 -25 OFFCURVE",
"-7 3 OFFCURVE",
"16 36 CURVE SMOOTH",
"37 65 OFFCURVE",
"58 86 OFFCURVE",
"81 101 CURVE SMOOTH",
"112 122 OFFCURVE",
"146 139 OFFCURVE",
"185 152 CURVE"
);
}
);
};
layerId = "47CF47DF-B93A-4126-8606-39E7B9FB561A";
paths = (
{
closed = 1;
nodes = (
"-102 -183 OFFCURVE",
"-42 -158 OFFCURVE",
"27 -109 CURVE",
"68 -128 OFFCURVE",
"103 -137 OFFCURVE",
"131 -137 CURVE SMOOTH",
"138 -137 OFFCURVE",
"141 -135 OFFCURVE",
"141 -132 CURVE SMOOTH",
"141 -129 OFFCURVE",
"138 -127 OFFCURVE",
"132 -126 CURVE SMOOTH",
"87 -118 OFFCURVE",
"55 -110 OFFCURVE",
"38 -101 CURVE",
"115 -43 OFFCURVE",
"208 53 OFFCURVE",
"315 188 CURVE",
"362 187 OFFCURVE",
"428 191 OFFCURVE",
"515 201 CURVE",
"492 97 OFFCURVE",
"455 31 OFFCURVE",
"404 3 CURVE SMOOTH",
"389 -6 OFFCURVE",
"380 -10 OFFCURVE",
"375 -10 CURVE SMOOTH",
"359 -10 OFFCURVE",
"322 -8 OFFCURVE",
"307 -8 CURVE SMOOTH",
"298 -8 OFFCURVE",
"293 -10 OFFCURVE",
"293 -13 CURVE SMOOTH",
"293 -20 OFFCURVE",
"297 -22 OFFCURVE",
"305 -21 CURVE",
"304 -24 LINE",
"305 -33 OFFCURVE",
"317 -38 OFFCURVE",
"342 -38 CURVE SMOOTH",
"363 -38 OFFCURVE",
"383 -35 OFFCURVE",
"402 -30 CURVE",
"554 -47 OFFCURVE",
"649 -56 OFFCURVE",
"688 -56 CURVE SMOOTH",
"742 -56 OFFCURVE",
"784 -50 OFFCURVE",
"813 -38 CURVE SMOOTH",
"876 -13 OFFCURVE",
"907 27 OFFCURVE",
"907 82 CURVE SMOOTH",
"907 97 OFFCURVE",
"903 115 OFFCURVE",
"895 134 CURVE SMOOTH",
"886 157 OFFCURVE",
"875 169 OFFCURVE",
"862 169 CURVE SMOOTH",
"857 169 OFFCURVE",
"855 167 OFFCURVE",
"855 162 CURVE SMOOTH",
"855 159 OFFCURVE",
"861 148 OFFCURVE",
"872 131 CURVE SMOOTH",
"883 114 OFFCURVE",
"889 98 OFFCURVE",
"889 85 CURVE SMOOTH",
"889 25 OFFCURVE",
"797 -17 OFFCURVE",
"585 -17 CURVE SMOOTH",
"546 -17 OFFCURVE",
"498 -16 OFFCURVE",
"439 -13 CURVE",
"496 21 OFFCURVE",
"538 95 OFFCURVE",
"565 208 CURVE",
"699 227 OFFCURVE",
"781 243 OFFCURVE",
"812 256 CURVE SMOOTH",
"825 262 OFFCURVE",
"831 268 OFFCURVE",
"831 275 CURVE SMOOTH",
"831 276 OFFCURVE",
"830 277 OFFCURVE",
"828 277 CURVE SMOOTH",
"805 277 OFFCURVE",
"763 271 OFFCURVE",
"703 259 CURVE SMOOTH",
"634 245 OFFCURVE",
"590 237 OFFCURVE",
"571 235 CURVE",
"578 264 OFFCURVE",
"586 319 OFFCURVE",
"597 399 CURVE SMOOTH",
"607 469 OFFCURVE",
"617 524 OFFCURVE",
"627 563 CURVE",
"726 558 OFFCURVE",
"809 545 OFFCURVE",
"876 524 CURVE SMOOTH",
"891 519 OFFCURVE",
"903 517 OFFCURVE",
"914 517 CURVE",
"896 480 OFFCURVE",
"878 460 OFFCURVE",
"861 457 CURVE SMOOTH",
"849 455 OFFCURVE",
"843 453 OFFCURVE",
"843 452 CURVE SMOOTH",
"843 443 OFFCURVE",
"869 428 OFFCURVE",
"882 428 CURVE SMOOTH",
"901 428 OFFCURVE",
"917 440 OFFCURVE",
"928 464 CURVE SMOOTH",
"933 476 OFFCURVE",
"939 497 OFFCURVE",
"946 526 CURVE",
"948 527 OFFCURVE",
"949 529 OFFCURVE",
"949 532 CURVE SMOOTH",
"949 533 OFFCURVE",
"949 533 OFFCURVE",
"948 534 CURVE",
"954 563 OFFCURVE",
"957 589 OFFCURVE",
"957 612 CURVE SMOOTH",
"957 621 OFFCURVE",
"956 626 OFFCURVE",
"954 626 CURVE SMOOTH",
"945 626 OFFCURVE",
"944 610 OFFCURVE",
"943 601 CURVE SMOOTH",
"940 586 OFFCURVE",
"935 569 OFFCURVE",
"928 551 CURVE",
"899 562 OFFCURVE",
"852 573 OFFCURVE",
"785 582 CURVE SMOOTH",
"729 589 OFFCURVE",
"680 594 OFFCURVE",
"637 595 CURVE",
"644 614 OFFCURVE",
"647 625 OFFCURVE",
"647 627 CURVE SMOOTH",
"647 638 OFFCURVE",
"642 643 OFFCURVE",
"632 643 CURVE SMOOTH",
"619 643 OFFCURVE",
"606 627 OFFCURVE",
"592 595 CURVE",
"533 592 LINE",
"535 603 OFFCURVE",
"536 614 OFFCURVE",
"536 624 CURVE SMOOTH",
"536 671 OFFCURVE",
"515 700 OFFCURVE",
"474 711 CURVE SMOOTH",
"463 714 OFFCURVE",
"454 715 OFFCURVE",
"447 715 CURVE SMOOTH",
"440 715 OFFCURVE",
"436 713 OFFCURVE",
"436 709 CURVE SMOOTH",
"436 706 OFFCURVE",
"439 704 OFFCURVE",
"445 703 CURVE SMOOTH",
"477 698 OFFCURVE",
"493 678 OFFCURVE",
"493 643 CURVE SMOOTH",
"493 627 OFFCURVE",
"490 608 OFFCURVE",
"485 586 CURVE",
"464 583 OFFCURVE",
"445 579 OFFCURVE",
"426 574 CURVE",
"439 622 OFFCURVE",
"446 653 OFFCURVE",
"446 667 CURVE SMOOTH",
"446 668 OFFCURVE",
"446 668 OFFCURVE",
"445 669 CURVE",
"441 669 OFFCURVE",
"438 667 OFFCURVE",
"437 662 CURVE SMOOTH",
"433 649 OFFCURVE",
"430 638 OFFCURVE",
"429 631 CURVE SMOOTH",
"424 610 OFFCURVE",
"418 590 OFFCURVE",
"411 570 CURVE",
"402 567 OFFCURVE",
"397 563 OFFCURVE",
"397 559 CURVE SMOOTH",
"397 556 OFFCURVE",
"400 553 OFFCURVE",
"405 551 CURVE",
"364 430 OFFCURVE",
"300 313 OFFCURVE",
"213 199 CURVE",
"168 190 OFFCURVE",
"129 179 OFFCURVE",
"98 166 CURVE SMOOTH",
"57 148 OFFCURVE",
"23 125 OFFCURVE",
"-6 96 CURVE SMOOTH",
"-41 61 OFFCURVE",
"-58 25 OFFCURVE",
"-58 -13 CURVE SMOOTH",
"-58 -36 OFFCURVE",
"-51 -54 OFFCURVE",
"-36 -69 CURVE",
"-63 -89 OFFCURVE",
"-89 -103 OFFCURVE",
"-112 -112 CURVE SMOOTH",
"-122 -115 OFFCURVE",
"-129 -118 OFFCURVE",
"-134 -119 CURVE SMOOTH",
"-141 -121 OFFCURVE",
"-144 -124 OFFCURVE",
"-144 -128 CURVE SMOOTH",
"-144 -131 OFFCURVE",
"-142 -132 OFFCURVE",
"-137 -132 CURVE SMOOTH",
"-110 -132 OFFCURVE",
"-72 -115 OFFCURVE",
"-23 -80 CURVE",
"-14 -87 OFFCURVE",
"-3 -94 OFFCURVE",
"9 -101 CURVE",
"-51 -146 OFFCURVE",
"-104 -169 OFFCURVE",
"-150 -169 CURVE SMOOTH",
"-177 -169 OFFCURVE",
"-190 -159 OFFCURVE",
"-190 -140 CURVE SMOOTH",
"-190 -134 OFFCURVE",
"-189 -127 OFFCURVE",
"-187 -120 CURVE",
"-196 -127 OFFCURVE",
"-200 -137 OFFCURVE",
"-200 -152 CURVE SMOOTH",
"-200 -173 OFFCURVE",
"-184 -183 OFFCURVE",
"-152 -183 CURVE SMOOTH"
);
},
{
closed = 1;
nodes = (
"-18 -49 OFFCURVE",
"-19 -44 OFFCURVE",
"-19 -38 CURVE SMOOTH",
"-19 -15 OFFCURVE",
"-7 13 OFFCURVE",
"16 46 CURVE SMOOTH",
"37 75 OFFCURVE",
"58 96 OFFCURVE",
"81 111 CURVE SMOOTH",
"112 132 OFFCURVE",
"146 149 OFFCURVE",
"185 162 CURVE",
"100 57 OFFCURVE",
"33 -15 OFFCURVE",
"-16 -54 CURVE"
);
},
{
closed = 1;
nodes = (
"10 -85 OFFCURVE",
"0 -77 OFFCURVE",
"-7 -68 CURVE",
"52 -23 OFFCURVE",
"125 57 OFFCURVE",
"213 171 CURVE",
"231 176 OFFCURVE",
"250 181 OFFCURVE",
"270 185 CURVE",
"173 55 OFFCURVE",
"90 -37 OFFCURVE",
"21 -92 CURVE"
);
},
{
closed = 1;
nodes = (
"322 320 OFFCURVE",
"383 435 OFFCURVE",
"419 548 CURVE",
"421 548 OFFCURVE",
"440 551 OFFCURVE",
"476 557 CURVE",
"439 448 OFFCURVE",
"376 332 OFFCURVE",
"287 209 CURVE",
"270 208 OFFCURVE",
"253 206 OFFCURVE",
"236 203 CURVE"
);
},
{
closed = 1;
nodes = (
"374 265 OFFCURVE",
"411 320 OFFCURVE",
"446 381 CURVE SMOOTH",
"487 452 OFFCURVE",
"514 512 OFFCURVE",
"527 562 CURVE",
"543 563 OFFCURVE",
"560 564 OFFCURVE",
"578 564 CURVE SMOOTH",
"580 564 LINE",
"566 522 OFFCURVE",
"555 467 OFFCURVE",
"545 398 CURVE SMOOTH",
"521 229 LINE",
"467 224 OFFCURVE",
"405 219 OFFCURVE",
"334 214 CURVE"
);
}
);
width = 942;
}
);
note = AE;
unicode = 00C6;
},
{
glyphname = B;
lastChange = "2021-11-23 05:59:21 +0000";
layers = (
{
background = {
paths = (
{
closed = 1;
nodes = (
"515 587 LINE SMOOTH",
"557 587 OFFCURVE",
"600 583 OFFCURVE",
"643 575 CURVE",
"604 534 OFFCURVE",
"564 471 OFFCURVE",
"521 386 CURVE SMOOTH",
"488 317 OFFCURVE",
"456 248 OFFCURVE",
"424 179 CURVE SMOOTH",
"389 105 OFFCURVE",
"358 53 OFFCURVE",
"331 23 CURVE",
"312 30 OFFCURVE",
"293 37 OFFCURVE",
"274 42 CURVE",
"323 102 OFFCURVE",
"365 175 OFFCURVE",
"402 260 CURVE",
"445 300 OFFCURVE",
"467 329 OFFCURVE",
"467 348 CURVE SMOOTH",
"467 355 OFFCURVE",
"464 358 OFFCURVE",
"459 358 CURVE SMOOTH",
"454 358 OFFCURVE",
"447 355 OFFCURVE",
"438 350 CURVE",
"470 443 OFFCURVE",
"493 522 OFFCURVE",
"507 587 CURVE"
);
},
{
closed = 1;
nodes = (
"518 683 OFFCURVE",
"517 691 OFFCURVE",
"514 692 CURVE",
"506 661 OFFCURVE",
"500 631 OFFCURVE",
"497 603 CURVE",
"426 603 OFFCURVE",
"359 594 OFFCURVE",
"297 576 CURVE SMOOTH",
"222 555 OFFCURVE",
"164 523 OFFCURVE",
"122 480 CURVE SMOOTH",
"97 455 OFFCURVE",
"85 427 OFFCURVE",
"85 398 CURVE SMOOTH",
"85 357 OFFCURVE",
"105 321 OFFCURVE",
"144 288 CURVE SMOOTH",
"180 257 OFFCURVE",
"219 240 OFFCURVE",
"260 237 CURVE",
"263 236 LINE",
"268 236 OFFCURVE",
"270 238 OFFCURVE",
"270 241 CURVE SMOOTH",
"270 243 OFFCURVE",
"268 244 OFFCURVE",
"264 245 CURVE SMOOTH",
"246 249 OFFCURVE",
"233 253 OFFCURVE",
"225 256 CURVE SMOOTH",
"198 267 OFFCURVE",
"177 282 OFFCURVE",
"161 302 CURVE SMOOTH",
"143 324 OFFCURVE",
"134 348 OFFCURVE",
"134 375 CURVE SMOOTH",
"134 408 OFFCURVE",
"147 439 OFFCURVE",
"174 466 CURVE SMOOTH",
"248 542 OFFCURVE",
"354 582 OFFCURVE",
"493 587 CURVE",
"469 470 OFFCURVE",
"445 389 OFFCURVE",
"421 342 CURVE",
"413 363 OFFCURVE",
"404 374 OFFCURVE",
"393 374 CURVE SMOOTH",
"384 374 OFFCURVE",
"379 362 OFFCURVE",
"379 338 CURVE SMOOTH",
"379 321 OFFCURVE",
"384 298 OFFCURVE",
"393 267 CURVE",
"356 177 OFFCURVE",
"313 103 OFFCURVE",
"265 45 CURVE",
"218 58 OFFCURVE",
"177 65 OFFCURVE",
"140 65 CURVE SMOOTH",
"105 65 OFFCURVE",
"75 59 OFFCURVE",
"50 46 CURVE SMOOTH",
"17 30 OFFCURVE",
"1 6 OFFCURVE",
"1 -25 CURVE SMOOTH",
"1 -50 OFFCURVE",
"14 -72 OFFCURVE",
"41 -91 CURVE SMOOTH",
"65 -108 OFFCURVE",
"90 -117 OFFCURVE",
"116 -117 CURVE SMOOTH",
"174 -117 OFFCURVE",
"220 -109 OFFCURVE",
"254 -93 CURVE SMOOTH",
"289 -78 OFFCURVE",
"324 -48 OFFCURVE",
"361 -4 CURVE",
"519 -69 LINE",
"568 -85 OFFCURVE",
"624 -93 OFFCURVE",
"689 -93 CURVE SMOOTH",
"732 -93 OFFCURVE",
"770 -79 OFFCURVE",
"804 -51 CURVE SMOOTH",
"839 -23 OFFCURVE",
"856 12 OFFCURVE",
"856 53 CURVE SMOOTH",
"856 140 OFFCURVE",
"787 216 OFFCURVE",
"649 280 CURVE",
"701 283 OFFCURVE",
"746 295 OFFCURVE",
"785 315 CURVE SMOOTH",
"837 341 OFFCURVE",
"863 377 OFFCURVE",
"863 422 CURVE SMOOTH",
"863 459 OFFCURVE",
"845 492 OFFCURVE",
"808 521 CURVE SMOOTH",
"779 544 OFFCURVE",
"744 562 OFFCURVE",
"702 575 CURVE",
"733 600 OFFCURVE",
"762 613 OFFCURVE",
"789 613 CURVE SMOOTH",
"828 613 OFFCURVE",
"850 598 OFFCURVE",
"854 568 CURVE SMOOTH",
"856 549 OFFCURVE",
"858 540 OFFCURVE",
"861 540 CURVE SMOOTH",
"864 540 OFFCURVE",
"866 545 OFFCURVE",
"866 554 CURVE SMOOTH",
"866 603 OFFCURVE",
"828 643 OFFCURVE",
"779 643 CURVE SMOOTH",
"736 643 OFFCURVE",
"695 624 OFFCURVE",
"655 587 CURVE",
"610 597 OFFCURVE",
"561 602 OFFCURVE",
"510 603 CURVE",
"515 630 OFFCURVE",
"518 652 OFFCURVE",
"518 669 CURVE SMOOTH"
);
},
{
closed = 1;
nodes = (
"587 255 OFFCURVE",
"588 251 OFFCURVE",
"590 250 CURVE SMOOTH",
"617 238 OFFCURVE",
"637 229 OFFCURVE",
"650 224 CURVE",
"761 170 OFFCURVE",
"817 102 OFFCURVE",
"817 20 CURVE SMOOTH",
"817 -41 OFFCURVE",
"772 -72 OFFCURVE",
"682 -72 CURVE SMOOTH",
"635 -72 OFFCURVE",
"582 -63 OFFCURVE",
"524 -44 CURVE SMOOTH",
"373 10 LINE",
"408 51 OFFCURVE",
"444 111 OFFCURVE",
"481 192 CURVE SMOOTH",
"574 396 LINE SMOOTH",
"611 471 OFFCURVE",
"650 527 OFFCURVE",
"689 563 CURVE",
"723 552 OFFCURVE",
"751 536 OFFCURVE",
"774 514 CURVE SMOOTH",
"800 488 OFFCURVE",
"813 459 OFFCURVE",
"813 426 CURVE SMOOTH",
"813 391 OFFCURVE",
"798 361 OFFCURVE",
"767 338 CURVE SMOOTH",
"742 318 OFFCURVE",
"710 305 OFFCURVE",
"671 298 CURVE SMOOTH",
"660 296 OFFCURVE",
"648 295 OFFCURVE",
"636 294 CURVE SMOOTH",
"616 294 LINE",
"597 290 OFFCURVE",
"587 279 OFFCURVE",
"587 260 CURVE SMOOTH"
);
},
{
closed = 1;
nodes = (
"304 -18 OFFCURVE",
"275 -42 OFFCURVE",
"234 -63 CURVE SMOOTH",
"194 -84 OFFCURVE",
"157 -94 OFFCURVE",
"123 -94 CURVE SMOOTH",
"98 -94 OFFCURVE",
"75 -87 OFFCURVE",
"54 -73 CURVE SMOOTH",
"31 -58 OFFCURVE",
"19 -38 OFFCURVE",
"19 -14 CURVE SMOOTH",
"19 11 OFFCURVE",
"33 30 OFFCURVE",
"61 42 CURVE SMOOTH",
"82 51 OFFCURVE",
"106 56 OFFCURVE",
"135 56 CURVE SMOOTH",
"173 56 OFFCURVE",
"214 49 OFFCURVE",
"257 35 CURVE",
"222 -4 OFFCURVE",
"192 -24 OFFCURVE",
"166 -24 CURVE SMOOTH",
"162 -24 OFFCURVE",
"152 -21 OFFCURVE",
"149 -21 CURVE SMOOTH",
"145 -21 OFFCURVE",
"143 -23 OFFCURVE",
"143 -26 CURVE SMOOTH",
"143 -34 OFFCURVE",
"150 -38 OFFCURVE",
"164 -38 CURVE SMOOTH",
"193 -38 OFFCURVE",
"227 -14 OFFCURVE",
"266 33 CURVE",
"287 26 OFFCURVE",
"305 18 OFFCURVE",
"322 9 CURVE"
);
}
);
};
layerId = "47CF47DF-B93A-4126-8606-39E7B9FB561A";
paths = (
{
closed = 1;
nodes = (
"174 -107 OFFCURVE",
"220 -99 OFFCURVE",
"254 -83 CURVE SMOOTH",
"289 -68 OFFCURVE",
"324 -38 OFFCURVE",
"361 6 CURVE",
"519 -59 LINE",
"568 -75 OFFCURVE",
"624 -83 OFFCURVE",
"689 -83 CURVE SMOOTH",
"732 -83 OFFCURVE",
"770 -69 OFFCURVE",
"804 -41 CURVE SMOOTH",
"839 -13 OFFCURVE",
"856 22 OFFCURVE",
"856 63 CURVE SMOOTH",
"856 150 OFFCURVE",
"787 226 OFFCURVE",
"649 290 CURVE",
"701 293 OFFCURVE",
"746 305 OFFCURVE",
"785 325 CURVE SMOOTH",
"837 351 OFFCURVE",
"863 387 OFFCURVE",
"863 432 CURVE SMOOTH",
"863 469 OFFCURVE",
"845 502 OFFCURVE",
"808 531 CURVE SMOOTH",
"779 554 OFFCURVE",
"744 572 OFFCURVE",
"702 585 CURVE",
"733 610 OFFCURVE",
"762 623 OFFCURVE",
"789 623 CURVE SMOOTH",
"828 623 OFFCURVE",
"850 608 OFFCURVE",
"854 578 CURVE SMOOTH",
"856 559 OFFCURVE",
"858 550 OFFCURVE",
"861 550 CURVE SMOOTH",
"864 550 OFFCURVE",
"866 555 OFFCURVE",
"866 564 CURVE SMOOTH",
"866 613 OFFCURVE",
"828 653 OFFCURVE",
"779 653 CURVE SMOOTH",
"736 653 OFFCURVE",
"695 634 OFFCURVE",
"655 597 CURVE",
"610 607 OFFCURVE",
"561 612 OFFCURVE",
"510 613 CURVE",
"515 640 OFFCURVE",
"518 662 OFFCURVE",
"518 679 CURVE SMOOTH",
"518 693 OFFCURVE",
"517 701 OFFCURVE",
"514 702 CURVE",
"506 671 OFFCURVE",
"500 641 OFFCURVE",
"497 613 CURVE",
"426 613 OFFCURVE",
"359 604 OFFCURVE",
"297 586 CURVE SMOOTH",
"222 565 OFFCURVE",
"164 533 OFFCURVE",
"122 490 CURVE SMOOTH",
"97 465 OFFCURVE",
"85 437 OFFCURVE",
"85 408 CURVE SMOOTH",
"85 367 OFFCURVE",
"105 331 OFFCURVE",
"144 298 CURVE SMOOTH",
"180 267 OFFCURVE",
"219 250 OFFCURVE",
"260 247 CURVE",
"263 246 LINE",
"268 246 OFFCURVE",
"270 248 OFFCURVE",
"270 251 CURVE SMOOTH",
"270 253 OFFCURVE",
"268 254 OFFCURVE",
"264 255 CURVE SMOOTH",
"246 259 OFFCURVE",
"233 263 OFFCURVE",
"225 266 CURVE SMOOTH",
"198 277 OFFCURVE",
"177 292 OFFCURVE",
"161 312 CURVE SMOOTH",
"143 334 OFFCURVE",
"134 358 OFFCURVE",
"134 385 CURVE SMOOTH",
"134 418 OFFCURVE",
"147 449 OFFCURVE",
"174 476 CURVE SMOOTH",
"248 552 OFFCURVE",
"354 592 OFFCURVE",
"493 597 CURVE",
"469 480 OFFCURVE",
"445 399 OFFCURVE",
"421 352 CURVE",
"413 373 OFFCURVE",
"404 384 OFFCURVE",
"393 384 CURVE SMOOTH",
"384 384 OFFCURVE",
"379 372 OFFCURVE",
"379 348 CURVE SMOOTH",
"379 331 OFFCURVE",
"384 308 OFFCURVE",
"393 277 CURVE",
"356 187 OFFCURVE",
"313 113 OFFCURVE",
"265 55 CURVE",
"218 68 OFFCURVE",
"177 75 OFFCURVE",
"140 75 CURVE SMOOTH",
"105 75 OFFCURVE",
"75 69 OFFCURVE",
"50 56 CURVE SMOOTH",
"17 40 OFFCURVE",
"1 16 OFFCURVE",
"1 -15 CURVE SMOOTH",
"1 -40 OFFCURVE",
"14 -62 OFFCURVE",
"41 -81 CURVE SMOOTH",
"65 -98 OFFCURVE",
"90 -107 OFFCURVE",
"116 -107 CURVE SMOOTH"
);
},
{
closed = 1;
nodes = (
"98 -84 OFFCURVE",
"75 -77 OFFCURVE",
"54 -63 CURVE SMOOTH",
"31 -48 OFFCURVE",
"19 -28 OFFCURVE",
"19 -4 CURVE SMOOTH",
"19 21 OFFCURVE",
"33 40 OFFCURVE",
"61 52 CURVE SMOOTH",
"82 61 OFFCURVE",
"106 66 OFFCURVE",
"135 66 CURVE SMOOTH",
"173 66 OFFCURVE",
"214 59 OFFCURVE",
"257 45 CURVE",
"222 6 OFFCURVE",
"192 -14 OFFCURVE",
"166 -14 CURVE SMOOTH",
"162 -14 OFFCURVE",
"152 -11 OFFCURVE",
"149 -11 CURVE SMOOTH",
"145 -11 OFFCURVE",
"143 -13 OFFCURVE",
"143 -16 CURVE SMOOTH",
"143 -24 OFFCURVE",
"150 -28 OFFCURVE",
"164 -28 CURVE SMOOTH",
"193 -28 OFFCURVE",
"227 -4 OFFCURVE",
"266 43 CURVE",
"287 36 OFFCURVE",
"305 28 OFFCURVE",
"322 19 CURVE",
"304 -8 OFFCURVE",
"275 -32 OFFCURVE",
"234 -53 CURVE SMOOTH",
"194 -74 OFFCURVE",
"157 -84 OFFCURVE",
"123 -84 CURVE SMOOTH"
);
},
{
closed = 1;
nodes = (
"312 40 OFFCURVE",
"293 47 OFFCURVE",
"274 52 CURVE",
"323 112 OFFCURVE",
"365 185 OFFCURVE",
"402 270 CURVE",
"445 310 OFFCURVE",
"467 339 OFFCURVE",
"467 358 CURVE SMOOTH",
"467 365 OFFCURVE",
"464 368 OFFCURVE",
"459 368 CURVE SMOOTH",
"454 368 OFFCURVE",
"447 365 OFFCURVE",
"438 360 CURVE",
"470 453 OFFCURVE",
"493 532 OFFCURVE",
"507 597 CURVE",
"515 597 LINE SMOOTH",
"557 597 OFFCURVE",
"600 593 OFFCURVE",
"643 585 CURVE",
"604 544 OFFCURVE",
"564 481 OFFCURVE",
"521 396 CURVE SMOOTH",
"488 327 OFFCURVE",
"456 258 OFFCURVE",
"424 189 CURVE SMOOTH",
"389 115 OFFCURVE",
"358 63 OFFCURVE",
"331 33 CURVE"
);
},
{
closed = 1;
nodes = (
"635 -62 OFFCURVE",
"582 -53 OFFCURVE",
"524 -34 CURVE SMOOTH",
"373 20 LINE",
"408 61 OFFCURVE",
"444 121 OFFCURVE",
"481 202 CURVE SMOOTH",
"574 406 LINE SMOOTH",
"611 481 OFFCURVE",
"650 537 OFFCURVE",
"689 573 CURVE",
"723 562 OFFCURVE",
"751 546 OFFCURVE",
"774 524 CURVE SMOOTH",
"800 498 OFFCURVE",
"813 469 OFFCURVE",
"813 436 CURVE SMOOTH",
"813 401 OFFCURVE",
"798 371 OFFCURVE",
"767 348 CURVE SMOOTH",
"742 328 OFFCURVE",
"710 315 OFFCURVE",
"671 308 CURVE SMOOTH",
"660 306 OFFCURVE",
"648 305 OFFCURVE",
"636 304 CURVE SMOOTH",
"616 304 LINE",
"597 300 OFFCURVE",
"587 289 OFFCURVE",
"587 270 CURVE SMOOTH",
"587 265 OFFCURVE",
"588 261 OFFCURVE",
"590 260 CURVE SMOOTH",
"617 248 OFFCURVE",
"637 239 OFFCURVE",
"650 234 CURVE",
"761 180 OFFCURVE",
"817 112 OFFCURVE",
"817 30 CURVE SMOOTH",
"817 -31 OFFCURVE",
"772 -62 OFFCURVE",
"682 -62 CURVE SMOOTH"
);
}
);
width = 910;
}
);
note = B;
unicode = 0042;
},
{
glyphname = C;
lastChange = "2021-11-23 05:59:21 +0000";
layers = (
{
anchors = (
{
name = bottom;
position = "{311, -88}";
},
{
name = top;
position = "{602, 636}";
}
);
background = {
paths = (
{
closed = 1;
nodes = (
"167 -44 OFFCURVE",
"94 33 OFFCURVE",
"94 158 CURVE SMOOTH",
"94 241 OFFCURVE",
"119 322 OFFCURVE",
"169 400 CURVE SMOOTH",
"219 478 OFFCURVE",
"282 534 OFFCURVE",
"357 569 CURVE",
"388 564 OFFCURVE",
"418 558 OFFCURVE",
"447 549 CURVE",
"440 482 OFFCURVE",
"429 411 OFFCURVE",
"414 336 CURVE",
"406 354 OFFCURVE",
"397 363 OFFCURVE",
"388 363 CURVE SMOOTH",
"377 363 OFFCURVE",
"371 352 OFFCURVE",
"371 331 CURVE SMOOTH",
"371 307 OFFCURVE",
"380 284 OFFCURVE",
"398 261 CURVE",
"368 133 OFFCURVE",
"333 27 OFFCURVE",
"292 -56 CURVE"
);
},
{
closed = 1;
nodes = (
"468 695 OFFCURVE",
"465 722 OFFCURVE",
"460 740 CURVE SMOOTH",
"459 743 OFFCURVE",
"458 745 OFFCURVE",
"456 745 CURVE SMOOTH",
"453 745 OFFCURVE",
"451 742 OFFCURVE",
"451 737 CURVE SMOOTH",
"451 724 OFFCURVE",
"453 689 OFFCURVE",
"453 676 CURVE SMOOTH",
"453 657 OFFCURVE",
"453 636 OFFCURVE",
"452 614 CURVE",
"418 606 OFFCURVE",
"385 594 OFFCURVE",
"352 579 CURVE",
"325 582 OFFCURVE",
"302 584 OFFCURVE",
"285 584 CURVE SMOOTH",
"230 584 OFFCURVE",
"176 576 OFFCURVE",
"122 560 CURVE SMOOTH",
"48 537 OFFCURVE",
"11 505 OFFCURVE",
"11 464 CURVE SMOOTH",
"11 455 OFFCURVE",
"13 445 OFFCURVE",
"18 435 CURVE SMOOTH",
"23 422 OFFCURVE",
"30 416 OFFCURVE",
"38 416 CURVE SMOOTH",
"44 416 OFFCURVE",
"47 421 OFFCURVE",
"47 430 CURVE SMOOTH",
"47 438 LINE",
"46 441 OFFCURVE",
"46 444 OFFCURVE",
"46 446 CURVE SMOOTH",
"46 475 OFFCURVE",
"66 502 OFFCURVE",
"107 526 CURVE SMOOTH",
"136 543 OFFCURVE",
"169 556 OFFCURVE",
"207 565 CURVE SMOOTH",
"236 572 OFFCURVE",
"265 575 OFFCURVE",
"292 575 CURVE SMOOTH",
"303 575 OFFCURVE",
"318 574 OFFCURVE",
"337 572 CURVE",
"257 531 OFFCURVE",
"188 469 OFFCURVE",
"129 386 CURVE SMOOTH",
"67 298 OFFCURVE",
"36 212 OFFCURVE",
"36 127 CURVE SMOOTH",
"36 56 OFFCURVE",
"58 0 OFFCURVE",
"101 -39 CURVE SMOOTH",
"142 -76 OFFCURVE",
"198 -95 OFFCURVE",
"271 -97 CURVE",
"239 -152 OFFCURVE",
"207 -186 OFFCURVE",
"175 -199 CURVE SMOOTH",
"155 -206 OFFCURVE",
"145 -204 OFFCURVE",
"145 -212 CURVE SMOOTH",
"145 -217 OFFCURVE",
"148 -219 OFFCURVE",
"155 -219 CURVE SMOOTH",
"195 -219 OFFCURVE",
"237 -178 OFFCURVE",
"282 -97 CURVE",
"367 -96 OFFCURVE",
"455 -73 OFFCURVE",
"545 -28 CURVE SMOOTH",
"639 20 OFFCURVE",
"706 79 OFFCURVE",
"747 149 CURVE SMOOTH",
"750 154 OFFCURVE",
"751 159 OFFCURVE",
"751 164 CURVE SMOOTH",
"751 165 OFFCURVE",
"751 166 OFFCURVE",
"750 167 CURVE",
"749 167 OFFCURVE",
"745 163 OFFCURVE",
"740 155 CURVE SMOOTH",
"699 91 OFFCURVE",
"639 39 OFFCURVE",
"560 0 CURVE SMOOTH",
"484 -39 OFFCURVE",
"407 -58 OFFCURVE",
"329 -58 CURVE SMOOTH",
"320 -58 OFFCURVE",
"311 -58 OFFCURVE",
"302 -57 CURVE",
"342 26 OFFCURVE",
"377 131 OFFCURVE",
"408 256 CURVE",
"421 263 OFFCURVE",
"433 275 OFFCURVE",
"446 292 CURVE SMOOTH",
"459 310 OFFCURVE",
"465 326 OFFCURVE",
"465 339 CURVE SMOOTH",
"465 348 OFFCURVE",
"461 352 OFFCURVE",
"454 352 CURVE SMOOTH",
"447 352 OFFCURVE",
"438 348 OFFCURVE",
"427 339 CURVE",
"442 412 OFFCURVE",
"454 481 OFFCURVE",
"461 545 CURVE",
"504 532 OFFCURVE",
"548 513 OFFCURVE",
"593 489 CURVE SMOOTH",
"614 478 OFFCURVE",
"655 455 OFFCURVE",
"716 418 CURVE SMOOTH",
"723 414 OFFCURVE",
"729 412 OFFCURVE",
"735 412 CURVE SMOOTH",
"745 412 OFFCURVE",
"750 418 OFFCURVE",
"749 429 CURVE SMOOTH",
"749 434 LINE SMOOTH",
"744 557 OFFCURVE",
"670 625 OFFCURVE",
"543 625 CURVE SMOOTH",
"519 625 OFFCURVE",
"494 622 OFFCURVE",
"467 617 CURVE",
"468 632 OFFCURVE",
"468 646 OFFCURVE",
"468 659 CURVE SMOOTH"
);
},
{
closed = 1;
nodes = (
"448 564 LINE",
"374 576 LINE",
"397 585 OFFCURVE",
"423 592 OFFCURVE",
"450 596 CURVE"
);
},
{
closed = 1;
nodes = (
"544 599 OFFCURVE",
"582 592 OFFCURVE",
"619 577 CURVE SMOOTH",
"662 560 OFFCURVE",
"692 536 OFFCURVE",
"709 505 CURVE SMOOTH",
"714 496 OFFCURVE",
"716 488 OFFCURVE",
"716 481 CURVE SMOOTH",
"716 474 OFFCURVE",
"713 470 OFFCURVE",
"708 470 CURVE SMOOTH",
"705 470 OFFCURVE",
"700 472 OFFCURVE",
"695 475 CURVE SMOOTH",
"620 516 OFFCURVE",
"542 544 OFFCURVE",
"462 561 CURVE",
"465 597 LINE",
"478 598 OFFCURVE",
"490 599 OFFCURVE",
"503 599 CURVE SMOOTH"
);
}
);
};
layerId = "47CF47DF-B93A-4126-8606-39E7B9FB561A";
paths = (
{
closed = 1;
nodes = (
"195 -209 OFFCURVE",
"237 -168 OFFCURVE",
"282 -87 CURVE",
"367 -86 OFFCURVE",
"455 -63 OFFCURVE",
"545 -18 CURVE SMOOTH",
"639 30 OFFCURVE",
"706 89 OFFCURVE",
"747 159 CURVE SMOOTH",
"750 164 OFFCURVE",
"751 169 OFFCURVE",
"751 174 CURVE SMOOTH",
"751 175 OFFCURVE",
"751 176 OFFCURVE",
"750 177 CURVE",
"749 177 OFFCURVE",
"745 173 OFFCURVE",
"740 165 CURVE SMOOTH",
"699 101 OFFCURVE",
"639 49 OFFCURVE",
"560 10 CURVE SMOOTH",
"484 -29 OFFCURVE",
"407 -48 OFFCURVE",
"329 -48 CURVE SMOOTH",
"320 -48 OFFCURVE",
"311 -48 OFFCURVE",
"302 -47 CURVE",
"342 36 OFFCURVE",
"377 141 OFFCURVE",
"408 266 CURVE",
"421 273 OFFCURVE",
"433 285 OFFCURVE",
"446 302 CURVE SMOOTH",
"459 320 OFFCURVE",
"465 336 OFFCURVE",
"465 349 CURVE SMOOTH",
"465 358 OFFCURVE",
"461 362 OFFCURVE",
"454 362 CURVE SMOOTH",
"447 362 OFFCURVE",
"438 358 OFFCURVE",
"427 349 CURVE",
"442 422 OFFCURVE",
"454 491 OFFCURVE",
"461 555 CURVE",
"504 542 OFFCURVE",
"548 523 OFFCURVE",
"593 499 CURVE SMOOTH",
"614 488 OFFCURVE",
"655 465 OFFCURVE",
"716 428 CURVE SMOOTH",
"723 424 OFFCURVE",
"729 422 OFFCURVE",
"735 422 CURVE SMOOTH",
"745 422 OFFCURVE",
"749 428 OFFCURVE",
"749 439 CURVE SMOOTH",
"749 444 LINE SMOOTH",
"749 567 OFFCURVE",
"670 635 OFFCURVE",
"543 635 CURVE SMOOTH",
"519 635 OFFCURVE",
"494 632 OFFCURVE",
"467 627 CURVE",
"468 642 OFFCURVE",
"468 656 OFFCURVE",
"468 669 CURVE SMOOTH",
"468 705 OFFCURVE",
"465 732 OFFCURVE",
"460 750 CURVE SMOOTH",
"459 753 OFFCURVE",
"458 755 OFFCURVE",
"456 755 CURVE SMOOTH",
"453 755 OFFCURVE",
"451 752 OFFCURVE",
"451 747 CURVE SMOOTH",
"451 734 OFFCURVE",
"453 699 OFFCURVE",
"453 686 CURVE SMOOTH",
"453 667 OFFCURVE",
"453 646 OFFCURVE",
"452 624 CURVE",
"418 616 OFFCURVE",
"385 604 OFFCURVE",
"352 589 CURVE",
"325 592 OFFCURVE",
"302 594 OFFCURVE",
"285 594 CURVE SMOOTH",
"230 594 OFFCURVE",
"176 586 OFFCURVE",
"122 570 CURVE SMOOTH",
"48 547 OFFCURVE",
"11 515 OFFCURVE",
"11 474 CURVE SMOOTH",
"11 465 OFFCURVE",
"13 455 OFFCURVE",
"18 445 CURVE SMOOTH",
"23 432 OFFCURVE",
"30 426 OFFCURVE",
"38 426 CURVE SMOOTH",
"44 426 OFFCURVE",
"47 431 OFFCURVE",
"47 440 CURVE SMOOTH",
"47 448 LINE",
"46 451 OFFCURVE",
"46 454 OFFCURVE",
"46 456 CURVE SMOOTH",
"46 485 OFFCURVE",
"66 512 OFFCURVE",
"107 536 CURVE SMOOTH",
"136 553 OFFCURVE",
"169 566 OFFCURVE",
"207 575 CURVE SMOOTH",
"236 582 OFFCURVE",
"265 585 OFFCURVE",
"292 585 CURVE SMOOTH",
"303 585 OFFCURVE",
"318 584 OFFCURVE",
"337 582 CURVE",
"257 541 OFFCURVE",
"188 479 OFFCURVE",
"129 396 CURVE SMOOTH",
"67 308 OFFCURVE",
"36 222 OFFCURVE",
"36 137 CURVE SMOOTH",
"36 66 OFFCURVE",
"58 10 OFFCURVE",
"101 -29 CURVE SMOOTH",
"142 -66 OFFCURVE",
"198 -85 OFFCURVE",
"271 -87 CURVE",
"239 -142 OFFCURVE",
"207 -176 OFFCURVE",
"175 -189 CURVE SMOOTH",
"155 -196 OFFCURVE",
"145 -194 OFFCURVE",
"145 -202 CURVE SMOOTH",
"145 -207 OFFCURVE",
"148 -209 OFFCURVE",
"155 -209 CURVE SMOOTH"
);
},
{
closed = 1;
nodes = (
"167 -34 OFFCURVE",
"94 43 OFFCURVE",
"94 168 CURVE SMOOTH",
"94 251 OFFCURVE",
"119 332 OFFCURVE",
"169 410 CURVE SMOOTH",
"219 488 OFFCURVE",
"282 544 OFFCURVE",
"357 579 CURVE",
"388 574 OFFCURVE",
"418 568 OFFCURVE",
"447 559 CURVE",
"440 492 OFFCURVE",
"429 421 OFFCURVE",
"414 346 CURVE",
"406 364 OFFCURVE",
"397 373 OFFCURVE",
"388 373 CURVE SMOOTH",
"377 373 OFFCURVE",
"371 362 OFFCURVE",
"371 341 CURVE SMOOTH",
"371 317 OFFCURVE",
"380 294 OFFCURVE",
"398 271 CURVE",
"368 143 OFFCURVE",
"333 37 OFFCURVE",
"292 -46 CURVE"
);
},
{
closed = 1;
nodes = (
"374 586 LINE",
"397 595 OFFCURVE",
"423 602 OFFCURVE",
"450 606 CURVE",
"448 574 LINE"
);
},
{
closed = 1;
nodes = (
"705 480 OFFCURVE",
"700 482 OFFCURVE",
"695 485 CURVE SMOOTH",
"620 526 OFFCURVE",
"542 554 OFFCURVE",
"462 571 CURVE",
"465 607 LINE",
"478 608 OFFCURVE",
"490 609 OFFCURVE",
"503 609 CURVE SMOOTH",
"544 609 OFFCURVE",
"582 602 OFFCURVE",
"619 587 CURVE SMOOTH",
"662 570 OFFCURVE",
"692 546 OFFCURVE",
"709 515 CURVE SMOOTH",
"714 506 OFFCURVE",
"716 498 OFFCURVE",
"716 491 CURVE SMOOTH",
"716 484 OFFCURVE",
"713 480 OFFCURVE",
"708 480 CURVE SMOOTH"
);
}
);
width = 717;
}
);
note = C;
unicode = 0043;
},
{
glyphname = D;
lastChange = "2021-11-23 05:59:21 +0000";
layers = (
{
anchors = (
{
name = bottom;
position = "{492, 0}";
},
{
name = center;
position = "{492, 350}";
},
{
name = top;
position = "{813, 700}";
}
);
background = {
paths = (
{
closed = 1;
nodes = (
"548 586 OFFCURVE",
"587 582 OFFCURVE",
"625 575 CURVE",
"594 542 OFFCURVE",
"556 477 OFFCURVE",
"511 380 CURVE SMOOTH",
"413 164 LINE SMOOTH",
"381 98 OFFCURVE",
"353 52 OFFCURVE",
"329 27 CURVE",
"278 48 LINE",
"325 107 OFFCURVE",
"367 178 OFFCURVE",
"402 260 CURVE",
"445 300 OFFCURVE",
"467 329 OFFCURVE",
"467 348 CURVE SMOOTH",
"467 355 OFFCURVE",
"464 358 OFFCURVE",
"459 358 CURVE SMOOTH",
"454 358 OFFCURVE",
"447 355 OFFCURVE",
"438 350 CURVE",
"470 443 OFFCURVE",
"493 521 OFFCURVE",
"507 586 CURVE"
);
},
{
closed = 1;
nodes = (
"518 683 OFFCURVE",
"517 691 OFFCURVE",
"514 692 CURVE",
"506 661 OFFCURVE",
"500 631 OFFCURVE",
"496 602 CURVE",
"329 604 OFFCURVE",
"204 562 OFFCURVE",
"123 477 CURVE SMOOTH",
"98 451 OFFCURVE",
"86 423 OFFCURVE",
"86 393 CURVE SMOOTH",
"86 353 OFFCURVE",
"104 317 OFFCURVE",
"141 285 CURVE SMOOTH",
"175 256 OFFCURVE",
"212 240 OFFCURVE",
"253 237 CURVE",
"255 236 LINE",
"260 236 OFFCURVE",
"262 238 OFFCURVE",
"262 241 CURVE SMOOTH",
"262 243 OFFCURVE",
"260 244 OFFCURVE",
"257 245 CURVE SMOOTH",
"236 250 OFFCURVE",
"221 254 OFFCURVE",
"211 259 CURVE SMOOTH",
"152 284 OFFCURVE",
"122 324 OFFCURVE",
"122 379 CURVE SMOOTH",
"122 410 OFFCURVE",
"135 439 OFFCURVE",
"160 466 CURVE SMOOTH",
"235 545 OFFCURVE",
"346 585 OFFCURVE",
"493 586 CURVE",
"469 470 OFFCURVE",
"445 389 OFFCURVE",
"421 342 CURVE",
"413 363 OFFCURVE",
"404 374 OFFCURVE",
"393 374 CURVE SMOOTH",
"384 374 OFFCURVE",
"379 362 OFFCURVE",
"379 338 CURVE SMOOTH",
"379 322 OFFCURVE",
"384 298 OFFCURVE",
"393 267 CURVE",
"357 181 OFFCURVE",
"316 109 OFFCURVE",
"270 51 CURVE",
"204 78 OFFCURVE",
"152 92 OFFCURVE",
"113 92 CURVE SMOOTH",
"84 92 OFFCURVE",
"60 86 OFFCURVE",
"40 75 CURVE SMOOTH",
"15 62 OFFCURVE",
"2 42 OFFCURVE",
"2 16 CURVE SMOOTH",
"2 -11 OFFCURVE",
"16 -35 OFFCURVE",
"43 -57 CURVE SMOOTH",
"68 -78 OFFCURVE",
"94 -89 OFFCURVE",
"121 -92 CURVE SMOOTH",
"134 -93 OFFCURVE",
"147 -94 OFFCURVE",
"160 -94 CURVE SMOOTH",
"247 -94 OFFCURVE",
"314 -64 OFFCURVE",
"361 -4 CURVE",
"446 -39 OFFCURVE",
"527 -57 OFFCURVE",
"602 -57 CURVE SMOOTH",
"750 -57 OFFCURVE",
"877 15 OFFCURVE",
"938 146 CURVE SMOOTH",
"959 192 OFFCURVE",
"970 240 OFFCURVE",
"970 290 CURVE SMOOTH",
"970 367 OFFCURVE",
"939 433 OFFCURVE",
"877 488 CURVE SMOOTH",
"822 537 OFFCURVE",
"754 569 OFFCURVE",
"674 582 CURVE",
"711 631 OFFCURVE",
"751 656 OFFCURVE",
"795 656 CURVE SMOOTH",
"812 656 OFFCURVE",
"829 651 OFFCURVE",
"846 642 CURVE SMOOTH",
"865 632 OFFCURVE",
"877 619 OFFCURVE",
"881 604 CURVE SMOOTH",
"883 595 OFFCURVE",
"886 591 OFFCURVE",
"889 591 CURVE SMOOTH",
"891 591 OFFCURVE",
"892 592 OFFCURVE",
"892 595 CURVE SMOOTH",
"892 600 OFFCURVE",
"891 608 OFFCURVE",
"888 617 CURVE SMOOTH",
"873 660 OFFCURVE",
"832 684 OFFCURVE",
"787 684 CURVE SMOOTH",
"734 684 OFFCURVE",
"684 652 OFFCURVE",
"635 587 CURVE",
"596 596 OFFCURVE",
"554 601 OFFCURVE",
"510 602 CURVE",
"515 629 OFFCURVE",
"518 652 OFFCURVE",
"518 669 CURVE SMOOTH"
);
},
{
closed = 1;
nodes = (
"734 556 OFFCURVE",
"792 522 OFFCURVE",
"839 466 CURVE SMOOTH",
"886 411 OFFCURVE",
"910 348 OFFCURVE",
"910 279 CURVE SMOOTH",
"910 186 OFFCURVE",
"880 110 OFFCURVE",
"820 50 CURVE SMOOTH",
"760 -10 OFFCURVE",
"684 -40 OFFCURVE",
"592 -40 CURVE SMOOTH",
"524 -40 OFFCURVE",
"451 -24 OFFCURVE",
"372 9 CURVE",
"403 45 OFFCURVE",
"436 98 OFFCURVE",
"472 169 CURVE SMOOTH",
"523 275 OFFCURVE",
"560 355 OFFCURVE",
"583 409 CURVE SMOOTH",
"617 483 OFFCURVE",
"644 536 OFFCURVE",
"665 568 CURVE"
);
},
{
closed = 1;
nodes = (
"305 -12 OFFCURVE",
"278 -32 OFFCURVE",
"241 -48 CURVE SMOOTH",
"207 -63 OFFCURVE",
"174 -70 OFFCURVE",
"141 -70 CURVE SMOOTH",
"113 -70 OFFCURVE",
"86 -62 OFFCURVE",
"61 -45 CURVE SMOOTH",
"33 -26 OFFCURVE",
"19 -3 OFFCURVE",
"19 23 CURVE SMOOTH",
"19 44 OFFCURVE",
"29 59 OFFCURVE",
"49 69 CURVE SMOOTH",
"65 78 OFFCURVE",
"84 82 OFFCURVE",
"106 82 CURVE SMOOTH",
"148 82 OFFCURVE",
"200 68 OFFCURVE",
"262 41 CURVE",
"225 -2 OFFCURVE",
"193 -24 OFFCURVE",
"166 -24 CURVE SMOOTH",
"162 -24 OFFCURVE",
"152 -21 OFFCURVE",
"149 -21 CURVE SMOOTH",
"145 -21 OFFCURVE",
"143 -23 OFFCURVE",
"143 -26 CURVE SMOOTH",
"143 -34 OFFCURVE",
"150 -38 OFFCURVE",
"164 -38 CURVE SMOOTH",
"193 -38 OFFCURVE",
"229 -13 OFFCURVE",
"270 37 CURVE",
"287 30 OFFCURVE",
"304 22 OFFCURVE",
"321 13 CURVE"
);
}
);
};
layerId = "47CF47DF-B93A-4126-8606-39E7B9FB561A";
paths = (
{
closed = 1;
nodes = (
"247 -84 OFFCURVE",
"314 -54 OFFCURVE",
"361 6 CURVE",
"446 -29 OFFCURVE",
"527 -47 OFFCURVE",
"602 -47 CURVE SMOOTH",
"750 -47 OFFCURVE",
"877 25 OFFCURVE",
"938 156 CURVE SMOOTH",
"959 202 OFFCURVE",
"970 250 OFFCURVE",
"970 300 CURVE SMOOTH",
"970 377 OFFCURVE",
"939 443 OFFCURVE",
"877 498 CURVE SMOOTH",
"822 547 OFFCURVE",
"754 579 OFFCURVE",
"674 592 CURVE",
"711 641 OFFCURVE",
"751 666 OFFCURVE",
"795 666 CURVE SMOOTH",
"812 666 OFFCURVE",
"829 661 OFFCURVE",
"846 652 CURVE SMOOTH",
"865 642 OFFCURVE",
"877 629 OFFCURVE",
"881 614 CURVE SMOOTH",
"883 605 OFFCURVE",
"886 601 OFFCURVE",
"889 601 CURVE SMOOTH",
"891 601 OFFCURVE",
"892 602 OFFCURVE",
"892 605 CURVE SMOOTH",
"892 610 OFFCURVE",
"891 618 OFFCURVE",
"888 627 CURVE SMOOTH",
"873 670 OFFCURVE",
"832 694 OFFCURVE",
"787 694 CURVE SMOOTH",
"734 694 OFFCURVE",
"684 662 OFFCURVE",
"635 597 CURVE",
"596 606 OFFCURVE",
"554 611 OFFCURVE",
"510 612 CURVE",
"515 639 OFFCURVE",
"518 662 OFFCURVE",
"518 679 CURVE SMOOTH",
"518 693 OFFCURVE",
"517 701 OFFCURVE",
"514 702 CURVE",
"506 671 OFFCURVE",
"500 641 OFFCURVE",
"496 612 CURVE",
"329 614 OFFCURVE",
"204 572 OFFCURVE",
"123 487 CURVE SMOOTH",
"98 461 OFFCURVE",
"86 433 OFFCURVE",
"86 403 CURVE SMOOTH",
"86 363 OFFCURVE",
"104 327 OFFCURVE",
"141 295 CURVE SMOOTH",
"175 266 OFFCURVE",
"212 250 OFFCURVE",
"253 247 CURVE",
"255 246 LINE",
"260 246 OFFCURVE",
"262 248 OFFCURVE",
"262 251 CURVE SMOOTH",
"262 253 OFFCURVE",
"260 254 OFFCURVE",
"257 255 CURVE SMOOTH",
"236 260 OFFCURVE",
"221 264 OFFCURVE",
"211 269 CURVE SMOOTH",
"152 294 OFFCURVE",
"122 334 OFFCURVE",
"122 389 CURVE SMOOTH",
"122 420 OFFCURVE",
"135 449 OFFCURVE",
"160 476 CURVE SMOOTH",
"235 555 OFFCURVE",
"346 595 OFFCURVE",
"493 596 CURVE",
"469 480 OFFCURVE",
"445 399 OFFCURVE",
"421 352 CURVE",
"413 373 OFFCURVE",
"404 384 OFFCURVE",
"393 384 CURVE SMOOTH",
"384 384 OFFCURVE",
"379 372 OFFCURVE",
"379 348 CURVE SMOOTH",
"379 332 OFFCURVE",
"384 308 OFFCURVE",
"393 277 CURVE",
"357 191 OFFCURVE",
"316 119 OFFCURVE",
"270 61 CURVE",
"204 88 OFFCURVE",
"152 102 OFFCURVE",
"113 102 CURVE SMOOTH",
"84 102 OFFCURVE",
"60 96 OFFCURVE",
"40 85 CURVE SMOOTH",
"15 72 OFFCURVE",
"2 52 OFFCURVE",
"2 26 CURVE SMOOTH",
"2 -1 OFFCURVE",
"16 -25 OFFCURVE",
"43 -47 CURVE SMOOTH",
"68 -68 OFFCURVE",
"94 -79 OFFCURVE",
"121 -82 CURVE SMOOTH",
"134 -83 OFFCURVE",
"147 -84 OFFCURVE",
"160 -84 CURVE SMOOTH"
);
},
{
closed = 1;
nodes = (
"113 -60 OFFCURVE",
"86 -52 OFFCURVE",
"61 -35 CURVE SMOOTH",
"33 -16 OFFCURVE",
"19 7 OFFCURVE",
"19 33 CURVE SMOOTH",
"19 54 OFFCURVE",
"29 69 OFFCURVE",
"49 79 CURVE SMOOTH",
"65 88 OFFCURVE",
"84 92 OFFCURVE",
"106 92 CURVE SMOOTH",
"148 92 OFFCURVE",
"200 78 OFFCURVE",
"262 51 CURVE",
"225 8 OFFCURVE",
"193 -14 OFFCURVE",
"166 -14 CURVE SMOOTH",
"162 -14 OFFCURVE",
"152 -11 OFFCURVE",
"149 -11 CURVE SMOOTH",
"145 -11 OFFCURVE",
"143 -13 OFFCURVE",
"143 -16 CURVE SMOOTH",
"143 -24 OFFCURVE",
"150 -28 OFFCURVE",
"164 -28 CURVE SMOOTH",
"193 -28 OFFCURVE",
"229 -3 OFFCURVE",
"270 47 CURVE",
"287 40 OFFCURVE",
"304 32 OFFCURVE",
"321 23 CURVE",
"305 -2 OFFCURVE",
"278 -22 OFFCURVE",
"241 -38 CURVE SMOOTH",
"207 -53 OFFCURVE",
"174 -60 OFFCURVE",
"141 -60 CURVE SMOOTH"
);
},
{
closed = 1;
nodes = (
"278 58 LINE",
"325 117 OFFCURVE",
"367 188 OFFCURVE",
"402 270 CURVE",
"445 310 OFFCURVE",
"467 339 OFFCURVE",
"467 358 CURVE SMOOTH",
"467 365 OFFCURVE",
"464 368 OFFCURVE",
"459 368 CURVE SMOOTH",
"454 368 OFFCURVE",
"447 365 OFFCURVE",
"438 360 CURVE",
"470 453 OFFCURVE",
"493 531 OFFCURVE",
"507 596 CURVE",
"548 596 OFFCURVE",
"587 592 OFFCURVE",
"625 585 CURVE",
"594 552 OFFCURVE",
"555 487 OFFCURVE",
"511 390 CURVE SMOOTH",
"413 174 LINE SMOOTH",
"383 107 OFFCURVE",
"353 62 OFFCURVE",
"329 37 CURVE"
);
},
{
closed = 1;
nodes = (
"524 -30 OFFCURVE",
"451 -14 OFFCURVE",
"372 19 CURVE",
"403 55 OFFCURVE",
"436 108 OFFCURVE",
"472 179 CURVE SMOOTH",
"523 285 OFFCURVE",
"560 365 OFFCURVE",
"583 419 CURVE SMOOTH",
"617 493 OFFCURVE",
"644 546 OFFCURVE",
"665 578 CURVE",
"734 566 OFFCURVE",
"792 532 OFFCURVE",
"839 476 CURVE SMOOTH",
"886 421 OFFCURVE",
"910 358 OFFCURVE",
"910 289 CURVE SMOOTH",
"910 196 OFFCURVE",
"880 120 OFFCURVE",
"820 60 CURVE SMOOTH",
"760 0 OFFCURVE",
"684 -30 OFFCURVE",
"592 -30 CURVE SMOOTH"
);
}
);
width = 983;
}
);
note = D;
unicode = 0044;
},
{
glyphname = Eth;
lastChange = "2021-11-23 05:59:21 +0000";
layers = (
{
background = {
paths = (
{
closed = 1;
nodes = (
"970 367 OFFCURVE",
"939 433 OFFCURVE",
"877 488 CURVE SMOOTH",
"822 537 OFFCURVE",
"754 569 OFFCURVE",
"674 582 CURVE",
"711 631 OFFCURVE",
"751 656 OFFCURVE",
"795 656 CURVE SMOOTH",
"812 656 OFFCURVE",
"829 651 OFFCURVE",
"846 642 CURVE SMOOTH",
"865 632 OFFCURVE",
"877 619 OFFCURVE",
"881 604 CURVE SMOOTH",
"883 595 OFFCURVE",
"886 591 OFFCURVE",
"889 591 CURVE SMOOTH",
"891 591 OFFCURVE",
"892 592 OFFCURVE",
"892 595 CURVE SMOOTH",
"892 601 OFFCURVE",
"890 609 OFFCURVE",
"887 619 CURVE SMOOTH",
"874 659 OFFCURVE",
"832 684 OFFCURVE",
"787 684 CURVE SMOOTH",
"734 684 OFFCURVE",
"684 652 OFFCURVE",
"635 587 CURVE",
"586 598 OFFCURVE",
"534 603 OFFCURVE",
"480 602 CURVE",
"481 649 OFFCURVE",
"479 687 OFFCURVE",
"474 718 CURVE",
"473 721 OFFCURVE",
"472 723 OFFCURVE",
"471 723 CURVE SMOOTH",
"468 723 OFFCURVE",
"466 721 OFFCURVE",
"466 716 CURVE SMOOTH",
"466 703 OFFCURVE",
"468 671 OFFCURVE",
"468 658 CURVE SMOOTH",
"468 639 OFFCURVE",
"467 621 OFFCURVE",
"466 602 CURVE",
"312 597 OFFCURVE",
"198 556 OFFCURVE",
"123 477 CURVE SMOOTH",
"98 451 OFFCURVE",
"86 423 OFFCURVE",
"86 393 CURVE SMOOTH",
"86 353 OFFCURVE",
"104 317 OFFCURVE",
"141 285 CURVE SMOOTH",
"175 256 OFFCURVE",
"212 240 OFFCURVE",
"253 237 CURVE",
"255 236 LINE",
"260 236 OFFCURVE",
"262 238 OFFCURVE",
"262 241 CURVE SMOOTH",
"262 243 OFFCURVE",
"260 244 OFFCURVE",
"257 245 CURVE SMOOTH",
"236 250 OFFCURVE",
"220 254 OFFCURVE",
"209 259 CURVE SMOOTH",
"151 285 OFFCURVE",
"122 325 OFFCURVE",
"122 379 CURVE SMOOTH",
"122 410 OFFCURVE",
"135 439 OFFCURVE",
"160 466 CURVE SMOOTH",
"229 539 OFFCURVE",
"330 578 OFFCURVE",
"465 585 CURVE",
"456 470 OFFCURVE",
"431 357 OFFCURVE",
"388 248 CURVE",
"275 198 LINE SMOOTH",
"246 186 OFFCURVE",
"225 177 OFFCURVE",
"211 172 CURVE SMOOTH",
"208 171 OFFCURVE",
"207 167 OFFCURVE",
"207 162 CURVE SMOOTH",
"207 145 OFFCURVE",
"211 137 OFFCURVE",
"219 137 CURVE SMOOTH",
"224 137 OFFCURVE",
"273 158 OFFCURVE",
"368 200 CURVE",
"341 139 OFFCURVE",
"310 88 OFFCURVE",
"277 48 CURVE",
"207 77 OFFCURVE",
"152 92 OFFCURVE",
"113 92 CURVE SMOOTH",
"84 92 OFFCURVE",
"60 86 OFFCURVE",
"40 75 CURVE SMOOTH",
"15 62 OFFCURVE",
"2 42 OFFCURVE",
"2 16 CURVE SMOOTH",
"2 -11 OFFCURVE",
"16 -35 OFFCURVE",
"43 -57 CURVE SMOOTH",
"68 -78 OFFCURVE",
"94 -89 OFFCURVE",
"121 -92 CURVE SMOOTH",
"134 -93 OFFCURVE",
"147 -94 OFFCURVE",
"160 -94 CURVE SMOOTH",
"247 -94 OFFCURVE",
"314 -64 OFFCURVE",
"361 -4 CURVE",
"446 -39 OFFCURVE",
"527 -57 OFFCURVE",
"602 -57 CURVE SMOOTH",
"750 -57 OFFCURVE",
"877 15 OFFCURVE",
"938 146 CURVE SMOOTH",
"959 192 OFFCURVE",
"970 240 OFFCURVE",
"970 290 CURVE SMOOTH"
);
},
{
closed = 1;
nodes = (
"600 548 OFFCURVE",
"570 501 OFFCURVE",
"537 434 CURVE SMOOTH",
"526 413 OFFCURVE",
"503 361 OFFCURVE",
"466 279 CURVE",
"449 273 OFFCURVE",
"430 266 OFFCURVE",
"411 258 CURVE",
"451 367 OFFCURVE",
"474 477 OFFCURVE",
"479 586 CURVE",
"501 586 LINE SMOOTH",
"544 586 OFFCURVE",
"585 582 OFFCURVE",
"625 575 CURVE"
);
},
{
closed = 1;
nodes = (
"734 556 OFFCURVE",
"792 522 OFFCURVE",
"839 466 CURVE SMOOTH",
"886 411 OFFCURVE",
"910 348 OFFCURVE",
"910 279 CURVE SMOOTH",
"910 187 OFFCURVE",
"880 111 OFFCURVE",
"820 50 CURVE SMOOTH",
"760 -10 OFFCURVE",
"684 -40 OFFCURVE",
"592 -40 CURVE SMOOTH",
"524 -40 OFFCURVE",
"451 -24 OFFCURVE",
"372 9 CURVE",
"399 41 OFFCURVE",
"426 82 OFFCURVE",
"453 131 CURVE SMOOTH",
"468 159 OFFCURVE",
"490 203 OFFCURVE",
"517 263 CURVE",
"556 278 OFFCURVE",
"594 289 OFFCURVE",
"629 298 CURVE SMOOTH",
"682 310 LINE SMOOTH",
"687 311 OFFCURVE",
"689 313 OFFCURVE",
"689 317 CURVE SMOOTH",
"689 322 OFFCURVE",
"686 325 OFFCURVE",
"681 325 CURVE SMOOTH",
"647 325 OFFCURVE",
"598 317 OFFCURVE",
"534 300 CURVE",
"555 345 OFFCURVE",
"575 391 OFFCURVE",
"595 437 CURVE SMOOTH",
"620 490 OFFCURVE",
"643 534 OFFCURVE",
"665 568 CURVE"
);
},
{
closed = 1;
nodes = (
"446 234 LINE",
"397 127 OFFCURVE",
"358 58 OFFCURVE",
"329 27 CURVE",
"294 41 LINE",
"331 86 OFFCURVE",
"364 142 OFFCURVE",
"393 211 CURVE"
);
},
{
closed = 1;
nodes = (
"321 13 LINE",
"305 -12 OFFCURVE",
"278 -32 OFFCURVE",
"241 -48 CURVE SMOOTH",
"207 -63 OFFCURVE",
"174 -70 OFFCURVE",
"141 -70 CURVE SMOOTH",
"113 -70 OFFCURVE",
"86 -62 OFFCURVE",
"61 -45 CURVE SMOOTH",
"33 -26 OFFCURVE",
"19 -3 OFFCURVE",
"19 23 CURVE SMOOTH",
"19 44 OFFCURVE",
"29 59 OFFCURVE",
"49 69 CURVE SMOOTH",
"65 78 OFFCURVE",
"84 82 OFFCURVE",
"106 82 CURVE SMOOTH",
"149 82 OFFCURVE",
"204 67 OFFCURVE",
"269 38 CURVE",
"222 -15 OFFCURVE",
"174 -42 OFFCURVE",
"125 -42 CURVE SMOOTH",
"113 -42 OFFCURVE",
"107 -44 OFFCURVE",
"107 -47 CURVE SMOOTH",
"107 -52 OFFCURVE",
"114 -55 OFFCURVE",
"127 -55 CURVE SMOOTH",
"182 -55 OFFCURVE",
"235 -26 OFFCURVE",
"285 31 CURVE"
);
}
);
};
layerId = "47CF47DF-B93A-4126-8606-39E7B9FB561A";
paths = (
{
closed = 1;
nodes = (
"247 -84 OFFCURVE",
"314 -54 OFFCURVE",
"361 6 CURVE",
"446 -29 OFFCURVE",
"527 -47 OFFCURVE",
"602 -47 CURVE SMOOTH",
"750 -47 OFFCURVE",
"877 25 OFFCURVE",
"938 156 CURVE SMOOTH",
"959 202 OFFCURVE",
"970 250 OFFCURVE",
"970 300 CURVE SMOOTH",
"970 377 OFFCURVE",
"939 443 OFFCURVE",
"877 498 CURVE SMOOTH",
"822 547 OFFCURVE",
"754 579 OFFCURVE",
"674 592 CURVE",
"711 641 OFFCURVE",
"751 666 OFFCURVE",
"795 666 CURVE SMOOTH",
"812 666 OFFCURVE",
"829 661 OFFCURVE",
"846 652 CURVE SMOOTH",
"865 642 OFFCURVE",
"877 629 OFFCURVE",
"881 614 CURVE SMOOTH",
"883 605 OFFCURVE",
"886 601 OFFCURVE",
"889 601 CURVE SMOOTH",
"891 601 OFFCURVE",
"892 602 OFFCURVE",
"892 605 CURVE SMOOTH",
"892 611 OFFCURVE",
"890 619 OFFCURVE",
"887 629 CURVE SMOOTH",
"874 669 OFFCURVE",
"832 694 OFFCURVE",
"787 694 CURVE SMOOTH",
"734 694 OFFCURVE",
"684 662 OFFCURVE",
"635 597 CURVE",
"586 608 OFFCURVE",
"534 613 OFFCURVE",
"480 612 CURVE",
"481 659 OFFCURVE",
"479 697 OFFCURVE",
"474 728 CURVE",
"473 731 OFFCURVE",
"472 733 OFFCURVE",
"471 733 CURVE SMOOTH",
"468 733 OFFCURVE",
"466 731 OFFCURVE",
"466 726 CURVE SMOOTH",
"466 713 OFFCURVE",
"468 681 OFFCURVE",
"468 668 CURVE SMOOTH",
"468 649 OFFCURVE",
"467 631 OFFCURVE",
"466 612 CURVE",
"312 607 OFFCURVE",
"198 566 OFFCURVE",
"123 487 CURVE SMOOTH",
"98 461 OFFCURVE",
"86 433 OFFCURVE",
"86 403 CURVE SMOOTH",
"86 363 OFFCURVE",
"104 327 OFFCURVE",
"141 295 CURVE SMOOTH",
"175 266 OFFCURVE",
"212 250 OFFCURVE",
"253 247 CURVE",
"255 246 LINE",
"260 246 OFFCURVE",
"262 248 OFFCURVE",
"262 251 CURVE SMOOTH",
"262 253 OFFCURVE",
"260 254 OFFCURVE",
"257 255 CURVE SMOOTH",
"236 260 OFFCURVE",
"220 264 OFFCURVE",
"209 269 CURVE SMOOTH",
"151 295 OFFCURVE",
"122 335 OFFCURVE",
"122 389 CURVE SMOOTH",
"122 420 OFFCURVE",
"135 449 OFFCURVE",
"160 476 CURVE SMOOTH",
"229 549 OFFCURVE",
"330 588 OFFCURVE",
"465 595 CURVE",
"456 480 OFFCURVE",
"431 367 OFFCURVE",
"388 258 CURVE",
"337 233 LINE SMOOTH",
"309 219 OFFCURVE",
"287 212 OFFCURVE",
"273 207 CURVE SMOOTH",
"270 206 OFFCURVE",
"269 202 OFFCURVE",
"269 197 CURVE SMOOTH",
"269 180 OFFCURVE",
"273 172 OFFCURVE",
"281 172 CURVE SMOOTH",
"286 172 OFFCURVE",
"335 193 OFFCURVE",
"368 210 CURVE",
"341 149 OFFCURVE",
"310 98 OFFCURVE",
"277 58 CURVE",
"207 87 OFFCURVE",
"152 102 OFFCURVE",
"113 102 CURVE SMOOTH",
"84 102 OFFCURVE",
"60 96 OFFCURVE",
"40 85 CURVE SMOOTH",
"15 72 OFFCURVE",
"2 52 OFFCURVE",
"2 26 CURVE SMOOTH",
"2 -1 OFFCURVE",
"16 -25 OFFCURVE",
"43 -47 CURVE SMOOTH",
"68 -68 OFFCURVE",
"94 -79 OFFCURVE",
"121 -82 CURVE SMOOTH",
"134 -83 OFFCURVE",
"147 -84 OFFCURVE",
"160 -84 CURVE SMOOTH"
);
},
{
closed = 1;
nodes = (
"113 -60 OFFCURVE",
"86 -52 OFFCURVE",
"61 -35 CURVE SMOOTH",
"33 -16 OFFCURVE",
"19 7 OFFCURVE",
"19 33 CURVE SMOOTH",
"19 54 OFFCURVE",
"29 69 OFFCURVE",
"49 79 CURVE SMOOTH",
"65 88 OFFCURVE",
"84 92 OFFCURVE",
"106 92 CURVE SMOOTH",
"149 92 OFFCURVE",
"204 77 OFFCURVE",
"269 48 CURVE",
"222 -5 OFFCURVE",
"174 -32 OFFCURVE",
"125 -32 CURVE SMOOTH",
"113 -32 OFFCURVE",
"107 -34 OFFCURVE",
"107 -37 CURVE SMOOTH",
"107 -42 OFFCURVE",
"114 -45 OFFCURVE",
"127 -45 CURVE SMOOTH",
"182 -45 OFFCURVE",
"235 -16 OFFCURVE",
"285 41 CURVE",
"321 23 LINE",
"305 -2 OFFCURVE",
"278 -22 OFFCURVE",
"241 -38 CURVE SMOOTH",
"207 -53 OFFCURVE",
"174 -60 OFFCURVE",
"141 -60 CURVE SMOOTH"
);
},
{
closed = 1;
nodes = (
"294 51 LINE",
"331 96 OFFCURVE",
"364 152 OFFCURVE",
"393 221 CURVE",
"446 244 LINE",
"397 137 OFFCURVE",
"358 68 OFFCURVE",
"329 37 CURVE"
);
},
{
closed = 1;
nodes = (
"524 -30 OFFCURVE",
"451 -14 OFFCURVE",
"372 19 CURVE",
"399 51 OFFCURVE",
"426 92 OFFCURVE",
"453 141 CURVE SMOOTH",
"468 169 OFFCURVE",
"490 213 OFFCURVE",
"517 273 CURVE",
"556 288 OFFCURVE",
"594 300 OFFCURVE",
"629 308 CURVE SMOOTH",
"682 320 LINE SMOOTH",
"687 321 OFFCURVE",
"689 323 OFFCURVE",
"689 327 CURVE SMOOTH",
"689 332 OFFCURVE",
"686 335 OFFCURVE",
"681 335 CURVE SMOOTH",
"647 335 OFFCURVE",
"598 327 OFFCURVE",
"534 310 CURVE",
"555 355 OFFCURVE",
"575 401 OFFCURVE",
"595 447 CURVE SMOOTH",
"620 500 OFFCURVE",
"643 544 OFFCURVE",
"665 578 CURVE",
"734 566 OFFCURVE",
"792 532 OFFCURVE",
"839 476 CURVE SMOOTH",
"886 421 OFFCURVE",
"910 358 OFFCURVE",
"910 289 CURVE SMOOTH",
"910 197 OFFCURVE",
"880 121 OFFCURVE",
"820 60 CURVE SMOOTH",
"760 0 OFFCURVE",
"684 -30 OFFCURVE",
"592 -30 CURVE SMOOTH"
);
},
{
closed = 1;
nodes = (
"451 377 OFFCURVE",
"474 487 OFFCURVE",
"479 596 CURVE",
"501 596 LINE SMOOTH",
"544 596 OFFCURVE",
"585 592 OFFCURVE",
"625 585 CURVE",
"600 558 OFFCURVE",
"570 511 OFFCURVE",
"537 444 CURVE SMOOTH",
"526 423 OFFCURVE",
"503 371 OFFCURVE",
"466 289 CURVE",
"449 283 OFFCURVE",
"430 276 OFFCURVE",
"411 268 CURVE"
);
}
);
width = 983;
}
);
note = Eth;
unicode = 00D0;
},
{
glyphname = E;
lastChange = "2021-11-23 05:59:21 +0000";
layers = (
{
anchors = (
{
name = bottom;
position = "{571, -88}";
},
{
name = ogonek;
position = "{921, -114}";
},
{
name = top;
position = "{907, 671}";
},
{
name = topleft;
position = "{20, 700}";
}
);
background = {
paths = (
{
closed = 1;
nodes = (
"535 573 OFFCURVE",
"583 564 OFFCURVE",
"641 551 CURVE",
"609 507 OFFCURVE",
"576 452 OFFCURVE",
"542 387 CURVE SMOOTH",
"456 216 LINE SMOOTH",
"407 120 OFFCURVE",
"367 56 OFFCURVE",
"336 23 CURVE",
"315 30 LINE",
"372 121 OFFCURVE",
"414 200 OFFCURVE",
"440 267 CURVE",
"477 302 OFFCURVE",
"495 329 OFFCURVE",
"495 348 CURVE SMOOTH",
"495 357 OFFCURVE",
"492 361 OFFCURVE",
"487 361 CURVE SMOOTH",
"482 361 OFFCURVE",
"475 358 OFFCURVE",
"466 353 CURVE",
"485 429 OFFCURVE",
"495 504 OFFCURVE",
"497 579 CURVE"
);
},
{
closed = 1;
nodes = (
"978 53 OFFCURVE",
"956 96 OFFCURVE",
"913 132 CURVE SMOOTH",
"907 137 OFFCURVE",
"903 139 OFFCURVE",
"901 139 CURVE SMOOTH",
"900 139 OFFCURVE",
"900 139 OFFCURVE",
"900 138 CURVE",
"900 139 OFFCURVE",
"910 122 OFFCURVE",
"931 87 CURVE SMOOTH",
"952 53 OFFCURVE",
"962 24 OFFCURVE",
"962 0 CURVE SMOOTH",
"962 -32 OFFCURVE",
"944 -56 OFFCURVE",
"908 -72 CURVE SMOOTH",
"881 -83 OFFCURVE",
"849 -89 OFFCURVE",
"812 -89 CURVE SMOOTH",
"754 -89 OFFCURVE",
"683 -77 OFFCURVE",
"598 -53 CURVE SMOOTH",
"388 9 LINE",
"427 55 OFFCURVE",
"468 117 OFFCURVE",
"510 194 CURVE",
"517 177 OFFCURVE",
"524 168 OFFCURVE",
"532 168 CURVE",
"532 170 LINE",
"528 178 OFFCURVE",
"526 185 OFFCURVE",
"526 190 CURVE SMOOTH",
"526 223 OFFCURVE",
"564 246 OFFCURVE",
"641 260 CURVE SMOOTH",
"688 269 OFFCURVE",
"739 273 OFFCURVE",
"794 273 CURVE SMOOTH",
"803 273 OFFCURVE",
"815 272 OFFCURVE",
"832 270 CURVE SMOOTH",
"849 268 OFFCURVE",
"862 267 OFFCURVE",
"870 267 CURVE SMOOTH",
"873 267 OFFCURVE",
"875 268 OFFCURVE",
"875 271 CURVE SMOOTH",
"875 272 OFFCURVE",
"873 274 OFFCURVE",
"869 275 CURVE SMOOTH",
"823 291 OFFCURVE",
"761 299 OFFCURVE",
"682 299 CURVE SMOOTH",
"624 299 OFFCURVE",
"582 294 OFFCURVE",
"556 285 CURVE",
"625 428 OFFCURVE",
"669 513 OFFCURVE",
"686 541 CURVE",
"829 509 OFFCURVE",
"925 493 OFFCURVE",
"973 493 CURVE SMOOTH",
"1050 493 OFFCURVE",
"1089 517 OFFCURVE",
"1089 565 CURVE SMOOTH",
"1089 578 OFFCURVE",
"1081 610 OFFCURVE",
"1070 610 CURVE SMOOTH",
"1068 610 OFFCURVE",
"1067 609 OFFCURVE",
"1067 607 CURVE SMOOTH",
"1067 604 OFFCURVE",
"1075 595 OFFCURVE",
"1075 583 CURVE SMOOTH",
"1075 562 OFFCURVE",
"1060 547 OFFCURVE",
"1031 537 CURVE SMOOTH",
"1011 530 OFFCURVE",
"987 527 OFFCURVE",
"960 527 CURVE SMOOTH",
"913 527 OFFCURVE",
"827 539 OFFCURVE",
"701 564 CURVE",
"746 629 OFFCURVE",
"791 662 OFFCURVE",
"836 662 CURVE SMOOTH",
"852 662 OFFCURVE",
"866 659 OFFCURVE",
"878 652 CURVE SMOOTH",
"891 643 OFFCURVE",
"898 631 OFFCURVE",
"898 616 CURVE SMOOTH",
"898 609 OFFCURVE",
"899 606 OFFCURVE",
"902 606 CURVE SMOOTH",
"905 606 OFFCURVE",
"907 610 OFFCURVE",
"907 618 CURVE SMOOTH",
"907 661 OFFCURVE",
"881 682 OFFCURVE",
"830 682 CURVE SMOOTH",
"772 682 OFFCURVE",
"714 645 OFFCURVE",
"657 572 CURVE",
"590 585 OFFCURVE",
"536 595 OFFCURVE",
"497 601 CURVE",
"497 626 OFFCURVE",
"495 645 OFFCURVE",
"490 659 CURVE",
"487 661 LINE",
"486 661 OFFCURVE",
"485 659 OFFCURVE",
"485 655 CURVE SMOOTH",
"485 648 LINE",
"486 645 OFFCURVE",
"486 643 OFFCURVE",
"486 641 CURVE SMOOTH",
"486 628 OFFCURVE",
"486 615 OFFCURVE",
"485 602 CURVE",
"424 611 OFFCURVE",
"372 616 OFFCURVE",
"329 616 CURVE SMOOTH",
"308 616 OFFCURVE",
"290 615 OFFCURVE",
"273 613 CURVE SMOOTH",
"230 608 OFFCURVE",
"195 596 OFFCURVE",
"168 576 CURVE SMOOTH",
"135 553 OFFCURVE",
"119 521 OFFCURVE",
"119 481 CURVE SMOOTH",
"119 411 OFFCURVE",
"163 351 OFFCURVE",
"252 300 CURVE SMOOTH",
"254 299 OFFCURVE",
"256 298 OFFCURVE",
"258 298 CURVE SMOOTH",
"261 298 OFFCURVE",
"262 299 OFFCURVE",
"262 301 CURVE SMOOTH",
"262 303 OFFCURVE",
"260 305 OFFCURVE",
"257 306 CURVE",
"191 353 OFFCURVE",
"158 405 OFFCURVE",
"158 462 CURVE SMOOTH",
"158 524 OFFCURVE",
"191 564 OFFCURVE",
"256 583 CURVE SMOOTH",
"281 590 OFFCURVE",
"311 593 OFFCURVE",
"348 593 CURVE SMOOTH",
"386 593 OFFCURVE",
"431 589 OFFCURVE",
"484 581 CURVE",
"479 466 OFFCURVE",
"467 387 OFFCURVE",
"450 345 CURVE",
"439 366 OFFCURVE",
"429 376 OFFCURVE",
"419 376 CURVE SMOOTH",
"412 376 OFFCURVE",
"408 367 OFFCURVE",
"408 348 CURVE SMOOTH",
"408 336 OFFCURVE",
"411 320 OFFCURVE",
"418 301 CURVE SMOOTH",
"425 282 OFFCURVE",
"429 272 OFFCURVE",
"429 272 CURVE",
"429 259 OFFCURVE",
"411 219 OFFCURVE",
"375 154 CURVE SMOOTH",
"342 96 OFFCURVE",
"318 56 OFFCURVE",
"302 35 CURVE",
"238 55 OFFCURVE",
"189 65 OFFCURVE",
"154 65 CURVE SMOOTH",
"117 65 OFFCURVE",
"86 59 OFFCURVE",
"59 46 CURVE SMOOTH",
"25 29 OFFCURVE",
"8 4 OFFCURVE",
"8 -29 CURVE SMOOTH",
"8 -56 OFFCURVE",
"24 -79 OFFCURVE",
"56 -96 CURVE SMOOTH",
"83 -111 OFFCURVE",
"112 -119 OFFCURVE",
"141 -119 CURVE SMOOTH",
"227 -119 OFFCURVE",
"305 -81 OFFCURVE",
"376 -4 CURVE",
"595 -88 LINE SMOOTH",
"690 -124 OFFCURVE",
"762 -142 OFFCURVE",
"813 -142 CURVE SMOOTH",
"858 -142 OFFCURVE",
"896 -129 OFFCURVE",
"927 -104 CURVE SMOOTH",
"961 -77 OFFCURVE",
"978 -41 OFFCURVE",
"978 3 CURVE SMOOTH"
);
},
{
closed = 1;
nodes = (
"329 11 LINE",
"310 -16 OFFCURVE",
"280 -40 OFFCURVE",
"241 -63 CURVE SMOOTH",
"200 -86 OFFCURVE",
"163 -98 OFFCURVE",
"131 -98 CURVE SMOOTH",
"107 -98 OFFCURVE",
"85 -92 OFFCURVE",
"66 -80 CURVE SMOOTH",
"44 -67 OFFCURVE",
"33 -48 OFFCURVE",
"33 -25 CURVE SMOOTH",
"33 2 OFFCURVE",
"48 22 OFFCURVE",
"77 35 CURVE SMOOTH",
"100 45 OFFCURVE",
"126 50 OFFCURVE",
"156 50 CURVE SMOOTH",
"195 50 OFFCURVE",
"241 42 OFFCURVE",
"292 25 CURVE",
"283 12 OFFCURVE",
"271 -2 OFFCURVE",
"254 -17 CURVE SMOOTH",
"211 -52 LINE SMOOTH",
"206 -57 OFFCURVE",
"203 -61 OFFCURVE",
"203 -62 CURVE SMOOTH",
"203 -63 OFFCURVE",
"203 -64 OFFCURVE",
"204 -64 CURVE SMOOTH",
"205 -64 OFFCURVE",
"206 -64 OFFCURVE",
"207 -63 CURVE",
"232 -50 OFFCURVE",
"259 -29 OFFCURVE",
"286 -2 CURVE SMOOTH",
"295 7 OFFCURVE",
"302 14 OFFCURVE",
"306 19 CURVE"
);
}
);
};
layerId = "47CF47DF-B93A-4126-8606-39E7B9FB561A";
paths = (
{
closed = 1;
nodes = (
"858 -132 OFFCURVE",
"896 -119 OFFCURVE",
"927 -94 CURVE SMOOTH",
"961 -67 OFFCURVE",
"978 -31 OFFCURVE",
"978 13 CURVE SMOOTH",
"978 63 OFFCURVE",
"956 106 OFFCURVE",
"913 142 CURVE SMOOTH",
"907 147 OFFCURVE",
"903 149 OFFCURVE",
"901 149 CURVE SMOOTH",
"900 149 OFFCURVE",
"900 149 OFFCURVE",
"900 148 CURVE",
"900 149 OFFCURVE",
"910 132 OFFCURVE",
"931 97 CURVE SMOOTH",
"952 63 OFFCURVE",
"962 34 OFFCURVE",
"962 10 CURVE SMOOTH",
"962 -22 OFFCURVE",
"944 -46 OFFCURVE",
"908 -62 CURVE SMOOTH",
"881 -73 OFFCURVE",
"849 -79 OFFCURVE",
"812 -79 CURVE SMOOTH",
"754 -79 OFFCURVE",
"683 -68 OFFCURVE",
"598 -43 CURVE SMOOTH",
"388 19 LINE",
"427 65 OFFCURVE",
"468 127 OFFCURVE",
"510 204 CURVE",
"517 187 OFFCURVE",
"524 178 OFFCURVE",
"532 178 CURVE",
"532 180 LINE",
"528 188 OFFCURVE",
"526 195 OFFCURVE",
"526 200 CURVE SMOOTH",
"526 233 OFFCURVE",
"564 256 OFFCURVE",
"641 270 CURVE SMOOTH",
"688 279 OFFCURVE",
"739 283 OFFCURVE",
"794 283 CURVE SMOOTH",
"803 283 OFFCURVE",
"815 282 OFFCURVE",
"832 280 CURVE SMOOTH",
"849 278 OFFCURVE",
"862 277 OFFCURVE",
"870 277 CURVE SMOOTH",
"873 277 OFFCURVE",
"875 278 OFFCURVE",
"875 281 CURVE SMOOTH",
"875 282 OFFCURVE",
"873 284 OFFCURVE",
"869 285 CURVE SMOOTH",
"823 301 OFFCURVE",
"761 309 OFFCURVE",
"682 309 CURVE SMOOTH",
"624 309 OFFCURVE",
"582 304 OFFCURVE",
"556 295 CURVE",
"625 438 OFFCURVE",
"669 523 OFFCURVE",
"686 551 CURVE",
"829 519 OFFCURVE",
"925 503 OFFCURVE",
"973 503 CURVE SMOOTH",
"1050 503 OFFCURVE",
"1089 527 OFFCURVE",
"1089 575 CURVE SMOOTH",
"1089 588 OFFCURVE",
"1081 620 OFFCURVE",
"1070 620 CURVE SMOOTH",
"1068 620 OFFCURVE",
"1067 619 OFFCURVE",
"1067 617 CURVE SMOOTH",
"1067 614 OFFCURVE",
"1075 605 OFFCURVE",
"1075 593 CURVE SMOOTH",
"1075 572 OFFCURVE",
"1060 557 OFFCURVE",
"1031 547 CURVE SMOOTH",
"1011 540 OFFCURVE",
"987 537 OFFCURVE",
"960 537 CURVE SMOOTH",
"913 537 OFFCURVE",
"827 549 OFFCURVE",
"701 574 CURVE",
"746 639 OFFCURVE",
"791 672 OFFCURVE",
"836 672 CURVE SMOOTH",
"852 672 OFFCURVE",
"866 669 OFFCURVE",
"878 662 CURVE SMOOTH",
"891 653 OFFCURVE",
"898 641 OFFCURVE",
"898 626 CURVE SMOOTH",
"898 619 OFFCURVE",
"899 616 OFFCURVE",
"902 616 CURVE SMOOTH",
"905 616 OFFCURVE",
"907 620 OFFCURVE",
"907 628 CURVE SMOOTH",
"907 671 OFFCURVE",
"881 692 OFFCURVE",
"830 692 CURVE SMOOTH",
"772 692 OFFCURVE",
"714 655 OFFCURVE",
"657 582 CURVE",
"590 595 OFFCURVE",
"536 605 OFFCURVE",
"497 611 CURVE",
"497 636 OFFCURVE",
"495 655 OFFCURVE",
"490 669 CURVE",
"487 671 LINE",
"486 671 OFFCURVE",
"485 669 OFFCURVE",
"485 665 CURVE SMOOTH",
"485 658 LINE",
"486 655 OFFCURVE",
"486 653 OFFCURVE",
"486 651 CURVE SMOOTH",
"486 638 OFFCURVE",
"486 625 OFFCURVE",
"485 612 CURVE",
"424 621 OFFCURVE",
"372 626 OFFCURVE",
"329 626 CURVE SMOOTH",
"308 626 OFFCURVE",
"290 625 OFFCURVE",
"273 623 CURVE SMOOTH",
"230 618 OFFCURVE",
"195 606 OFFCURVE",
"168 586 CURVE SMOOTH",
"135 563 OFFCURVE",
"119 531 OFFCURVE",
"119 491 CURVE SMOOTH",
"119 421 OFFCURVE",
"163 361 OFFCURVE",
"252 310 CURVE SMOOTH",
"254 309 OFFCURVE",
"256 308 OFFCURVE",
"258 308 CURVE SMOOTH",
"261 308 OFFCURVE",
"262 309 OFFCURVE",
"262 311 CURVE SMOOTH",
"262 313 OFFCURVE",
"260 315 OFFCURVE",
"257 316 CURVE",
"191 363 OFFCURVE",
"158 415 OFFCURVE",
"158 472 CURVE SMOOTH",
"158 534 OFFCURVE",
"191 574 OFFCURVE",
"256 593 CURVE SMOOTH",
"281 600 OFFCURVE",
"311 603 OFFCURVE",
"348 603 CURVE SMOOTH",
"386 603 OFFCURVE",
"431 599 OFFCURVE",
"484 591 CURVE",
"479 476 OFFCURVE",
"467 397 OFFCURVE",
"450 355 CURVE",
"439 376 OFFCURVE",
"429 386 OFFCURVE",
"419 386 CURVE SMOOTH",
"412 386 OFFCURVE",
"408 377 OFFCURVE",
"408 358 CURVE SMOOTH",
"408 346 OFFCURVE",
"411 330 OFFCURVE",
"418 311 CURVE SMOOTH",
"425 292 OFFCURVE",
"429 282 OFFCURVE",
"429 282 CURVE",
"429 269 OFFCURVE",
"411 229 OFFCURVE",
"375 164 CURVE SMOOTH",
"342 106 OFFCURVE",
"318 66 OFFCURVE",
"302 45 CURVE",
"238 65 OFFCURVE",
"189 75 OFFCURVE",
"154 75 CURVE SMOOTH",
"117 75 OFFCURVE",
"86 69 OFFCURVE",
"59 56 CURVE SMOOTH",
"25 39 OFFCURVE",
"8 14 OFFCURVE",
"8 -19 CURVE SMOOTH",
"8 -46 OFFCURVE",
"24 -69 OFFCURVE",
"56 -86 CURVE SMOOTH",
"83 -101 OFFCURVE",
"112 -109 OFFCURVE",
"141 -109 CURVE SMOOTH",
"227 -109 OFFCURVE",
"305 -71 OFFCURVE",
"376 6 CURVE",
"595 -78 LINE SMOOTH",
"690 -114 OFFCURVE",
"762 -132 OFFCURVE",
"813 -132 CURVE SMOOTH"
);
},
{
closed = 1;
nodes = (
"107 -88 OFFCURVE",
"85 -82 OFFCURVE",
"66 -70 CURVE SMOOTH",
"44 -57 OFFCURVE",
"33 -38 OFFCURVE",
"33 -15 CURVE SMOOTH",
"33 12 OFFCURVE",
"48 32 OFFCURVE",
"77 45 CURVE SMOOTH",
"100 55 OFFCURVE",
"126 60 OFFCURVE",
"156 60 CURVE SMOOTH",
"195 60 OFFCURVE",
"241 52 OFFCURVE",
"292 35 CURVE",
"283 22 OFFCURVE",
"272 7 OFFCURVE",
"254 -7 CURVE SMOOTH",
"211 -42 LINE SMOOTH",
"206 -46 OFFCURVE",
"203 -51 OFFCURVE",
"203 -52 CURVE SMOOTH",
"203 -53 OFFCURVE",
"203 -54 OFFCURVE",
"204 -54 CURVE SMOOTH",
"205 -54 OFFCURVE",
"206 -54 OFFCURVE",
"207 -53 CURVE",
"232 -40 OFFCURVE",
"259 -19 OFFCURVE",
"286 8 CURVE SMOOTH",
"295 17 OFFCURVE",
"302 24 OFFCURVE",
"306 29 CURVE",
"329 21 LINE",
"310 -6 OFFCURVE",
"280 -30 OFFCURVE",
"241 -53 CURVE SMOOTH",
"200 -76 OFFCURVE",
"163 -88 OFFCURVE",
"131 -88 CURVE SMOOTH"
);
},
{
closed = 1;
nodes = (
"315 40 LINE",
"372 131 OFFCURVE",
"414 210 OFFCURVE",
"440 277 CURVE",
"477 312 OFFCURVE",
"495 339 OFFCURVE",
"495 358 CURVE SMOOTH",
"495 367 OFFCURVE",
"492 371 OFFCURVE",
"487 371 CURVE SMOOTH",
"482 371 OFFCURVE",
"475 368 OFFCURVE",
"466 363 CURVE",
"485 439 OFFCURVE",
"495 514 OFFCURVE",
"497 589 CURVE",
"535 583 OFFCURVE",
"583 574 OFFCURVE",
"641 561 CURVE",
"609 517 OFFCURVE",
"575 463 OFFCURVE",
"542 397 CURVE SMOOTH",
"456 226 LINE SMOOTH",
"408 130 OFFCURVE",
"367 66 OFFCURVE",
"336 33 CURVE"
);
}
);
width = 980;
}
);
note = E;
unicode = 0045;
},
{
glyphname = F;
lastChange = "2021-11-23 05:59:21 +0000";
layers = (
{
background = {
paths = (
{
closed = 1;
nodes = (
"507 612 OFFCURVE",
"506 619 OFFCURVE",
"504 620 CURVE",
"497 589 OFFCURVE",
"491 560 OFFCURVE",
"487 533 CURVE",
"373 555 OFFCURVE",
"287 566 OFFCURVE",
"228 566 CURVE SMOOTH",
"178 566 OFFCURVE",
"137 558 OFFCURVE",
"105 543 CURVE SMOOTH",
"62 522 OFFCURVE",
"41 490 OFFCURVE",
"41 445 CURVE SMOOTH",
"41 383 OFFCURVE",
"80 329 OFFCURVE",
"159 284 CURVE SMOOTH",
"161 283 OFFCURVE",
"163 282 OFFCURVE",
"164 282 CURVE SMOOTH",
"167 282 OFFCURVE",
"168 283 OFFCURVE",
"168 285 CURVE SMOOTH",
"168 286 OFFCURVE",
"167 288 OFFCURVE",
"164 290 CURVE SMOOTH",
"105 331 OFFCURVE",
"75 378 OFFCURVE",
"75 429 CURVE SMOOTH",
"75 507 OFFCURVE",
"131 546 OFFCURVE",
"244 546 CURVE SMOOTH",
"299 546 OFFCURVE",
"379 535 OFFCURVE",
"483 513 CURVE",
"461 414 OFFCURVE",
"440 346 OFFCURVE",
"421 308 CURVE",
"414 327 OFFCURVE",
"405 337 OFFCURVE",
"396 337 CURVE SMOOTH",
"388 337 OFFCURVE",
"384 326 OFFCURVE",
"384 304 CURVE SMOOTH",
"384 289 OFFCURVE",
"388 268 OFFCURVE",
"396 241 CURVE",
"374 187 OFFCURVE",
"347 136 OFFCURVE",
"315 88 CURVE SMOOTH",
"268 17 OFFCURVE",
"228 -18 OFFCURVE",
"193 -18 CURVE SMOOTH",
"190 -18 OFFCURVE",
"182 -16 OFFCURVE",
"178 -16 CURVE SMOOTH",
"175 -16 OFFCURVE",
"173 -18 OFFCURVE",
"173 -21 CURVE SMOOTH",
"173 -28 OFFCURVE",
"179 -31 OFFCURVE",
"192 -31 CURVE SMOOTH",
"227 -31 OFFCURVE",
"269 5 OFFCURVE",
"318 78 CURVE SMOOTH",
"352 129 OFFCURVE",
"381 181 OFFCURVE",
"404 235 CURVE",
"443 270 OFFCURVE",
"462 296 OFFCURVE",
"462 313 CURVE SMOOTH",
"462 319 OFFCURVE",
"460 322 OFFCURVE",
"455 322 CURVE SMOOTH",
"450 322 OFFCURVE",
"444 320 OFFCURVE",
"436 315 CURVE",
"462 390 OFFCURVE",
"481 455 OFFCURVE",
"494 510 CURVE",
"564 495 LINE",
"541 454 OFFCURVE",
"513 398 OFFCURVE",
"481 325 CURVE SMOOTH",
"443 240 OFFCURVE",
"416 183 OFFCURVE",
"401 153 CURVE SMOOTH",
"365 82 OFFCURVE",
"330 29 OFFCURVE",
"297 -7 CURVE SMOOTH",
"247 -62 OFFCURVE",
"192 -89 OFFCURVE",
"133 -89 CURVE SMOOTH",
"111 -89 OFFCURVE",
"92 -84 OFFCURVE",
"75 -74 CURVE SMOOTH",
"56 -62 OFFCURVE",
"46 -45 OFFCURVE",
"46 -24 CURVE SMOOTH",
"46 1 OFFCURVE",
"59 20 OFFCURVE",
"84 33 CURVE SMOOTH",
"104 44 OFFCURVE",
"127 49 OFFCURVE",
"154 49 CURVE SMOOTH",
"160 49 OFFCURVE",
"163 50 OFFCURVE",
"163 53 CURVE SMOOTH",
"163 55 OFFCURVE",
"160 56 OFFCURVE",
"154 56 CURVE SMOOTH",
"122 56 OFFCURVE",
"94 50 OFFCURVE",
"69 37 CURVE SMOOTH",
"38 21 OFFCURVE",
"22 -1 OFFCURVE",
"22 -30 CURVE SMOOTH",
"22 -57 OFFCURVE",
"36 -77 OFFCURVE",
"65 -92 CURVE SMOOTH",
"87 -103 OFFCURVE",
"113 -108 OFFCURVE",
"142 -108 CURVE SMOOTH",
"214 -108 OFFCURVE",
"282 -71 OFFCURVE",
"347 2 CURVE SMOOTH",
"388 48 OFFCURVE",
"431 116 OFFCURVE",
"478 207 CURVE",
"479 194 OFFCURVE",
"492 171 OFFCURVE",
"500 171 CURVE",
"500 175 OFFCURVE",
"495 186 OFFCURVE",
"495 191 CURVE SMOOTH",
"495 219 OFFCURVE",
"528 239 OFFCURVE",
"595 252 CURVE SMOOTH",
"636 259 OFFCURVE",
"681 263 OFFCURVE",
"728 263 CURVE SMOOTH",
"744 263 OFFCURVE",
"779 258 OFFCURVE",
"794 258 CURVE SMOOTH",
"797 258 OFFCURVE",
"798 259 OFFCURVE",
"798 261 CURVE SMOOTH",
"798 263 OFFCURVE",
"796 264 OFFCURVE",
"793 265 CURVE SMOOTH",
"753 278 OFFCURVE",
"699 285 OFFCURVE",
"631 285 CURVE SMOOTH",
"568 285 OFFCURVE",
"527 279 OFFCURVE",
"508 268 CURVE",
"574 403 OFFCURVE",
"609 475 OFFCURVE",
"614 484 CURVE",
"700 465 OFFCURVE",
"763 456 OFFCURVE",
"802 456 CURVE SMOOTH",
"871 456 OFFCURVE",
"905 477 OFFCURVE",
"905 520 CURVE SMOOTH",
"905 526 OFFCURVE",
"904 534 OFFCURVE",
"901 543 CURVE SMOOTH",
"897 555 OFFCURVE",
"893 561 OFFCURVE",
"888 561 CURVE SMOOTH",
"887 561 OFFCURVE",
"886 560 OFFCURVE",
"886 558 CURVE SMOOTH",
"886 555 OFFCURVE",
"892 548 OFFCURVE",
"892 537 CURVE SMOOTH",
"892 503 OFFCURVE",
"858 486 OFFCURVE",
"790 486 CURVE SMOOTH",
"754 486 OFFCURVE",
"700 493 OFFCURVE",
"627 506 CURVE",
"683 605 OFFCURVE",
"736 655 OFFCURVE",
"787 655 CURVE SMOOTH",
"824 655 OFFCURVE",
"842 641 OFFCURVE",
"842 614 CURVE SMOOTH",
"842 608 OFFCURVE",
"843 605 OFFCURVE",
"846 605 CURVE SMOOTH",
"849 605 OFFCURVE",
"850 609 OFFCURVE",
"850 616 CURVE SMOOTH",
"850 654 OFFCURVE",
"827 673 OFFCURVE",
"782 673 CURVE SMOOTH",
"707 673 OFFCURVE",
"639 621 OFFCURVE",
"576 516 CURVE",
"498 531 LINE",
"504 559 OFFCURVE",
"507 582 OFFCURVE",
"507 599 CURVE SMOOTH"
);
}
);
};
layerId = "47CF47DF-B93A-4126-8606-39E7B9FB561A";
paths = (
{
closed = 1;
nodes = (
"214 -98 OFFCURVE",
"282 -61 OFFCURVE",
"347 12 CURVE SMOOTH",
"388 58 OFFCURVE",
"431 126 OFFCURVE",
"478 217 CURVE",
"479 204 OFFCURVE",
"492 181 OFFCURVE",
"500 181 CURVE",
"500 185 OFFCURVE",
"495 196 OFFCURVE",
"495 201 CURVE SMOOTH",
"495 229 OFFCURVE",
"528 249 OFFCURVE",
"595 262 CURVE SMOOTH",
"636 269 OFFCURVE",
"681 273 OFFCURVE",
"728 273 CURVE SMOOTH",
"744 273 OFFCURVE",
"779 268 OFFCURVE",
"794 268 CURVE SMOOTH",
"797 268 OFFCURVE",
"798 269 OFFCURVE",
"798 271 CURVE SMOOTH",
"798 273 OFFCURVE",
"796 274 OFFCURVE",
"793 275 CURVE SMOOTH",
"753 288 OFFCURVE",
"699 295 OFFCURVE",
"631 295 CURVE SMOOTH",
"568 295 OFFCURVE",
"527 289 OFFCURVE",
"508 278 CURVE",
"574 413 OFFCURVE",
"609 485 OFFCURVE",
"614 494 CURVE",
"700 475 OFFCURVE",
"763 466 OFFCURVE",
"802 466 CURVE SMOOTH",
"871 466 OFFCURVE",
"905 487 OFFCURVE",
"905 530 CURVE SMOOTH",
"905 536 OFFCURVE",
"904 544 OFFCURVE",
"901 553 CURVE SMOOTH",
"897 565 OFFCURVE",
"893 571 OFFCURVE",
"888 571 CURVE SMOOTH",
"887 571 OFFCURVE",
"886 570 OFFCURVE",
"886 568 CURVE SMOOTH",
"886 565 OFFCURVE",
"892 558 OFFCURVE",
"892 547 CURVE SMOOTH",
"892 513 OFFCURVE",
"858 496 OFFCURVE",
"790 496 CURVE SMOOTH",
"754 496 OFFCURVE",
"700 503 OFFCURVE",
"627 516 CURVE",
"683 615 OFFCURVE",
"736 665 OFFCURVE",
"787 665 CURVE SMOOTH",
"824 665 OFFCURVE",
"842 651 OFFCURVE",
"842 624 CURVE SMOOTH",
"842 618 OFFCURVE",
"843 615 OFFCURVE",
"846 615 CURVE SMOOTH",
"849 615 OFFCURVE",
"850 619 OFFCURVE",
"850 626 CURVE SMOOTH",
"850 664 OFFCURVE",
"827 683 OFFCURVE",
"782 683 CURVE SMOOTH",
"707 683 OFFCURVE",
"639 631 OFFCURVE",
"576 526 CURVE",
"498 541 LINE",
"504 569 OFFCURVE",
"507 592 OFFCURVE",
"507 609 CURVE SMOOTH",
"507 622 OFFCURVE",
"506 629 OFFCURVE",
"504 630 CURVE",
"497 599 OFFCURVE",
"491 570 OFFCURVE",
"487 543 CURVE",
"373 565 OFFCURVE",
"287 576 OFFCURVE",
"228 576 CURVE SMOOTH",
"178 576 OFFCURVE",
"137 568 OFFCURVE",
"105 553 CURVE SMOOTH",
"62 532 OFFCURVE",
"41 500 OFFCURVE",
"41 455 CURVE SMOOTH",
"41 393 OFFCURVE",
"80 339 OFFCURVE",
"159 294 CURVE SMOOTH",
"161 293 OFFCURVE",
"163 292 OFFCURVE",
"164 292 CURVE SMOOTH",
"167 292 OFFCURVE",
"168 293 OFFCURVE",
"168 295 CURVE SMOOTH",
"168 296 OFFCURVE",
"167 298 OFFCURVE",
"164 300 CURVE SMOOTH",
"105 341 OFFCURVE",
"75 388 OFFCURVE",
"75 439 CURVE SMOOTH",
"75 517 OFFCURVE",
"131 556 OFFCURVE",
"244 556 CURVE SMOOTH",
"299 556 OFFCURVE",
"379 545 OFFCURVE",
"483 523 CURVE",
"461 424 OFFCURVE",
"440 356 OFFCURVE",
"421 318 CURVE",
"414 337 OFFCURVE",
"405 347 OFFCURVE",
"396 347 CURVE SMOOTH",
"388 347 OFFCURVE",
"384 336 OFFCURVE",
"384 314 CURVE SMOOTH",
"384 299 OFFCURVE",
"388 278 OFFCURVE",
"396 251 CURVE",
"374 197 OFFCURVE",
"347 146 OFFCURVE",
"315 98 CURVE SMOOTH",
"268 27 OFFCURVE",
"228 -8 OFFCURVE",
"193 -8 CURVE SMOOTH",
"190 -8 OFFCURVE",
"182 -6 OFFCURVE",
"178 -6 CURVE SMOOTH",
"175 -6 OFFCURVE",
"173 -8 OFFCURVE",
"173 -11 CURVE SMOOTH",
"173 -18 OFFCURVE",
"179 -21 OFFCURVE",
"192 -21 CURVE SMOOTH",
"227 -21 OFFCURVE",
"269 15 OFFCURVE",
"318 88 CURVE SMOOTH",
"352 139 OFFCURVE",
"381 191 OFFCURVE",
"404 245 CURVE",
"443 280 OFFCURVE",
"462 306 OFFCURVE",
"462 323 CURVE SMOOTH",
"462 329 OFFCURVE",
"460 332 OFFCURVE",
"455 332 CURVE SMOOTH",
"450 332 OFFCURVE",
"444 330 OFFCURVE",
"436 325 CURVE",
"462 400 OFFCURVE",
"481 465 OFFCURVE",
"494 520 CURVE",
"564 505 LINE",
"541 464 OFFCURVE",
"513 408 OFFCURVE",
"481 335 CURVE SMOOTH",
"443 250 OFFCURVE",
"416 193 OFFCURVE",
"401 163 CURVE SMOOTH",
"365 92 OFFCURVE",
"330 39 OFFCURVE",
"297 3 CURVE SMOOTH",
"247 -52 OFFCURVE",
"192 -79 OFFCURVE",
"133 -79 CURVE SMOOTH",
"111 -79 OFFCURVE",
"92 -74 OFFCURVE",
"75 -64 CURVE SMOOTH",
"56 -52 OFFCURVE",
"46 -35 OFFCURVE",
"46 -14 CURVE SMOOTH",
"46 11 OFFCURVE",
"59 30 OFFCURVE",
"84 43 CURVE SMOOTH",
"104 54 OFFCURVE",
"127 59 OFFCURVE",
"154 59 CURVE SMOOTH",
"160 59 OFFCURVE",
"163 60 OFFCURVE",
"163 63 CURVE SMOOTH",
"163 65 OFFCURVE",
"160 66 OFFCURVE",
"154 66 CURVE SMOOTH",
"122 66 OFFCURVE",
"94 60 OFFCURVE",
"69 47 CURVE SMOOTH",
"38 31 OFFCURVE",
"22 9 OFFCURVE",
"22 -20 CURVE SMOOTH",
"22 -47 OFFCURVE",
"36 -67 OFFCURVE",
"65 -82 CURVE SMOOTH",
"87 -93 OFFCURVE",
"113 -98 OFFCURVE",
"142 -98 CURVE SMOOTH"
);
}
);
width = 760;
}
);
note = F;
unicode = 0046;
},
{
glyphname = G;
lastChange = "2021-11-23 05:59:21 +0000";
layers = (
{
anchors = (
{
name = bottom;
position = "{225, -318}";
},
{
name = top;
position = "{567, 675}";
}
);
background = {
paths = (
{
closed = 1;
nodes = (
"271 -268 OFFCURVE",
"287 -261 OFFCURVE",
"306 -247 CURVE SMOOTH",
"351 -211 OFFCURVE",
"396 -135 OFFCURVE",
"439 -20 CURVE SMOOTH",
"469 58 OFFCURVE",
"495 144 OFFCURVE",
"517 239 CURVE",
"566 307 OFFCURVE",
"590 348 OFFCURVE",
"590 361 CURVE SMOOTH",
"590 362 OFFCURVE",
"589 363 OFFCURVE",
"588 364 CURVE",
"587 364 OFFCURVE",
"584 360 OFFCURVE",
"579 352 CURVE SMOOTH",
"559 321 OFFCURVE",
"541 295 OFFCURVE",
"525 274 CURVE",
"530 299 OFFCURVE",
"535 323 OFFCURVE",
"539 347 CURVE",
"564 364 OFFCURVE",
"593 401 OFFCURVE",
"593 428 CURVE SMOOTH",
"593 437 OFFCURVE",
"589 441 OFFCURVE",
"582 441 CURVE SMOOTH",
"574 441 OFFCURVE",
"564 436 OFFCURVE",
"553 426 CURVE",
"564 514 LINE",
"632 477 OFFCURVE",
"683 448 OFFCURVE",
"716 428 CURVE SMOOTH",
"723 424 OFFCURVE",
"729 422 OFFCURVE",
"735 422 CURVE SMOOTH",
"745 422 OFFCURVE",
"750 428 OFFCURVE",
"749 439 CURVE SMOOTH",
"749 444 LINE SMOOTH",
"744 561 OFFCURVE",
"683 625 OFFCURVE",
"568 634 CURVE",
"567 675 OFFCURVE",
"563 696 OFFCURVE",
"557 696 CURVE SMOOTH",
"554 696 OFFCURVE",
"552 693 OFFCURVE",
"552 688 CURVE SMOOTH",
"552 676 OFFCURVE",
"554 647 OFFCURVE",
"554 635 CURVE",
"490 638 OFFCURVE",
"423 622 OFFCURVE",
"352 589 CURVE",
"325 592 OFFCURVE",
"302 594 OFFCURVE",
"285 594 CURVE SMOOTH",
"230 594 OFFCURVE",
"176 586 OFFCURVE",
"122 570 CURVE SMOOTH",
"48 547 OFFCURVE",
"11 515 OFFCURVE",
"11 474 CURVE SMOOTH",
"11 465 OFFCURVE",
"13 455 OFFCURVE",
"18 445 CURVE SMOOTH",
"23 432 OFFCURVE",
"30 426 OFFCURVE",
"38 426 CURVE SMOOTH",
"44 426 OFFCURVE",
"47 431 OFFCURVE",
"47 440 CURVE SMOOTH",
"47 448 LINE",
"46 451 OFFCURVE",
"46 454 OFFCURVE",
"46 456 CURVE SMOOTH",
"46 485 OFFCURVE",
"66 512 OFFCURVE",
"107 536 CURVE SMOOTH",
"136 553 OFFCURVE",
"169 566 OFFCURVE",
"207 575 CURVE SMOOTH",
"236 582 OFFCURVE",
"265 585 OFFCURVE",
"292 585 CURVE SMOOTH",
"303 585 OFFCURVE",
"318 584 OFFCURVE",
"337 582 CURVE",
"256 541 OFFCURVE",
"185 477 OFFCURVE",
"126 392 CURVE SMOOTH",
"64 302 OFFCURVE",
"33 213 OFFCURVE",
"33 126 CURVE SMOOTH",
"33 83 OFFCURVE",
"42 48 OFFCURVE",
"60 21 CURVE SMOOTH",
"81 -12 OFFCURVE",
"111 -28 OFFCURVE",
"151 -28 CURVE SMOOTH",
"206 -28 OFFCURVE",
"270 1 OFFCURVE",
"345 60 CURVE SMOOTH",
"405 107 OFFCURVE",
"457 159 OFFCURVE",
"500 217 CURVE",
"479 126 OFFCURVE",
"454 43 OFFCURVE",
"425 -30 CURVE SMOOTH",
"382 -141 OFFCURVE",
"338 -211 OFFCURVE",
"291 -240 CURVE SMOOTH",
"282 -246 OFFCURVE",
"269 -251 OFFCURVE",
"254 -254 CURVE SMOOTH",
"249 -255 OFFCURVE",
"246 -258 OFFCURVE",
"246 -261 CURVE SMOOTH",
"246 -266 OFFCURVE",
"249 -268 OFFCURVE",
"256 -268 CURVE SMOOTH"
);
},
{
closed = 1;
nodes = (
"298 -311 OFFCURVE",
"325 -305 OFFCURVE",
"350 -292 CURVE SMOOTH",
"430 -249 OFFCURVE",
"497 -160 OFFCURVE",
"550 -25 CURVE SMOOTH",
"574 35 OFFCURVE",
"606 146 OFFCURVE",
"647 308 CURVE SMOOTH",
"662 369 OFFCURVE",
"674 400 OFFCURVE",
"684 403 CURVE",
"686 403 LINE",
"678 410 OFFCURVE",
"668 414 OFFCURVE",
"655 414 CURVE SMOOTH",
"626 414 OFFCURVE",
"597 363 OFFCURVE",
"568 262 CURVE SMOOTH",
"510 61 OFFCURVE",
"481 -40 OFFCURVE",
"480 -41 CURVE",
"437 -160 OFFCURVE",
"386 -235 OFFCURVE",
"328 -267 CURVE SMOOTH",
"302 -281 OFFCURVE",
"274 -288 OFFCURVE",
"245 -288 CURVE SMOOTH",
"184 -288 OFFCURVE",
"139 -255 OFFCURVE",
"111 -190 CURVE SMOOTH",
"109 -186 OFFCURVE",
"107 -184 OFFCURVE",
"106 -184 CURVE SMOOTH",
"104 -184 OFFCURVE",
"103 -185 OFFCURVE",
"103 -188 CURVE SMOOTH",
"103 -219 OFFCURVE",
"123 -247 OFFCURVE",
"164 -274 CURVE SMOOTH",
"201 -299 OFFCURVE",
"236 -311 OFFCURVE",
"269 -311 CURVE SMOOTH"
);
},
{
closed = 1;
nodes = (
"144 22 OFFCURVE",
"117 37 OFFCURVE",
"99 66 CURVE SMOOTH",
"84 91 OFFCURVE",
"76 122 OFFCURVE",
"76 161 CURVE SMOOTH",
"76 245 OFFCURVE",
"104 327 OFFCURVE",
"160 408 CURVE SMOOTH",
"214 487 OFFCURVE",
"280 544 OFFCURVE",
"357 579 CURVE",
"422 570 OFFCURVE",
"486 550 OFFCURVE",
"550 521 CURVE",
"547 492 OFFCURVE",
"544 461 OFFCURVE",
"539 430 CURVE",
"532 445 OFFCURVE",
"524 452 OFFCURVE",
"515 452 CURVE SMOOTH",
"504 452 OFFCURVE",
"498 441 OFFCURVE",
"498 420 CURVE SMOOTH",
"498 395 OFFCURVE",
"508 372 OFFCURVE",
"527 349 CURVE",
"522 317 OFFCURVE",
"515 285 OFFCURVE",
"508 253 CURVE",
"463 197 OFFCURVE",
"414 148 OFFCURVE",
"361 107 CURVE SMOOTH",
"290 50 OFFCURVE",
"230 22 OFFCURVE",
"181 22 CURVE SMOOTH"
);
},
{
closed = 1;
nodes = (
"503 563 OFFCURVE",
"444 576 OFFCURVE",
"374 586 CURVE",
"413 601 OFFCURVE",
"456 609 OFFCURVE",
"503 609 CURVE SMOOTH",
"521 609 OFFCURVE",
"538 608 OFFCURVE",
"554 606 CURVE",
"554 587 OFFCURVE",
"553 568 OFFCURVE",
"552 548 CURVE"
);
},
{
closed = 1;
nodes = (
"705 480 OFFCURVE",
"701 482 OFFCURVE",
"695 485 CURVE SMOOTH",
"645 512 OFFCURVE",
"602 531 OFFCURVE",
"566 543 CURVE",
"569 603 LINE",
"636 589 OFFCURVE",
"683 560 OFFCURVE",
"709 515 CURVE SMOOTH",
"714 507 OFFCURVE",
"716 499 OFFCURVE",
"716 491 CURVE SMOOTH",
"716 484 OFFCURVE",
"713 480 OFFCURVE",
"708 480 CURVE SMOOTH"
);
}
);
};
layerId = "47CF47DF-B93A-4126-8606-39E7B9FB561A";
paths = (
{
closed = 1;
nodes = (
"271 -268 OFFCURVE",
"287 -261 OFFCURVE",
"306 -247 CURVE SMOOTH",
"351 -211 OFFCURVE",
"396 -135 OFFCURVE",
"439 -20 CURVE SMOOTH",
"469 58 OFFCURVE",
"495 144 OFFCURVE",
"517 239 CURVE",
"566 307 OFFCURVE",
"590 348 OFFCURVE",
"590 361 CURVE SMOOTH",
"590 362 OFFCURVE",
"589 363 OFFCURVE",
"588 364 CURVE",
"587 364 OFFCURVE",
"584 360 OFFCURVE",
"579 352 CURVE SMOOTH",
"559 321 OFFCURVE",
"541 295 OFFCURVE",
"525 274 CURVE",
"530 299 OFFCURVE",
"535 323 OFFCURVE",
"539 347 CURVE",
"564 364 OFFCURVE",
"593 401 OFFCURVE",
"593 428 CURVE SMOOTH",
"593 437 OFFCURVE",
"589 441 OFFCURVE",
"582 441 CURVE SMOOTH",
"574 441 OFFCURVE",
"564 436 OFFCURVE",
"553 426 CURVE",
"564 514 LINE",
"632 477 OFFCURVE",
"683 448 OFFCURVE",
"716 428 CURVE SMOOTH",
"723 424 OFFCURVE",
"729 422 OFFCURVE",
"735 422 CURVE SMOOTH",
"745 422 OFFCURVE",
"749 428 OFFCURVE",
"749 439 CURVE SMOOTH",
"749 444 LINE SMOOTH",
"749 561 OFFCURVE",
"683 625 OFFCURVE",
"568 634 CURVE",
"567 675 OFFCURVE",
"563 696 OFFCURVE",
"557 696 CURVE SMOOTH",
"554 696 OFFCURVE",
"552 693 OFFCURVE",
"552 688 CURVE SMOOTH",
"552 676 OFFCURVE",
"554 647 OFFCURVE",
"554 635 CURVE",
"490 638 OFFCURVE",
"423 622 OFFCURVE",
"352 589 CURVE",
"325 592 OFFCURVE",
"302 594 OFFCURVE",
"285 594 CURVE SMOOTH",
"230 594 OFFCURVE",
"176 586 OFFCURVE",
"122 570 CURVE SMOOTH",
"48 547 OFFCURVE",
"11 515 OFFCURVE",
"11 474 CURVE SMOOTH",
"11 465 OFFCURVE",
"13 455 OFFCURVE",
"18 445 CURVE SMOOTH",
"23 432 OFFCURVE",
"30 426 OFFCURVE",
"38 426 CURVE SMOOTH",
"44 426 OFFCURVE",
"47 431 OFFCURVE",
"47 440 CURVE SMOOTH",
"47 448 LINE",
"46 451 OFFCURVE",
"46 454 OFFCURVE",
"46 456 CURVE SMOOTH",
"46 485 OFFCURVE",
"66 512 OFFCURVE",
"107 536 CURVE SMOOTH",
"136 553 OFFCURVE",
"169 566 OFFCURVE",
"207 575 CURVE SMOOTH",
"236 582 OFFCURVE",
"265 585 OFFCURVE",
"292 585 CURVE SMOOTH",
"303 585 OFFCURVE",
"318 584 OFFCURVE",
"337 582 CURVE",
"256 541 OFFCURVE",
"185 477 OFFCURVE",
"126 392 CURVE SMOOTH",
"64 302 OFFCURVE",
"33 213 OFFCURVE",
"33 126 CURVE SMOOTH",
"33 83 OFFCURVE",
"42 48 OFFCURVE",
"60 21 CURVE SMOOTH",
"81 -12 OFFCURVE",
"111 -28 OFFCURVE",
"151 -28 CURVE SMOOTH",
"206 -28 OFFCURVE",
"270 1 OFFCURVE",
"345 60 CURVE SMOOTH",
"405 107 OFFCURVE",
"457 159 OFFCURVE",
"500 217 CURVE",
"479 126 OFFCURVE",
"454 43 OFFCURVE",
"425 -30 CURVE SMOOTH",
"382 -141 OFFCURVE",
"338 -211 OFFCURVE",
"291 -240 CURVE SMOOTH",
"282 -246 OFFCURVE",
"269 -251 OFFCURVE",
"254 -254 CURVE SMOOTH",
"249 -255 OFFCURVE",
"246 -258 OFFCURVE",
"246 -261 CURVE SMOOTH",
"246 -266 OFFCURVE",
"249 -268 OFFCURVE",
"256 -268 CURVE SMOOTH"
);
},
{
closed = 1;
nodes = (
"144 22 OFFCURVE",
"117 37 OFFCURVE",
"99 66 CURVE SMOOTH",
"84 91 OFFCURVE",
"76 122 OFFCURVE",
"76 161 CURVE SMOOTH",
"76 245 OFFCURVE",
"104 327 OFFCURVE",
"160 408 CURVE SMOOTH",
"214 487 OFFCURVE",
"280 544 OFFCURVE",
"357 579 CURVE",
"422 570 OFFCURVE",
"486 550 OFFCURVE",
"550 521 CURVE",
"547 492 OFFCURVE",
"544 461 OFFCURVE",
"539 430 CURVE",
"532 445 OFFCURVE",
"524 452 OFFCURVE",
"515 452 CURVE SMOOTH",
"504 452 OFFCURVE",
"498 441 OFFCURVE",
"498 420 CURVE SMOOTH",
"498 395 OFFCURVE",
"508 372 OFFCURVE",
"527 349 CURVE",
"522 317 OFFCURVE",
"515 285 OFFCURVE",
"508 253 CURVE",
"463 197 OFFCURVE",
"414 148 OFFCURVE",
"361 107 CURVE SMOOTH",
"290 50 OFFCURVE",
"230 22 OFFCURVE",
"181 22 CURVE SMOOTH"
);
},
{
closed = 1;
nodes = (
"503 563 OFFCURVE",
"444 576 OFFCURVE",
"374 586 CURVE",
"413 601 OFFCURVE",
"456 609 OFFCURVE",
"503 609 CURVE SMOOTH",
"521 609 OFFCURVE",
"538 608 OFFCURVE",
"554 606 CURVE",
"554 587 OFFCURVE",
"553 568 OFFCURVE",
"552 548 CURVE"
);
},
{
closed = 1;
nodes = (
"705 480 OFFCURVE",
"701 482 OFFCURVE",
"695 485 CURVE SMOOTH",
"645 512 OFFCURVE",
"602 531 OFFCURVE",
"566 543 CURVE",
"569 603 LINE",
"636 589 OFFCURVE",
"683 560 OFFCURVE",
"709 515 CURVE SMOOTH",
"714 507 OFFCURVE",
"716 499 OFFCURVE",
"716 491 CURVE SMOOTH",
"716 484 OFFCURVE",
"713 480 OFFCURVE",
"708 480 CURVE SMOOTH"
);
},
{
closed = 1;
nodes = (
"298 -311 OFFCURVE",
"325 -305 OFFCURVE",
"350 -292 CURVE SMOOTH",
"430 -249 OFFCURVE",
"497 -160 OFFCURVE",
"550 -25 CURVE SMOOTH",
"574 35 OFFCURVE",
"606 146 OFFCURVE",
"647 308 CURVE SMOOTH",
"662 369 OFFCURVE",
"674 400 OFFCURVE",
"684 403 CURVE",
"686 403 LINE",
"678 410 OFFCURVE",
"668 414 OFFCURVE",
"655 414 CURVE SMOOTH",
"626 414 OFFCURVE",
"597 363 OFFCURVE",
"568 262 CURVE SMOOTH",
"510 61 OFFCURVE",
"481 -40 OFFCURVE",
"480 -41 CURVE",
"437 -160 OFFCURVE",
"386 -235 OFFCURVE",
"328 -267 CURVE SMOOTH",
"302 -281 OFFCURVE",
"274 -288 OFFCURVE",
"245 -288 CURVE SMOOTH",
"184 -288 OFFCURVE",
"139 -255 OFFCURVE",
"111 -190 CURVE SMOOTH",
"109 -186 OFFCURVE",
"107 -184 OFFCURVE",
"106 -184 CURVE SMOOTH",
"104 -184 OFFCURVE",
"103 -185 OFFCURVE",
"103 -188 CURVE SMOOTH",
"103 -219 OFFCURVE",
"123 -247 OFFCURVE",
"164 -274 CURVE SMOOTH",
"201 -299 OFFCURVE",
"236 -311 OFFCURVE",
"269 -311 CURVE SMOOTH"
);
}
);
width = 717;
}
);
note = G;
unicode = 0047;
},
{
glyphname = H;
lastChange = "2021-11-23 05:59:21 +0000";
layers = (
{
anchors = (
{
name = bottom;
position = "{371, -60}";
},
{
name = center;
position = "{371, 350}";
},
{
name = top;
position = "{609, 633}";
},
{
name = topleft;
position = "{20, 700}";
}
);
background = {
paths = (
{
closed = 1;
nodes = (
"734 -181 OFFCURVE",
"771 -168 OFFCURVE",
"809 -142 CURVE SMOOTH",
"843 -119 OFFCURVE",
"871 -91 OFFCURVE",
"893 -58 CURVE SMOOTH",
"895 -55 OFFCURVE",
"896 -53 OFFCURVE",
"896 -51 CURVE SMOOTH",
"896 -50 OFFCURVE",
"895 -50 OFFCURVE",
"894 -49 CURVE",
"894 -49 OFFCURVE",
"883 -59 OFFCURVE",
"862 -79 CURVE SMOOTH",
"837 -103 OFFCURVE",
"815 -122 OFFCURVE",
"796 -136 CURVE SMOOTH",
"767 -156 OFFCURVE",
"742 -166 OFFCURVE",
"722 -166 CURVE SMOOTH",
"672 -166 OFFCURVE",
"647 -125 OFFCURVE",
"647 -43 CURVE SMOOTH",
"647 18 OFFCURVE",
"662 100 OFFCURVE",
"692 205 CURVE SMOOTH",
"710 266 OFFCURVE",
"737 350 OFFCURVE",
"774 456 CURVE SMOOTH",
"802 537 OFFCURVE",
"819 588 OFFCURVE",
"824 608 CURVE SMOOTH",
"825 613 OFFCURVE",
"826 617 OFFCURVE",
"826 621 CURVE SMOOTH",
"826 630 OFFCURVE",
"824 635 OFFCURVE",
"819 635 CURVE SMOOTH",
"814 635 OFFCURVE",
"809 627 OFFCURVE",
"803 611 CURVE SMOOTH",
"784 563 OFFCURVE",
"769 527 OFFCURVE",
"760 502 CURVE SMOOTH",
"683 317 OFFCURVE",
"641 215 OFFCURVE",
"634 196 CURVE SMOOTH",
"598 95 OFFCURVE",
"580 14 OFFCURVE",
"580 -45 CURVE SMOOTH",
"580 -136 OFFCURVE",
"620 -181 OFFCURVE",
"699 -181 CURVE SMOOTH"
);
},
{
closed = 1;
nodes = (
"87 -7 OFFCURVE",
"80 9 OFFCURVE",
"80 26 CURVE SMOOTH",
"80 70 OFFCURVE",
"122 110 OFFCURVE",
"205 147 CURVE",
"172 82 OFFCURVE",
"138 26 OFFCURVE",
"101 -22 CURVE"
);
},
{
closed = 1;
nodes = (
"283 204 OFFCURVE",
"261 199 OFFCURVE",
"240 194 CURVE",
"260 239 OFFCURVE",
"278 284 OFFCURVE",
"294 329 CURVE",
"307 337 OFFCURVE",
"321 349 OFFCURVE",
"334 366 CURVE SMOOTH",
"348 383 OFFCURVE",
"355 399 OFFCURVE",
"355 412 CURVE SMOOTH",
"355 419 OFFCURVE",
"352 423 OFFCURVE",
"345 423 CURVE SMOOTH",
"338 423 OFFCURVE",
"330 419 OFFCURVE",
"319 412 CURVE",
"340 488 OFFCURVE",
"350 556 OFFCURVE",
"351 616 CURVE",
"386 599 OFFCURVE",
"403 563 OFFCURVE",
"403 509 CURVE SMOOTH",
"403 436 OFFCURVE",
"371 335 OFFCURVE",
"308 207 CURVE"
);
},
{
closed = 1;
nodes = (
"130 -45 OFFCURVE",
"118 -38 OFFCURVE",
"109 -29 CURVE",
"148 22 OFFCURVE",
"185 83 OFFCURVE",
"220 154 CURVE",
"243 163 OFFCURVE",
"267 171 OFFCURVE",
"292 177 CURVE",
"246 90 OFFCURVE",
"197 14 OFFCURVE",
"144 -51 CURVE"
);
},
{
closed = 1;
nodes = (
"429 327 OFFCURVE",
"458 417 OFFCURVE",
"458 486 CURVE SMOOTH",
"458 568 OFFCURVE",
"422 617 OFFCURVE",
"351 632 CURVE",
"350 663 OFFCURVE",
"348 678 OFFCURVE",
"345 678 CURVE SMOOTH",
"341 678 OFFCURVE",
"339 675 OFFCURVE",
"339 670 CURVE SMOOTH",
"339 634 LINE",
"329 635 OFFCURVE",
"318 636 OFFCURVE",
"307 636 CURVE SMOOTH",
"274 636 OFFCURVE",
"240 630 OFFCURVE",
"205 619 CURVE SMOOTH",
"160 604 OFFCURVE",
"121 582 OFFCURVE",
"86 553 CURVE SMOOTH",
"42 517 OFFCURVE",
"20 479 OFFCURVE",
"20 439 CURVE SMOOTH",
"20 410 OFFCURVE",
"34 382 OFFCURVE",
"61 356 CURVE SMOOTH",
"83 335 OFFCURVE",
"110 318 OFFCURVE",
"141 305 CURVE",
"145 305 LINE SMOOTH",
"150 305 OFFCURVE",
"153 308 OFFCURVE",
"153 313 CURVE SMOOTH",
"153 316 OFFCURVE",
"152 318 OFFCURVE",
"149 319 CURVE",
"89 350 OFFCURVE",
"59 387 OFFCURVE",
"59 429 CURVE SMOOTH",
"59 477 OFFCURVE",
"88 523 OFFCURVE",
"145 566 CURVE SMOOTH",
"199 607 OFFCURVE",
"251 627 OFFCURVE",
"301 627 CURVE SMOOTH",
"315 627 OFFCURVE",
"328 625 OFFCURVE",
"339 621 CURVE",
"337 555 OFFCURVE",
"326 484 OFFCURVE",
"305 407 CURVE",
"298 426 OFFCURVE",
"289 436 OFFCURVE",
"280 436 CURVE SMOOTH",
"267 436 OFFCURVE",
"260 423 OFFCURVE",
"260 397 CURVE SMOOTH",
"260 374 OFFCURVE",
"267 353 OFFCURVE",
"282 332 CURVE",
"266 284 OFFCURVE",
"247 237 OFFCURVE",
"226 191 CURVE",
"182 179 OFFCURVE",
"143 162 OFFCURVE",
"109 141 CURVE SMOOTH",
"62 112 OFFCURVE",
"38 80 OFFCURVE",
"38 45 CURVE SMOOTH",
"38 16 OFFCURVE",
"55 -11 OFFCURVE",
"89 -36 CURVE",
"41 -95 OFFCURVE",
"-4 -132 OFFCURVE",
"-46 -147 CURVE",
"-74 -154 OFFCURVE",
"-85 -153 OFFCURVE",
"-85 -160 CURVE SMOOTH",
"-85 -165 OFFCURVE",
"-82 -167 OFFCURVE",
"-76 -167 CURVE SMOOTH",
"-25 -167 OFFCURVE",
"33 -125 OFFCURVE",
"99 -42 CURVE",
"110 -49 OFFCURVE",
"123 -56 OFFCURVE",
"136 -61 CURVE",
"49 -165 OFFCURVE",
"-30 -217 OFFCURVE",
"-102 -217 CURVE SMOOTH",
"-131 -217 OFFCURVE",
"-146 -204 OFFCURVE",
"-146 -178 CURVE SMOOTH",
"-146 -167 LINE",
"-152 -172 OFFCURVE",
"-155 -182 OFFCURVE",
"-155 -195 CURVE SMOOTH",
"-155 -219 OFFCURVE",
"-137 -231 OFFCURVE",
"-102 -231 CURVE SMOOTH",
"-21 -231 OFFCURVE",
"69 -178 OFFCURVE",
"169 -73 CURVE",
"198 -82 OFFCURVE",
"219 -86 OFFCURVE",
"232 -86 CURVE SMOOTH",
"239 -86 OFFCURVE",
"242 -84 OFFCURVE",
"242 -81 CURVE SMOOTH",
"242 -78 OFFCURVE",
"239 -77 OFFCURVE",
"234 -76 CURVE SMOOTH",
"178 -64 LINE",
"247 11 OFFCURVE",
"308 96 OFFCURVE",
"360 191 CURVE",
"401 198 OFFCURVE",
"455 203 OFFCURVE",
"521 206 CURVE SMOOTH",
"605 210 LINE",
"620 212 OFFCURVE",
"627 216 OFFCURVE",
"627 223 CURVE SMOOTH",
"627 225 OFFCURVE",
"625 226 OFFCURVE",
"621 226 CURVE SMOOTH",
"612 226 OFFCURVE",
"600 226 OFFCURVE",
"585 225 CURVE SMOOTH",
"566 224 OFFCURVE",
"554 223 OFFCURVE",
"548 223 CURVE SMOOTH",
"467 221 OFFCURVE",
"408 218 OFFCURVE",
"372 215 CURVE"
);
}
);
};
layerId = "47CF47DF-B93A-4126-8606-39E7B9FB561A";
paths = (
{
closed = 1;
nodes = (
"-21 -221 OFFCURVE",
"69 -168 OFFCURVE",
"169 -63 CURVE",
"198 -72 OFFCURVE",
"219 -76 OFFCURVE",
"232 -76 CURVE SMOOTH",
"239 -76 OFFCURVE",
"242 -74 OFFCURVE",
"242 -71 CURVE SMOOTH",
"242 -68 OFFCURVE",
"239 -67 OFFCURVE",
"234 -66 CURVE SMOOTH",
"178 -54 LINE",
"247 21 OFFCURVE",
"308 106 OFFCURVE",
"360 201 CURVE",
"401 208 OFFCURVE",
"455 213 OFFCURVE",
"521 216 CURVE SMOOTH",
"605 220 LINE",
"620 222 OFFCURVE",
"627 226 OFFCURVE",
"627 233 CURVE SMOOTH",
"627 235 OFFCURVE",
"625 236 OFFCURVE",
"621 236 CURVE SMOOTH",
"612 236 OFFCURVE",
"600 236 OFFCURVE",
"585 235 CURVE SMOOTH",
"566 234 OFFCURVE",
"554 233 OFFCURVE",
"548 233 CURVE SMOOTH",
"467 231 OFFCURVE",
"408 228 OFFCURVE",
"372 225 CURVE",
"429 337 OFFCURVE",
"458 427 OFFCURVE",
"458 496 CURVE SMOOTH",
"458 578 OFFCURVE",
"422 627 OFFCURVE",
"351 642 CURVE",
"350 673 OFFCURVE",
"348 688 OFFCURVE",
"345 688 CURVE SMOOTH",
"341 688 OFFCURVE",
"339 685 OFFCURVE",
"339 680 CURVE SMOOTH",
"339 644 LINE",
"329 645 OFFCURVE",
"318 646 OFFCURVE",
"307 646 CURVE SMOOTH",
"274 646 OFFCURVE",
"240 640 OFFCURVE",
"205 629 CURVE SMOOTH",
"160 614 OFFCURVE",
"121 592 OFFCURVE",
"86 563 CURVE SMOOTH",
"42 527 OFFCURVE",
"20 489 OFFCURVE",
"20 449 CURVE SMOOTH",
"20 420 OFFCURVE",
"34 392 OFFCURVE",
"61 366 CURVE SMOOTH",
"83 345 OFFCURVE",
"110 328 OFFCURVE",
"141 315 CURVE",
"145 315 LINE SMOOTH",
"150 315 OFFCURVE",
"153 318 OFFCURVE",
"153 323 CURVE SMOOTH",
"153 326 OFFCURVE",
"152 328 OFFCURVE",
"149 329 CURVE",
"89 360 OFFCURVE",
"59 397 OFFCURVE",
"59 439 CURVE SMOOTH",
"59 487 OFFCURVE",
"88 533 OFFCURVE",
"145 576 CURVE SMOOTH",
"199 617 OFFCURVE",
"251 637 OFFCURVE",
"301 637 CURVE SMOOTH",
"315 637 OFFCURVE",
"328 635 OFFCURVE",
"339 631 CURVE",
"337 565 OFFCURVE",
"326 494 OFFCURVE",
"305 417 CURVE",
"298 436 OFFCURVE",
"289 446 OFFCURVE",
"280 446 CURVE SMOOTH",
"267 446 OFFCURVE",
"260 433 OFFCURVE",
"260 407 CURVE SMOOTH",
"260 384 OFFCURVE",
"267 363 OFFCURVE",
"282 342 CURVE",
"266 294 OFFCURVE",
"247 247 OFFCURVE",
"226 201 CURVE",
"182 189 OFFCURVE",
"143 172 OFFCURVE",
"109 151 CURVE SMOOTH",
"62 122 OFFCURVE",
"38 90 OFFCURVE",
"38 55 CURVE SMOOTH",
"38 26 OFFCURVE",
"55 -1 OFFCURVE",
"89 -26 CURVE",
"41 -85 OFFCURVE",
"-4 -122 OFFCURVE",
"-46 -137 CURVE",
"-74 -144 OFFCURVE",
"-85 -143 OFFCURVE",
"-85 -150 CURVE SMOOTH",
"-85 -155 OFFCURVE",
"-82 -157 OFFCURVE",
"-76 -157 CURVE SMOOTH",
"-25 -157 OFFCURVE",
"33 -115 OFFCURVE",
"99 -32 CURVE",
"110 -39 OFFCURVE",
"123 -46 OFFCURVE",
"136 -51 CURVE",
"49 -155 OFFCURVE",
"-30 -207 OFFCURVE",
"-102 -207 CURVE SMOOTH",
"-131 -207 OFFCURVE",
"-146 -194 OFFCURVE",
"-146 -168 CURVE SMOOTH",
"-146 -157 LINE",
"-152 -162 OFFCURVE",
"-155 -172 OFFCURVE",
"-155 -185 CURVE SMOOTH",
"-155 -209 OFFCURVE",
"-137 -221 OFFCURVE",
"-102 -221 CURVE SMOOTH"
);
},
{
closed = 1;
nodes = (
"87 3 OFFCURVE",
"80 19 OFFCURVE",
"80 36 CURVE SMOOTH",
"80 80 OFFCURVE",
"122 120 OFFCURVE",
"205 157 CURVE",
"172 92 OFFCURVE",
"138 36 OFFCURVE",
"101 -12 CURVE"
);
},
{
closed = 1;
nodes = (
"130 -35 OFFCURVE",
"118 -28 OFFCURVE",
"109 -19 CURVE",
"148 32 OFFCURVE",
"185 93 OFFCURVE",
"220 164 CURVE",
"243 173 OFFCURVE",
"267 181 OFFCURVE",
"292 187 CURVE",
"246 100 OFFCURVE",
"197 24 OFFCURVE",
"144 -41 CURVE"
);
},
{
closed = 1;
nodes = (
"260 249 OFFCURVE",
"278 294 OFFCURVE",
"294 339 CURVE",
"307 347 OFFCURVE",
"321 359 OFFCURVE",
"334 376 CURVE SMOOTH",
"348 393 OFFCURVE",
"355 409 OFFCURVE",
"355 422 CURVE SMOOTH",
"355 429 OFFCURVE",
"352 433 OFFCURVE",
"345 433 CURVE SMOOTH",
"338 433 OFFCURVE",
"330 429 OFFCURVE",
"319 422 CURVE",
"340 498 OFFCURVE",
"350 566 OFFCURVE",
"351 626 CURVE",
"386 609 OFFCURVE",
"403 573 OFFCURVE",
"403 519 CURVE SMOOTH",
"403 446 OFFCURVE",
"371 345 OFFCURVE",
"308 217 CURVE",
"283 214 OFFCURVE",
"261 209 OFFCURVE",
"240 204 CURVE"
);
},
{
closed = 1;
nodes = (
"734 -171 OFFCURVE",
"771 -158 OFFCURVE",
"809 -132 CURVE SMOOTH",
"843 -109 OFFCURVE",
"871 -81 OFFCURVE",
"893 -48 CURVE SMOOTH",
"895 -45 OFFCURVE",
"896 -43 OFFCURVE",
"896 -41 CURVE SMOOTH",
"896 -40 OFFCURVE",
"895 -40 OFFCURVE",
"894 -39 CURVE",
"894 -39 OFFCURVE",
"883 -49 OFFCURVE",
"862 -69 CURVE SMOOTH",
"837 -93 OFFCURVE",
"815 -112 OFFCURVE",
"796 -126 CURVE SMOOTH",
"767 -146 OFFCURVE",
"742 -156 OFFCURVE",
"722 -156 CURVE SMOOTH",
"672 -156 OFFCURVE",
"647 -115 OFFCURVE",
"647 -33 CURVE SMOOTH",
"647 28 OFFCURVE",
"662 110 OFFCURVE",
"692 215 CURVE SMOOTH",
"710 276 OFFCURVE",
"737 360 OFFCURVE",
"774 466 CURVE SMOOTH",
"802 547 OFFCURVE",
"819 598 OFFCURVE",
"824 618 CURVE SMOOTH",
"825 623 OFFCURVE",
"826 627 OFFCURVE",
"826 631 CURVE SMOOTH",
"826 640 OFFCURVE",
"824 645 OFFCURVE",
"819 645 CURVE SMOOTH",
"814 645 OFFCURVE",
"809 637 OFFCURVE",
"803 621 CURVE SMOOTH",
"784 573 OFFCURVE",
"769 537 OFFCURVE",
"760 512 CURVE SMOOTH",
"683 327 OFFCURVE",
"641 225 OFFCURVE",
"634 206 CURVE SMOOTH",
"598 105 OFFCURVE",
"580 24 OFFCURVE",
"580 -35 CURVE SMOOTH",
"580 -126 OFFCURVE",
"620 -171 OFFCURVE",
"699 -171 CURVE SMOOTH"
);
}
);
width = 742;
}
);
note = H;
unicode = 0048;
},
{
glyphname = I;
lastChange = "2021-11-23 05:59:21 +0000";
layers = (
{
anchors = (
{
name = bottom;
position = "{140, -134}";
},
{
name = ogonek;
position = "{261, -126}";
},
{
name = top;
position = "{688, 626}";
},
{
name = topleft;
position = "{20, 700}";
}
);
background = {
paths = (
{
closed = 1;
nodes = (
"700 601 OFFCURVE",
"694 606 OFFCURVE",
"682 606 CURVE SMOOTH",
"656 606 OFFCURVE",
"616 591 OFFCURVE",
"563 561 CURVE",
"568 586 OFFCURVE",
"570 606 OFFCURVE",
"570 622 CURVE SMOOTH",
"570 636 OFFCURVE",
"569 644 OFFCURVE",
"566 646 CURVE",
"563 643 OFFCURVE",
"561 638 OFFCURVE",
"560 630 CURVE SMOOTH",
"548 552 LINE",
"503 525 OFFCURVE",
"464 495 OFFCURVE",
"429 462 CURVE SMOOTH",
"381 416 OFFCURVE",
"357 376 OFFCURVE",
"357 341 CURVE SMOOTH",
"357 316 OFFCURVE",
"378 291 OFFCURVE",
"403 291 CURVE SMOOTH",
"406 291 OFFCURVE",
"408 292 OFFCURVE",
"408 293 CURVE SMOOTH",
"408 294 OFFCURVE",
"406 296 OFFCURVE",
"403 298 CURVE SMOOTH",
"392 304 OFFCURVE",
"387 314 OFFCURVE",
"387 327 CURVE SMOOTH",
"387 345 OFFCURVE",
"396 370 OFFCURVE",
"414 402 CURVE SMOOTH",
"430 431 OFFCURVE",
"446 453 OFFCURVE",
"462 469 CURVE SMOOTH",
"482 489 OFFCURVE",
"509 510 OFFCURVE",
"544 531 CURVE",
"520 418 OFFCURVE",
"496 340 OFFCURVE",
"473 296 CURVE",
"465 317 OFFCURVE",
"456 328 OFFCURVE",
"446 328 CURVE SMOOTH",
"437 328 OFFCURVE",
"432 316 OFFCURVE",
"432 291 CURVE SMOOTH",
"432 275 OFFCURVE",
"436 252 OFFCURVE",
"445 221 CURVE",
"420 160 OFFCURVE",
"390 103 OFFCURVE",
"354 48 CURVE SMOOTH",
"302 -31 OFFCURVE",
"257 -70 OFFCURVE",
"218 -70 CURVE SMOOTH",
"214 -70 OFFCURVE",
"205 -68 OFFCURVE",
"201 -68 CURVE SMOOTH",
"197 -68 OFFCURVE",
"195 -70 OFFCURVE",
"195 -73 CURVE SMOOTH",
"195 -81 OFFCURVE",
"202 -85 OFFCURVE",
"217 -85 CURVE SMOOTH",
"255 -85 OFFCURVE",
"302 -44 OFFCURVE",
"357 38 CURVE SMOOTH",
"396 95 OFFCURVE",
"428 153 OFFCURVE",
"455 214 CURVE",
"498 253 OFFCURVE",
"519 282 OFFCURVE",
"519 301 CURVE SMOOTH",
"519 308 OFFCURVE",
"516 311 OFFCURVE",
"511 311 CURVE SMOOTH",
"506 311 OFFCURVE",
"499 308 OFFCURVE",
"490 303 CURVE",
"523 396 OFFCURVE",
"546 475 OFFCURVE",
"559 540 CURVE",
"610 570 OFFCURVE",
"641 585 OFFCURVE",
"652 585 CURVE SMOOTH",
"653 585 OFFCURVE",
"653 585 OFFCURVE",
"653 584 CURVE SMOOTH",
"653 577 OFFCURVE",
"646 552 OFFCURVE",
"632 510 CURVE SMOOTH",
"570 317 OFFCURVE",
"496 156 OFFCURVE",
"409 28 CURVE SMOOTH",
"334 -81 OFFCURVE",
"261 -136 OFFCURVE",
"188 -136 CURVE SMOOTH",
"149 -136 OFFCURVE",
"117 -122 OFFCURVE",
"93 -93 CURVE SMOOTH",
"70 -66 OFFCURVE",
"59 -33 OFFCURVE",
"59 7 CURVE SMOOTH",
"59 54 OFFCURVE",
"72 104 OFFCURVE",
"98 157 CURVE SMOOTH",
"102 166 OFFCURVE",
"104 172 OFFCURVE",
"104 177 CURVE SMOOTH",
"104 180 OFFCURVE",
"104 182 OFFCURVE",
"103 183 CURVE",
"110 182 OFFCURVE",
"119 182 OFFCURVE",
"128 182 CURVE SMOOTH",
"139 182 OFFCURVE",
"155 182 OFFCURVE",
"176 183 CURVE SMOOTH",
"198 184 OFFCURVE",
"214 185 OFFCURVE",
"225 185 CURVE SMOOTH",
"298 185 OFFCURVE",
"335 173 OFFCURVE",
"335 149 CURVE SMOOTH",
"335 147 OFFCURVE",
"331 142 OFFCURVE",
"324 133 CURVE SMOOTH",
"317 125 OFFCURVE",
"313 120 OFFCURVE",
"313 117 CURVE SMOOTH",
"313 116 OFFCURVE",
"314 115 OFFCURVE",
"317 115 CURVE",
"340 128 OFFCURVE",
"351 143 OFFCURVE",
"351 162 CURVE SMOOTH",
"351 187 OFFCURVE",
"337 203 OFFCURVE",
"309 211 CURVE SMOOTH",
"294 215 OFFCURVE",
"270 217 OFFCURVE",
"237 217 CURVE SMOOTH",
"220 217 OFFCURVE",
"196 216 OFFCURVE",
"163 214 CURVE SMOOTH",
"131 212 OFFCURVE",
"107 211 OFFCURVE",
"90 211 CURVE SMOOTH",
"86 211 OFFCURVE",
"73 213 OFFCURVE",
"68 213 CURVE SMOOTH",
"53 213 OFFCURVE",
"24 198 OFFCURVE",
"24 185 CURVE SMOOTH",
"24 180 OFFCURVE",
"31 177 OFFCURVE",
"44 174 CURVE SMOOTH",
"57 172 OFFCURVE",
"64 169 OFFCURVE",
"64 166 CURVE SMOOTH",
"64 165 OFFCURVE",
"63 162 OFFCURVE",
"61 159 CURVE SMOOTH",
"45 129 OFFCURVE",
"37 87 OFFCURVE",
"37 34 CURVE SMOOTH",
"37 -19 OFFCURVE",
"48 -61 OFFCURVE",
"71 -94 CURVE SMOOTH",
"96 -131 OFFCURVE",
"134 -149 OFFCURVE",
"185 -149 CURVE SMOOTH",
"270 -149 OFFCURVE",
"352 -103 OFFCURVE",
"431 -12 CURVE SMOOTH",
"536 111 OFFCURVE",
"618 272 OFFCURVE",
"676 470 CURVE SMOOTH",
"692 527 OFFCURVE",
"700 567 OFFCURVE",
"700 590 CURVE SMOOTH"
);
}
);
};
layerId = "47CF47DF-B93A-4126-8606-39E7B9FB561A";
paths = (
{
closed = 1;
nodes = (
"270 -139 OFFCURVE",
"352 -93 OFFCURVE",
"431 -2 CURVE SMOOTH",
"536 121 OFFCURVE",
"618 282 OFFCURVE",
"676 480 CURVE SMOOTH",
"692 537 OFFCURVE",
"700 577 OFFCURVE",
"700 600 CURVE SMOOTH",
"700 611 OFFCURVE",
"694 616 OFFCURVE",
"682 616 CURVE SMOOTH",
"656 616 OFFCURVE",
"616 601 OFFCURVE",
"563 571 CURVE",
"568 596 OFFCURVE",
"570 616 OFFCURVE",
"570 632 CURVE SMOOTH",
"570 646 OFFCURVE",
"569 654 OFFCURVE",
"566 656 CURVE",
"563 653 OFFCURVE",
"561 648 OFFCURVE",
"560 640 CURVE SMOOTH",
"548 562 LINE",
"503 535 OFFCURVE",
"464 505 OFFCURVE",
"429 472 CURVE SMOOTH",
"381 426 OFFCURVE",
"357 386 OFFCURVE",
"357 351 CURVE SMOOTH",
"357 326 OFFCURVE",
"378 301 OFFCURVE",
"403 301 CURVE SMOOTH",
"406 301 OFFCURVE",
"408 302 OFFCURVE",
"408 303 CURVE SMOOTH",
"408 304 OFFCURVE",
"406 306 OFFCURVE",
"403 308 CURVE SMOOTH",
"392 314 OFFCURVE",
"387 324 OFFCURVE",
"387 337 CURVE SMOOTH",
"387 355 OFFCURVE",
"396 380 OFFCURVE",
"414 412 CURVE SMOOTH",
"430 441 OFFCURVE",
"446 463 OFFCURVE",
"462 479 CURVE SMOOTH",
"482 499 OFFCURVE",
"509 520 OFFCURVE",
"544 541 CURVE",
"520 428 OFFCURVE",
"496 350 OFFCURVE",
"473 306 CURVE",
"465 327 OFFCURVE",
"456 338 OFFCURVE",
"446 338 CURVE SMOOTH",
"437 338 OFFCURVE",
"432 326 OFFCURVE",
"432 301 CURVE SMOOTH",
"432 285 OFFCURVE",
"436 262 OFFCURVE",
"445 231 CURVE",
"420 170 OFFCURVE",
"390 113 OFFCURVE",
"354 58 CURVE SMOOTH",
"302 -21 OFFCURVE",
"257 -60 OFFCURVE",
"218 -60 CURVE SMOOTH",
"214 -60 OFFCURVE",
"205 -58 OFFCURVE",
"201 -58 CURVE SMOOTH",
"197 -58 OFFCURVE",
"195 -60 OFFCURVE",
"195 -63 CURVE SMOOTH",
"195 -71 OFFCURVE",
"202 -75 OFFCURVE",
"217 -75 CURVE SMOOTH",
"255 -75 OFFCURVE",
"302 -34 OFFCURVE",
"357 48 CURVE SMOOTH",
"396 105 OFFCURVE",
"428 163 OFFCURVE",
"455 224 CURVE",
"498 263 OFFCURVE",
"519 292 OFFCURVE",
"519 311 CURVE SMOOTH",
"519 318 OFFCURVE",
"516 321 OFFCURVE",
"511 321 CURVE SMOOTH",
"506 321 OFFCURVE",
"499 318 OFFCURVE",
"490 313 CURVE",
"523 406 OFFCURVE",
"546 485 OFFCURVE",
"559 550 CURVE",
"610 580 OFFCURVE",
"641 595 OFFCURVE",
"652 595 CURVE SMOOTH",
"653 595 OFFCURVE",
"653 595 OFFCURVE",
"653 594 CURVE SMOOTH",
"653 587 OFFCURVE",
"646 562 OFFCURVE",
"632 520 CURVE SMOOTH",
"570 327 OFFCURVE",
"496 166 OFFCURVE",
"409 38 CURVE SMOOTH",
"334 -71 OFFCURVE",
"261 -126 OFFCURVE",
"188 -126 CURVE SMOOTH",
"149 -126 OFFCURVE",
"117 -112 OFFCURVE",
"93 -83 CURVE SMOOTH",
"70 -56 OFFCURVE",
"59 -23 OFFCURVE",
"59 17 CURVE SMOOTH",
"59 64 OFFCURVE",
"72 114 OFFCURVE",
"98 167 CURVE SMOOTH",
"102 176 OFFCURVE",
"104 182 OFFCURVE",
"104 187 CURVE SMOOTH",
"104 190 OFFCURVE",
"104 192 OFFCURVE",
"103 193 CURVE",
"110 192 OFFCURVE",
"119 192 OFFCURVE",
"128 192 CURVE SMOOTH",
"139 192 OFFCURVE",
"155 192 OFFCURVE",
"176 193 CURVE SMOOTH",
"198 194 OFFCURVE",
"214 195 OFFCURVE",
"225 195 CURVE SMOOTH",
"298 195 OFFCURVE",
"335 183 OFFCURVE",
"335 159 CURVE SMOOTH",
"335 157 OFFCURVE",
"331 152 OFFCURVE",
"324 143 CURVE SMOOTH",
"317 135 OFFCURVE",
"313 130 OFFCURVE",
"313 127 CURVE SMOOTH",
"313 126 OFFCURVE",
"314 125 OFFCURVE",
"317 125 CURVE",
"340 138 OFFCURVE",
"351 153 OFFCURVE",
"351 172 CURVE SMOOTH",
"351 197 OFFCURVE",
"337 213 OFFCURVE",
"309 221 CURVE SMOOTH",
"294 225 OFFCURVE",
"270 227 OFFCURVE",
"237 227 CURVE SMOOTH",
"220 227 OFFCURVE",
"196 226 OFFCURVE",
"163 224 CURVE SMOOTH",
"131 222 OFFCURVE",
"107 221 OFFCURVE",
"90 221 CURVE SMOOTH",
"86 221 OFFCURVE",
"73 223 OFFCURVE",
"68 223 CURVE SMOOTH",
"53 223 OFFCURVE",
"24 208 OFFCURVE",
"24 195 CURVE SMOOTH",
"24 190 OFFCURVE",
"31 187 OFFCURVE",
"44 184 CURVE SMOOTH",
"57 182 OFFCURVE",
"64 179 OFFCURVE",
"64 176 CURVE SMOOTH",
"64 175 OFFCURVE",
"63 172 OFFCURVE",
"61 169 CURVE SMOOTH",
"45 139 OFFCURVE",
"37 97 OFFCURVE",
"37 44 CURVE SMOOTH",
"37 -9 OFFCURVE",
"48 -51 OFFCURVE",
"71 -84 CURVE SMOOTH",
"96 -121 OFFCURVE",
"134 -139 OFFCURVE",
"185 -139 CURVE SMOOTH"
);
}
);
width = 664;
}
);
note = I;
unicode = 0049;
},
{
glyphname = J;
lastChange = "2021-11-23 05:59:21 +0000";
layers = (
{
anchors = (
{
name = bottom;
position = "{252, 0}";
},
{
name = top;
position = "{620, 700}";
}
);
background = {
paths = (
{
closed = 1;
nodes = (
"427 656 OFFCURVE",
"425 676 OFFCURVE",
"421 677 CURVE",
"417 676 OFFCURVE",
"415 674 OFFCURVE",
"415 670 CURVE SMOOTH",
"415 628 OFFCURVE",
"413 592 OFFCURVE",
"410 561 CURVE",
"145 489 OFFCURVE",
"12 376 OFFCURVE",
"12 223 CURVE SMOOTH",
"12 177 OFFCURVE",
"31 141 OFFCURVE",
"68 115 CURVE SMOOTH",
"101 92 OFFCURVE",
"142 81 OFFCURVE",
"190 81 CURVE SMOOTH",
"223 81 OFFCURVE",
"239 85 OFFCURVE",
"239 92 CURVE SMOOTH",
"239 93 OFFCURVE",
"238 94 OFFCURVE",
"235 94 CURVE SMOOTH",
"227 94 OFFCURVE",
"208 91 OFFCURVE",
"201 91 CURVE SMOOTH",
"157 91 OFFCURVE",
"122 102 OFFCURVE",
"95 124 CURVE SMOOTH",
"65 147 OFFCURVE",
"50 180 OFFCURVE",
"50 223 CURVE SMOOTH",
"50 366 OFFCURVE",
"169 473 OFFCURVE",
"408 544 CURVE",
"403 499 OFFCURVE",
"395 454 OFFCURVE",
"384 407 CURVE",
"378 422 OFFCURVE",
"371 429 OFFCURVE",
"363 429 CURVE SMOOTH",
"349 429 OFFCURVE",
"342 416 OFFCURVE",
"342 389 CURVE SMOOTH",
"342 367 OFFCURVE",
"349 347 OFFCURVE",
"364 329 CURVE",
"336 234 OFFCURVE",
"301 147 OFFCURVE",
"258 68 CURVE SMOOTH",
"200 -39 OFFCURVE",
"139 -107 OFFCURVE",
"76 -137 CURVE SMOOTH",
"63 -143 OFFCURVE",
"46 -148 OFFCURVE",
"23 -152 CURVE SMOOTH",
"18 -153 OFFCURVE",
"15 -156 OFFCURVE",
"15 -159 CURVE SMOOTH",
"15 -164 OFFCURVE",
"18 -166 OFFCURVE",
"24 -166 CURVE SMOOTH",
"44 -166 OFFCURVE",
"68 -158 OFFCURVE",
"97 -141 CURVE SMOOTH",
"162 -105 OFFCURVE",
"222 -34 OFFCURVE",
"279 71 CURVE SMOOTH",
"322 152 OFFCURVE",
"356 240 OFFCURVE",
"383 337 CURVE",
"417 365 OFFCURVE",
"434 390 OFFCURVE",
"434 413 CURVE SMOOTH",
"434 420 OFFCURVE",
"431 423 OFFCURVE",
"426 423 CURVE SMOOTH",
"419 423 OFFCURVE",
"411 419 OFFCURVE",
"402 411 CURVE",
"412 459 OFFCURVE",
"419 505 OFFCURVE",
"423 548 CURVE",
"507 569 LINE",
"472 450 OFFCURVE",
"445 360 OFFCURVE",
"428 300 CURVE SMOOTH",
"391 174 OFFCURVE",
"356 84 OFFCURVE",
"325 29 CURVE SMOOTH",
"276 -57 OFFCURVE",
"208 -123 OFFCURVE",
"121 -169 CURVE SMOOTH",
"81 -190 OFFCURVE",
"39 -201 OFFCURVE",
"-4 -201 CURVE SMOOTH",
"-75 -201 OFFCURVE",
"-124 -174 OFFCURVE",
"-152 -119 CURVE",
"-167 -80 LINE",
"-168 -75 OFFCURVE",
"-170 -72 OFFCURVE",
"-172 -72 CURVE SMOOTH",
"-175 -72 OFFCURVE",
"-176 -74 OFFCURVE",
"-176 -79 CURVE SMOOTH",
"-176 -121 OFFCURVE",
"-155 -159 OFFCURVE",
"-112 -193 CURVE SMOOTH",
"-72 -226 OFFCURVE",
"-30 -242 OFFCURVE",
"13 -242 CURVE SMOOTH",
"50 -242 OFFCURVE",
"84 -233 OFFCURVE",
"117 -216 CURVE SMOOTH",
"206 -168 OFFCURVE",
"282 -97 OFFCURVE",
"345 -4 CURVE SMOOTH",
"394 69 OFFCURVE",
"439 164 OFFCURVE",
"480 281 CURVE SMOOTH",
"511 381 OFFCURVE",
"543 481 OFFCURVE",
"575 582 CURVE",
"695 603 LINE SMOOTH",
"727 610 OFFCURVE",
"743 623 OFFCURVE",
"743 644 CURVE SMOOTH",
"743 661 OFFCURVE",
"733 675 OFFCURVE",
"714 685 CURVE SMOOTH",
"698 693 OFFCURVE",
"680 697 OFFCURVE",
"661 697 CURVE SMOOTH",
"620 697 OFFCURVE",
"588 688 OFFCURVE",
"566 671 CURVE SMOOTH",
"548 656 OFFCURVE",
"531 627 OFFCURVE",
"514 586 CURVE",
"425 565 LINE",
"426 584 OFFCURVE",
"427 602 OFFCURVE",
"427 619 CURVE SMOOTH"
);
},
{
closed = 1;
nodes = (
"735 637 OFFCURVE",
"726 628 OFFCURVE",
"708 621 CURVE",
"654 609 OFFCURVE",
"613 601 OFFCURVE",
"584 598 CURVE",
"615 656 OFFCURVE",
"646 685 OFFCURVE",
"678 685 CURVE SMOOTH",
"716 685 OFFCURVE",
"735 673 OFFCURVE",
"735 650 CURVE SMOOTH"
);
}
);
};
layerId = "47CF47DF-B93A-4126-8606-39E7B9FB561A";
paths = (
{
closed = 1;
nodes = (
"50 -232 OFFCURVE",
"84 -223 OFFCURVE",
"117 -206 CURVE SMOOTH",
"206 -158 OFFCURVE",
"282 -87 OFFCURVE",
"345 6 CURVE SMOOTH",
"394 79 OFFCURVE",
"439 174 OFFCURVE",
"480 291 CURVE SMOOTH",
"511 391 OFFCURVE",
"543 491 OFFCURVE",
"575 592 CURVE",
"695 613 LINE SMOOTH",
"727 619 OFFCURVE",
"743 633 OFFCURVE",
"743 654 CURVE SMOOTH",
"743 671 OFFCURVE",
"733 685 OFFCURVE",
"714 695 CURVE SMOOTH",
"698 703 OFFCURVE",
"680 707 OFFCURVE",
"661 707 CURVE SMOOTH",
"620 707 OFFCURVE",
"588 698 OFFCURVE",
"566 681 CURVE SMOOTH",
"548 666 OFFCURVE",
"531 637 OFFCURVE",
"514 596 CURVE",
"425 575 LINE",
"426 594 OFFCURVE",
"427 612 OFFCURVE",
"427 629 CURVE SMOOTH",
"427 666 OFFCURVE",
"425 686 OFFCURVE",
"421 687 CURVE",
"417 686 OFFCURVE",
"415 684 OFFCURVE",
"415 680 CURVE SMOOTH",
"415 638 OFFCURVE",
"413 602 OFFCURVE",
"410 571 CURVE",
"145 499 OFFCURVE",
"12 386 OFFCURVE",
"12 233 CURVE SMOOTH",
"12 187 OFFCURVE",
"31 151 OFFCURVE",
"68 125 CURVE SMOOTH",
"101 102 OFFCURVE",
"142 91 OFFCURVE",
"190 91 CURVE SMOOTH",
"223 91 OFFCURVE",
"239 95 OFFCURVE",
"239 102 CURVE SMOOTH",
"239 103 OFFCURVE",
"238 104 OFFCURVE",
"235 104 CURVE SMOOTH",
"227 104 OFFCURVE",
"208 101 OFFCURVE",
"201 101 CURVE SMOOTH",
"157 101 OFFCURVE",
"122 112 OFFCURVE",
"95 134 CURVE SMOOTH",
"65 157 OFFCURVE",
"50 190 OFFCURVE",
"50 233 CURVE SMOOTH",
"50 376 OFFCURVE",
"169 483 OFFCURVE",
"408 554 CURVE",
"403 509 OFFCURVE",
"395 464 OFFCURVE",
"384 417 CURVE",
"378 432 OFFCURVE",
"371 439 OFFCURVE",
"363 439 CURVE SMOOTH",
"349 439 OFFCURVE",
"342 426 OFFCURVE",
"342 399 CURVE SMOOTH",
"342 377 OFFCURVE",
"349 357 OFFCURVE",
"364 339 CURVE",
"336 244 OFFCURVE",
"301 157 OFFCURVE",
"258 78 CURVE SMOOTH",
"200 -29 OFFCURVE",
"139 -97 OFFCURVE",
"76 -127 CURVE SMOOTH",
"63 -133 OFFCURVE",
"46 -138 OFFCURVE",
"23 -142 CURVE SMOOTH",
"18 -143 OFFCURVE",
"15 -146 OFFCURVE",
"15 -149 CURVE SMOOTH",
"15 -154 OFFCURVE",
"18 -156 OFFCURVE",
"24 -156 CURVE SMOOTH",
"44 -156 OFFCURVE",
"68 -148 OFFCURVE",
"97 -131 CURVE SMOOTH",
"162 -95 OFFCURVE",
"222 -24 OFFCURVE",
"279 81 CURVE SMOOTH",
"322 162 OFFCURVE",
"356 250 OFFCURVE",
"383 347 CURVE",
"417 375 OFFCURVE",
"434 400 OFFCURVE",
"434 423 CURVE SMOOTH",
"434 430 OFFCURVE",
"431 433 OFFCURVE",
"426 433 CURVE SMOOTH",
"419 433 OFFCURVE",
"411 429 OFFCURVE",
"402 421 CURVE",
"412 469 OFFCURVE",
"419 515 OFFCURVE",
"423 558 CURVE",
"507 579 LINE",
"472 460 OFFCURVE",
"445 370 OFFCURVE",
"428 310 CURVE SMOOTH",
"391 184 OFFCURVE",
"356 94 OFFCURVE",
"325 39 CURVE SMOOTH",
"276 -47 OFFCURVE",
"208 -113 OFFCURVE",
"121 -159 CURVE SMOOTH",
"81 -180 OFFCURVE",
"39 -191 OFFCURVE",
"-4 -191 CURVE SMOOTH",
"-75 -191 OFFCURVE",
"-124 -164 OFFCURVE",
"-152 -109 CURVE",
"-167 -70 LINE",
"-168 -65 OFFCURVE",
"-170 -62 OFFCURVE",
"-172 -62 CURVE SMOOTH",
"-175 -62 OFFCURVE",
"-176 -64 OFFCURVE",
"-176 -69 CURVE SMOOTH",
"-176 -111 OFFCURVE",
"-155 -149 OFFCURVE",
"-112 -183 CURVE SMOOTH",
"-72 -216 OFFCURVE",
"-30 -232 OFFCURVE",
"13 -232 CURVE SMOOTH"
);
},
{
closed = 1;
nodes = (
"615 666 OFFCURVE",
"646 695 OFFCURVE",
"678 695 CURVE SMOOTH",
"716 695 OFFCURVE",
"735 683 OFFCURVE",
"735 660 CURVE SMOOTH",
"735 647 OFFCURVE",
"726 638 OFFCURVE",
"708 631 CURVE",
"654 619 OFFCURVE",
"613 611 OFFCURVE",
"584 608 CURVE"
);
}
);
width = 503;
}
);
note = J;
unicode = 004A;
},
{
glyphname = K;
lastChange = "2021-11-23 05:59:21 +0000";
layers = (
{
anchors = (
{
name = bottom;
position = "{539, -112}";
},
{
name = top;
position = "{833, 650}";
}
);
background = {
paths = (
{
closed = 1;
nodes = (
"701 601 OFFCURVE",
"700 606 OFFCURVE",
"698 607 CURVE SMOOTH",
"691 612 OFFCURVE",
"671 615 OFFCURVE",
"639 615 CURVE SMOOTH",
"551 615 OFFCURVE",
"464 599 OFFCURVE",
"378 568 CURVE SMOOTH",
"301 540 OFFCURVE",
"263 510 OFFCURVE",
"263 479 CURVE SMOOTH",
"263 468 OFFCURVE",
"269 455 OFFCURVE",
"282 438 CURVE SMOOTH",
"295 422 OFFCURVE",
"306 414 OFFCURVE",
"314 414 CURVE SMOOTH",
"316 414 OFFCURVE",
"317 415 OFFCURVE",
"317 416 CURVE",
"317 416 OFFCURVE",
"296 440 OFFCURVE",
"296 463 CURVE SMOOTH",
"296 506 OFFCURVE",
"341 541 OFFCURVE",
"432 568 CURVE SMOOTH",
"499 587 OFFCURVE",
"563 597 OFFCURVE",
"622 597 CURVE SMOOTH",
"630 597 OFFCURVE",
"638 597 OFFCURVE",
"646 596 CURVE",
"623 485 OFFCURVE",
"591 381 OFFCURVE",
"550 284 CURVE",
"513 326 OFFCURVE",
"486 347 OFFCURVE",
"469 347 CURVE SMOOTH",
"463 347 OFFCURVE",
"459 345 OFFCURVE",
"456 342 CURVE",
"459 339 OFFCURVE",
"461 336 OFFCURVE",
"464 335 CURVE",
"495 316 OFFCURVE",
"521 294 OFFCURVE",
"543 269 CURVE",
"506 184 OFFCURVE",
"464 107 OFFCURVE",
"417 40 CURVE SMOOTH",
"352 -55 OFFCURVE",
"290 -112 OFFCURVE",
"232 -129 CURVE SMOOTH",
"209 -136 OFFCURVE",
"188 -139 OFFCURVE",
"168 -139 CURVE SMOOTH",
"125 -139 OFFCURVE",
"92 -123 OFFCURVE",
"69 -92 CURVE SMOOTH",
"48 -64 OFFCURVE",
"38 -28 OFFCURVE",
"38 16 CURVE SMOOTH",
"38 67 OFFCURVE",
"52 115 OFFCURVE",
"79 158 CURVE SMOOTH",
"110 208 OFFCURVE",
"150 233 OFFCURVE",
"199 233 CURVE SMOOTH",
"220 233 OFFCURVE",
"235 227 OFFCURVE",
"242 215 CURVE SMOOTH",
"252 195 LINE",
"254 196 OFFCURVE",
"255 198 OFFCURVE",
"255 202 CURVE SMOOTH",
"255 231 OFFCURVE",
"220 252 OFFCURVE",
"188 252 CURVE SMOOTH",
"132 252 OFFCURVE",
"86 229 OFFCURVE",
"51 182 CURVE SMOOTH",
"18 139 OFFCURVE",
"2 89 OFFCURVE",
"2 32 CURVE SMOOTH",
"2 -76 OFFCURVE",
"67 -151 OFFCURVE",
"172 -151 CURVE SMOOTH",
"323 -151 OFFCURVE",
"459 -27 OFFCURVE",
"579 220 CURVE",
"586 208 OFFCURVE",
"594 195 OFFCURVE",
"601 180 CURVE",
"570 120 OFFCURVE",
"550 81 OFFCURVE",
"539 64 CURVE SMOOTH",
"508 13 OFFCURVE",
"481 -20 OFFCURVE",
"457 -34 CURVE SMOOTH",
"448 -39 OFFCURVE",
"436 -43 OFFCURVE",
"421 -45 CURVE SMOOTH",
"418 -45 OFFCURVE",
"416 -47 OFFCURVE",
"416 -50 CURVE SMOOTH",
"416 -57 OFFCURVE",
"421 -61 OFFCURVE",
"432 -61 CURVE SMOOTH",
"462 -61 OFFCURVE",
"505 -11 OFFCURVE",
"562 89 CURVE SMOOTH",
"607 170 LINE",
"635 115 OFFCURVE",
"663 59 OFFCURVE",
"690 3 CURVE",
"723 -54 OFFCURVE",
"762 -103 OFFCURVE",
"808 -142 CURVE SMOOTH",
"859 -186 OFFCURVE",
"908 -208 OFFCURVE",
"954 -208 CURVE SMOOTH",
"1018 -208 OFFCURVE",
"1060 -160 OFFCURVE",
"1060 -95 CURVE SMOOTH",
"1060 -50 OFFCURVE",
"1044 -8 OFFCURVE",
"1011 30 CURVE SMOOTH",
"1007 35 OFFCURVE",
"1003 37 OFFCURVE",
"1000 37 CURVE SMOOTH",
"998 37 OFFCURVE",
"997 36 OFFCURVE",
"997 34 CURVE SMOOTH",
"997 33 OFFCURVE",
"998 31 OFFCURVE",
"1000 28 CURVE SMOOTH",
"1029 -12 OFFCURVE",
"1043 -54 OFFCURVE",
"1043 -99 CURVE SMOOTH",
"1043 -150 OFFCURVE",
"1024 -175 OFFCURVE",
"986 -175 CURVE SMOOTH",
"962 -175 OFFCURVE",
"932 -163 OFFCURVE",
"897 -139 CURVE SMOOTH",
"862 -115 OFFCURVE",
"814 -63 OFFCURVE",
"752 17 CURVE SMOOTH",
"621 195 LINE",
"663 269 OFFCURVE",
"701 329 OFFCURVE",
"734 374 CURVE",
"749 376 OFFCURVE",
"765 383 OFFCURVE",
"782 394 CURVE SMOOTH",
"800 405 OFFCURVE",
"809 417 OFFCURVE",
"809 430 CURVE SMOOTH",
"809 439 OFFCURVE",
"803 444 OFFCURVE",
"790 444 CURVE",
"875 537 OFFCURVE",
"963 583 OFFCURVE",
"1054 583 CURVE SMOOTH",
"1104 583 OFFCURVE",
"1147 569 OFFCURVE",
"1182 542 CURVE SMOOTH",
"1220 512 OFFCURVE",
"1239 473 OFFCURVE",
"1239 424 CURVE SMOOTH",
"1239 412 OFFCURVE",
"1240 406 OFFCURVE",
"1242 406 CURVE SMOOTH",
"1245 406 OFFCURVE",
"1247 413 OFFCURVE",
"1247 428 CURVE SMOOTH",
"1247 481 OFFCURVE",
"1230 527 OFFCURVE",
"1196 564 CURVE SMOOTH",
"1162 601 OFFCURVE",
"1119 620 OFFCURVE",
"1066 620 CURVE SMOOTH",
"956 620 OFFCURVE",
"854 561 OFFCURVE",
"760 443 CURVE",
"756 469 OFFCURVE",
"748 482 OFFCURVE",
"737 482 CURVE SMOOTH",
"720 482 OFFCURVE",
"712 466 OFFCURVE",
"712 433 CURVE SMOOTH",
"712 419 OFFCURVE",
"715 404 OFFCURVE",
"720 389 CURVE",
"690 344 OFFCURVE",
"655 283 OFFCURVE",
"614 204 CURVE",
"605 217 OFFCURVE",
"596 228 OFFCURVE",
"587 239 CURVE",
"611 290 OFFCURVE",
"634 348 OFFCURVE",
"657 413 CURVE SMOOTH",
"686 497 OFFCURVE",
"701 557 OFFCURVE",
"701 594 CURVE SMOOTH"
);
}
);
};
layerId = "47CF47DF-B93A-4126-8606-39E7B9FB561A";
paths = (
{
closed = 1;
nodes = (
"1018 -198 OFFCURVE",
"1060 -150 OFFCURVE",
"1060 -85 CURVE SMOOTH",
"1060 -40 OFFCURVE",
"1044 2 OFFCURVE",
"1011 40 CURVE SMOOTH",
"1007 45 OFFCURVE",
"1003 47 OFFCURVE",
"1000 47 CURVE SMOOTH",
"998 47 OFFCURVE",
"997 46 OFFCURVE",
"997 44 CURVE SMOOTH",
"997 43 OFFCURVE",
"998 41 OFFCURVE",
"1000 38 CURVE SMOOTH",
"1029 -2 OFFCURVE",
"1043 -44 OFFCURVE",
"1043 -89 CURVE SMOOTH",
"1043 -140 OFFCURVE",
"1024 -165 OFFCURVE",
"986 -165 CURVE SMOOTH",
"962 -165 OFFCURVE",
"932 -153 OFFCURVE",
"897 -129 CURVE SMOOTH",
"862 -105 OFFCURVE",
"812 -55 OFFCURVE",
"752 27 CURVE SMOOTH",
"621 205 LINE",
"663 279 OFFCURVE",
"701 339 OFFCURVE",
"734 384 CURVE",
"749 386 OFFCURVE",
"765 393 OFFCURVE",
"782 404 CURVE SMOOTH",
"800 415 OFFCURVE",
"809 427 OFFCURVE",
"809 440 CURVE SMOOTH",
"809 449 OFFCURVE",
"803 454 OFFCURVE",
"790 454 CURVE",
"875 547 OFFCURVE",
"963 593 OFFCURVE",
"1054 593 CURVE SMOOTH",
"1104 593 OFFCURVE",
"1147 579 OFFCURVE",
"1182 552 CURVE SMOOTH",
"1220 522 OFFCURVE",
"1239 483 OFFCURVE",
"1239 434 CURVE SMOOTH",
"1239 422 OFFCURVE",
"1240 416 OFFCURVE",
"1242 416 CURVE SMOOTH",
"1245 416 OFFCURVE",
"1247 423 OFFCURVE",
"1247 438 CURVE SMOOTH",
"1247 491 OFFCURVE",
"1230 537 OFFCURVE",
"1196 574 CURVE SMOOTH",
"1162 611 OFFCURVE",
"1119 630 OFFCURVE",
"1066 630 CURVE SMOOTH",
"956 630 OFFCURVE",
"854 571 OFFCURVE",
"760 453 CURVE",
"756 479 OFFCURVE",
"748 492 OFFCURVE",
"737 492 CURVE SMOOTH",
"720 492 OFFCURVE",
"712 476 OFFCURVE",
"712 443 CURVE SMOOTH",
"712 429 OFFCURVE",
"715 414 OFFCURVE",
"720 399 CURVE",
"690 354 OFFCURVE",
"655 293 OFFCURVE",
"614 214 CURVE",
"605 227 OFFCURVE",
"596 238 OFFCURVE",
"587 249 CURVE",
"611 300 OFFCURVE",
"634 358 OFFCURVE",
"657 423 CURVE SMOOTH",
"686 507 OFFCURVE",
"701 567 OFFCURVE",
"701 604 CURVE SMOOTH",
"701 611 OFFCURVE",
"700 616 OFFCURVE",
"698 617 CURVE SMOOTH",
"691 622 OFFCURVE",
"671 625 OFFCURVE",
"639 625 CURVE SMOOTH",
"551 625 OFFCURVE",
"464 609 OFFCURVE",
"378 578 CURVE SMOOTH",
"301 550 OFFCURVE",
"263 520 OFFCURVE",
"263 489 CURVE SMOOTH",
"263 478 OFFCURVE",
"269 465 OFFCURVE",
"282 448 CURVE SMOOTH",
"295 432 OFFCURVE",
"306 424 OFFCURVE",
"314 424 CURVE SMOOTH",
"316 424 OFFCURVE",
"317 425 OFFCURVE",
"317 426 CURVE",
"317 426 OFFCURVE",
"296 450 OFFCURVE",
"296 473 CURVE SMOOTH",
"296 516 OFFCURVE",
"341 551 OFFCURVE",
"432 578 CURVE SMOOTH",
"499 597 OFFCURVE",
"563 607 OFFCURVE",
"622 607 CURVE SMOOTH",
"630 607 OFFCURVE",
"638 607 OFFCURVE",
"646 606 CURVE",
"623 495 OFFCURVE",
"591 391 OFFCURVE",
"550 294 CURVE",
"513 336 OFFCURVE",
"486 357 OFFCURVE",
"469 357 CURVE SMOOTH",
"463 357 OFFCURVE",
"459 355 OFFCURVE",
"456 352 CURVE",
"459 349 OFFCURVE",
"461 346 OFFCURVE",
"464 345 CURVE",
"495 326 OFFCURVE",
"521 304 OFFCURVE",
"543 279 CURVE",
"506 194 OFFCURVE",
"464 117 OFFCURVE",
"417 50 CURVE SMOOTH",
"352 -45 OFFCURVE",
"290 -102 OFFCURVE",
"232 -119 CURVE SMOOTH",
"209 -126 OFFCURVE",
"188 -129 OFFCURVE",
"168 -129 CURVE SMOOTH",
"125 -129 OFFCURVE",
"92 -113 OFFCURVE",
"69 -82 CURVE SMOOTH",
"48 -54 OFFCURVE",
"38 -18 OFFCURVE",
"38 26 CURVE SMOOTH",
"38 77 OFFCURVE",
"52 125 OFFCURVE",
"79 168 CURVE SMOOTH",
"110 218 OFFCURVE",
"150 243 OFFCURVE",
"199 243 CURVE SMOOTH",
"220 243 OFFCURVE",
"236 237 OFFCURVE",
"242 225 CURVE SMOOTH",
"252 205 LINE",
"254 206 OFFCURVE",
"255 208 OFFCURVE",
"255 212 CURVE SMOOTH",
"255 241 OFFCURVE",
"220 262 OFFCURVE",
"188 262 CURVE SMOOTH",
"132 262 OFFCURVE",
"86 239 OFFCURVE",
"51 192 CURVE SMOOTH",
"18 149 OFFCURVE",
"2 99 OFFCURVE",
"2 42 CURVE SMOOTH",
"2 -66 OFFCURVE",
"67 -141 OFFCURVE",
"172 -141 CURVE SMOOTH",
"323 -141 OFFCURVE",
"459 -17 OFFCURVE",
"579 230 CURVE",
"586 218 OFFCURVE",
"594 205 OFFCURVE",
"601 190 CURVE",
"570 130 OFFCURVE",
"550 91 OFFCURVE",
"539 74 CURVE SMOOTH",
"508 23 OFFCURVE",
"481 -10 OFFCURVE",
"457 -24 CURVE SMOOTH",
"448 -29 OFFCURVE",
"436 -33 OFFCURVE",
"421 -35 CURVE SMOOTH",
"418 -35 OFFCURVE",
"416 -37 OFFCURVE",
"416 -40 CURVE SMOOTH",
"416 -47 OFFCURVE",
"421 -51 OFFCURVE",
"432 -51 CURVE SMOOTH",
"462 -51 OFFCURVE",
"506 -2 OFFCURVE",
"562 99 CURVE SMOOTH",
"607 180 LINE",
"635 125 OFFCURVE",
"663 69 OFFCURVE",
"690 13 CURVE",
"723 -44 OFFCURVE",
"762 -93 OFFCURVE",
"808 -132 CURVE SMOOTH",
"859 -176 OFFCURVE",
"908 -198 OFFCURVE",
"954 -198 CURVE SMOOTH"
);
}
);
width = 830;
}
);
note = K;
unicode = 004B;
},
{
glyphname = L;
lastChange = "2021-11-23 05:59:21 +0000";
layers = (
{
anchors = (
{
name = bottom;
position = "{539, -105}";
},
{
name = center;
position = "{292, 350}";
},
{
name = top;
position = "{804, 650}";
},
{
name = topright;
position = "{982, 651}";
}
);
background = {
paths = (
{
closed = 1;
nodes = (
"1012 -67 OFFCURVE",
"1007 -51 OFFCURVE",
"996 -32 CURVE SMOOTH",
"986 -13 OFFCURVE",
"975 -1 OFFCURVE",
"964 5 CURVE",
"988 -32 OFFCURVE",
"1000 -63 OFFCURVE",
"1000 -88 CURVE SMOOTH",
"1000 -128 OFFCURVE",
"966 -148 OFFCURVE",
"897 -148 CURVE SMOOTH",
"828 -148 OFFCURVE",
"737 -127 OFFCURVE",
"622 -85 CURVE SMOOTH",
"352 20 LINE",
"374 51 OFFCURVE",
"398 86 OFFCURVE",
"423 125 CURVE SMOOTH",
"450 168 LINE",
"468 177 OFFCURVE",
"482 183 OFFCURVE",
"492 187 CURVE SMOOTH",
"516 198 OFFCURVE",
"539 210 OFFCURVE",
"560 221 CURVE SMOOTH",
"789 338 OFFCURVE",
"903 449 OFFCURVE",
"903 554 CURVE SMOOTH",
"903 605 OFFCURVE",
"871 643 OFFCURVE",
"822 643 CURVE SMOOTH",
"702 643 OFFCURVE",
"593 531 OFFCURVE",
"494 306 CURVE SMOOTH",
"467 239 LINE SMOOTH",
"453 204 OFFCURVE",
"443 183 OFFCURVE",
"437 176 CURVE",
"422 170 OFFCURVE",
"410 167 OFFCURVE",
"401 168 CURVE SMOOTH",
"398 168 LINE",
"411 194 OFFCURVE",
"425 227 OFFCURVE",
"440 267 CURVE",
"477 302 OFFCURVE",
"495 329 OFFCURVE",
"495 348 CURVE SMOOTH",
"495 357 OFFCURVE",
"492 361 OFFCURVE",
"487 361 CURVE SMOOTH",
"482 361 OFFCURVE",
"475 358 OFFCURVE",
"466 353 CURVE",
"487 438 OFFCURVE",
"497 519 OFFCURVE",
"497 594 CURVE SMOOTH",
"497 622 OFFCURVE",
"495 644 OFFCURVE",
"490 659 CURVE",
"487 661 LINE",
"486 661 OFFCURVE",
"485 659 OFFCURVE",
"485 655 CURVE SMOOTH",
"485 648 LINE",
"486 645 OFFCURVE",
"486 643 OFFCURVE",
"486 641 CURVE SMOOTH",
"486 596 OFFCURVE",
"483 545 OFFCURVE",
"478 490 CURVE SMOOTH",
"471 421 OFFCURVE",
"461 373 OFFCURVE",
"450 345 CURVE",
"439 366 OFFCURVE",
"429 376 OFFCURVE",
"419 376 CURVE SMOOTH",
"412 376 OFFCURVE",
"408 367 OFFCURVE",
"408 348 CURVE SMOOTH",
"408 336 OFFCURVE",
"411 320 OFFCURVE",
"418 301 CURVE SMOOTH",
"425 282 OFFCURVE",
"429 272 OFFCURVE",
"429 272 CURVE",
"429 263 OFFCURVE",
"413 227 OFFCURVE",
"381 165 CURVE",
"323 165 OFFCURVE",
"270 179 OFFCURVE",
"221 208 CURVE SMOOTH",
"163 241 OFFCURVE",
"134 285 OFFCURVE",
"134 339 CURVE SMOOTH",
"134 388 OFFCURVE",
"156 420 OFFCURVE",
"200 436 CURVE",
"201 437 OFFCURVE",
"201 438 OFFCURVE",
"201 439 CURVE SMOOTH",
"201 441 OFFCURVE",
"200 442 OFFCURVE",
"198 442 CURVE SMOOTH",
"196 442 OFFCURVE",
"193 441 OFFCURVE",
"190 439 CURVE SMOOTH",
"131 408 OFFCURVE",
"101 364 OFFCURVE",
"101 308 CURVE SMOOTH",
"101 201 OFFCURVE",
"192 148 OFFCURVE",
"373 148 CURVE",
"358 115 OFFCURVE",
"334 78 OFFCURVE",
"302 35 CURVE",
"224 60 OFFCURVE",
"161 72 OFFCURVE",
"114 72 CURVE SMOOTH",
"72 72 OFFCURVE",
"35 64 OFFCURVE",
"4 47 CURVE SMOOTH",
"-35 27 OFFCURVE",
"-54 -2 OFFCURVE",
"-54 -40 CURVE SMOOTH",
"-54 -68 OFFCURVE",
"-39 -92 OFFCURVE",
"-9 -113 CURVE SMOOTH",
"18 -132 OFFCURVE",
"47 -142 OFFCURVE",
"76 -142 CURVE SMOOTH",
"130 -142 OFFCURVE",
"179 -128 OFFCURVE",
"224 -99 CURVE SMOOTH",
"257 -78 OFFCURVE",
"296 -43 OFFCURVE",
"339 6 CURVE",
"368 -6 OFFCURVE",
"419 -32 OFFCURVE",
"493 -73 CURVE SMOOTH",
"568 -114 OFFCURVE",
"625 -143 OFFCURVE",
"665 -160 CURVE SMOOTH",
"729 -187 OFFCURVE",
"783 -200 OFFCURVE",
"826 -200 CURVE SMOOTH",
"867 -200 OFFCURVE",
"906 -190 OFFCURVE",
"944 -170 CURVE SMOOTH",
"989 -147 OFFCURVE",
"1012 -117 OFFCURVE",
"1012 -80 CURVE SMOOTH"
);
},
{
closed = 1;
nodes = (
"892 513 OFFCURVE",
"833 439 OFFCURVE",
"716 344 CURVE SMOOTH",
"611 259 OFFCURVE",
"525 206 OFFCURVE",
"459 183 CURVE",
"494 238 OFFCURVE",
"520 282 OFFCURVE",
"537 313 CURVE SMOOTH",
"656 513 OFFCURVE",
"753 613 OFFCURVE",
"829 613 CURVE SMOOTH",
"861 613 OFFCURVE",
"892 599 OFFCURVE",
"892 568 CURVE SMOOTH"
);
},
{
closed = 1;
nodes = (
"379 82 OFFCURVE",
"348 36 OFFCURVE",
"336 23 CURVE",
"315 30 LINE",
"392 152 LINE",
"415 157 OFFCURVE",
"428 160 OFFCURVE",
"429 161 CURVE"
);
},
{
closed = 1;
nodes = (
"306 -20 OFFCURVE",
"270 -48 OFFCURVE",
"218 -75 CURVE SMOOTH",
"166 -102 OFFCURVE",
"122 -115 OFFCURVE",
"86 -115 CURVE SMOOTH",
"57 -115 OFFCURVE",
"31 -107 OFFCURVE",
"8 -92 CURVE SMOOTH",
"-19 -74 OFFCURVE",
"-33 -52 OFFCURVE",
"-33 -25 CURVE SMOOTH",
"-33 5 OFFCURVE",
"-15 28 OFFCURVE",
"21 45 CURVE SMOOTH",
"49 58 OFFCURVE",
"80 64 OFFCURVE",
"115 64 CURVE SMOOTH",
"152 64 OFFCURVE",
"211 51 OFFCURVE",
"292 25 CURVE",
"283 10 OFFCURVE",
"268 -5 OFFCURVE",
"249 -22 CURVE SMOOTH",
"233 -35 OFFCURVE",
"217 -49 OFFCURVE",
"200 -62 CURVE",
"231 -51 OFFCURVE",
"259 -32 OFFCURVE",
"286 -4 CURVE SMOOTH",
"306 19 LINE",
"312 17 OFFCURVE",
"319 14 OFFCURVE",
"327 9 CURVE"
);
}
);
};
layerId = "47CF47DF-B93A-4126-8606-39E7B9FB561A";
paths = (
{
closed = 1;
nodes = (
"867 -190 OFFCURVE",
"906 -180 OFFCURVE",
"944 -160 CURVE SMOOTH",
"989 -137 OFFCURVE",
"1012 -107 OFFCURVE",
"1012 -70 CURVE SMOOTH",
"1012 -57 OFFCURVE",
"1007 -41 OFFCURVE",
"996 -22 CURVE SMOOTH",
"986 -3 OFFCURVE",
"975 9 OFFCURVE",
"964 15 CURVE",
"988 -22 OFFCURVE",
"1000 -53 OFFCURVE",
"1000 -78 CURVE SMOOTH",
"1000 -118 OFFCURVE",
"966 -138 OFFCURVE",
"897 -138 CURVE SMOOTH",
"828 -138 OFFCURVE",
"736 -119 OFFCURVE",
"622 -75 CURVE SMOOTH",
"352 30 LINE",
"374 61 OFFCURVE",
"398 96 OFFCURVE",
"423 135 CURVE SMOOTH",
"450 178 LINE",
"468 187 OFFCURVE",
"482 193 OFFCURVE",
"492 197 CURVE SMOOTH",
"516 208 OFFCURVE",
"539 220 OFFCURVE",
"560 231 CURVE SMOOTH",
"789 348 OFFCURVE",
"903 459 OFFCURVE",
"903 564 CURVE SMOOTH",
"903 615 OFFCURVE",
"871 653 OFFCURVE",
"822 653 CURVE SMOOTH",
"702 653 OFFCURVE",
"586 544 OFFCURVE",
"494 316 CURVE SMOOTH",
"467 249 LINE SMOOTH",
"453 214 OFFCURVE",
"443 193 OFFCURVE",
"437 186 CURVE",
"422 180 OFFCURVE",
"410 178 OFFCURVE",
"401 178 CURVE SMOOTH",
"398 178 LINE",
"411 204 OFFCURVE",
"425 237 OFFCURVE",
"440 277 CURVE",
"477 312 OFFCURVE",
"495 339 OFFCURVE",
"495 358 CURVE SMOOTH",
"495 367 OFFCURVE",
"492 371 OFFCURVE",
"487 371 CURVE SMOOTH",
"482 371 OFFCURVE",
"475 368 OFFCURVE",
"466 363 CURVE",
"487 448 OFFCURVE",
"497 529 OFFCURVE",
"497 604 CURVE SMOOTH",
"497 632 OFFCURVE",
"495 654 OFFCURVE",
"490 669 CURVE",
"487 671 LINE",
"486 671 OFFCURVE",
"485 669 OFFCURVE",
"485 665 CURVE SMOOTH",
"485 658 LINE",
"486 655 OFFCURVE",
"486 653 OFFCURVE",
"486 651 CURVE SMOOTH",
"486 606 OFFCURVE",
"483 555 OFFCURVE",
"478 500 CURVE SMOOTH",
"471 431 OFFCURVE",
"461 383 OFFCURVE",
"450 355 CURVE",
"439 376 OFFCURVE",
"429 386 OFFCURVE",
"419 386 CURVE SMOOTH",
"412 386 OFFCURVE",
"408 377 OFFCURVE",
"408 358 CURVE SMOOTH",
"408 346 OFFCURVE",
"411 330 OFFCURVE",
"418 311 CURVE SMOOTH",
"425 292 OFFCURVE",
"429 282 OFFCURVE",
"429 282 CURVE",
"429 273 OFFCURVE",
"413 237 OFFCURVE",
"381 175 CURVE",
"323 175 OFFCURVE",
"270 189 OFFCURVE",
"221 218 CURVE SMOOTH",
"163 251 OFFCURVE",
"134 295 OFFCURVE",
"134 349 CURVE SMOOTH",
"134 398 OFFCURVE",
"156 430 OFFCURVE",
"200 446 CURVE",
"201 447 OFFCURVE",
"201 448 OFFCURVE",
"201 449 CURVE SMOOTH",
"201 451 OFFCURVE",
"200 452 OFFCURVE",
"198 452 CURVE SMOOTH",
"196 452 OFFCURVE",
"193 451 OFFCURVE",
"190 449 CURVE SMOOTH",
"131 418 OFFCURVE",
"101 374 OFFCURVE",
"101 318 CURVE SMOOTH",
"101 211 OFFCURVE",
"192 158 OFFCURVE",
"373 158 CURVE",
"358 125 OFFCURVE",
"334 88 OFFCURVE",
"302 45 CURVE",
"224 70 OFFCURVE",
"161 82 OFFCURVE",
"114 82 CURVE SMOOTH",
"72 82 OFFCURVE",
"35 74 OFFCURVE",
"4 57 CURVE SMOOTH",
"-35 37 OFFCURVE",
"-54 8 OFFCURVE",
"-54 -30 CURVE SMOOTH",
"-54 -58 OFFCURVE",
"-39 -82 OFFCURVE",
"-9 -103 CURVE SMOOTH",
"18 -122 OFFCURVE",
"47 -132 OFFCURVE",
"76 -132 CURVE SMOOTH",
"130 -132 OFFCURVE",
"179 -118 OFFCURVE",
"224 -89 CURVE SMOOTH",
"257 -68 OFFCURVE",
"296 -33 OFFCURVE",
"339 16 CURVE",
"368 4 OFFCURVE",
"419 -22 OFFCURVE",
"493 -63 CURVE SMOOTH",
"568 -104 OFFCURVE",
"625 -133 OFFCURVE",
"665 -150 CURVE SMOOTH",
"729 -177 OFFCURVE",
"783 -190 OFFCURVE",
"826 -190 CURVE SMOOTH"
);
},
{
closed = 1;
nodes = (
"57 -105 OFFCURVE",
"31 -97 OFFCURVE",
"8 -82 CURVE SMOOTH",
"-19 -64 OFFCURVE",
"-33 -42 OFFCURVE",
"-33 -15 CURVE SMOOTH",
"-33 15 OFFCURVE",
"-15 38 OFFCURVE",
"21 55 CURVE SMOOTH",
"49 68 OFFCURVE",
"80 74 OFFCURVE",
"115 74 CURVE SMOOTH",
"152 74 OFFCURVE",
"211 61 OFFCURVE",
"292 35 CURVE",
"283 20 OFFCURVE",
"268 5 OFFCURVE",
"249 -12 CURVE SMOOTH",
"233 -25 OFFCURVE",
"217 -39 OFFCURVE",
"200 -52 CURVE",
"231 -41 OFFCURVE",
"260 -23 OFFCURVE",
"286 6 CURVE SMOOTH",
"306 29 LINE",
"312 27 OFFCURVE",
"319 24 OFFCURVE",
"327 19 CURVE",
"306 -10 OFFCURVE",
"270 -38 OFFCURVE",
"218 -65 CURVE SMOOTH",
"166 -92 OFFCURVE",
"122 -105 OFFCURVE",
"86 -105 CURVE SMOOTH"
);
},
{
closed = 1;
nodes = (
"315 40 LINE",
"392 162 LINE",
"415 167 OFFCURVE",
"428 170 OFFCURVE",
"429 171 CURVE",
"379 92 OFFCURVE",
"348 46 OFFCURVE",
"336 33 CURVE"
);
},
{
closed = 1;
nodes = (
"494 248 OFFCURVE",
"520 292 OFFCURVE",
"537 323 CURVE SMOOTH",
"656 523 OFFCURVE",
"753 623 OFFCURVE",
"829 623 CURVE SMOOTH",
"861 623 OFFCURVE",
"892 609 OFFCURVE",
"892 578 CURVE SMOOTH",
"892 523 OFFCURVE",
"833 449 OFFCURVE",
"716 354 CURVE SMOOTH",
"611 269 OFFCURVE",
"525 216 OFFCURVE",
"459 193 CURVE"
);
}
);
width = 584;
}
);
note = L;
unicode = 004C;
},
{
glyphname = LJ;
lastChange = "2021-11-23 05:59:21 +0000";
layers = (
{
background = {
paths = (
{
closed = 1;
nodes = (
"1499 693 OFFCURVE",
"1481 697 OFFCURVE",
"1462 697 CURVE SMOOTH",
"1421 697 OFFCURVE",
"1389 688 OFFCURVE",
"1367 671 CURVE SMOOTH",
"1349 656 OFFCURVE",
"1332 627 OFFCURVE",
"1315 586 CURVE",
"1226 565 LINE",
"1227 584 OFFCURVE",
"1228 602 OFFCURVE",
"1228 619 CURVE SMOOTH",
"1228 656 OFFCURVE",
"1226 676 OFFCURVE",
"1222 677 CURVE",
"1218 676 OFFCURVE",
"1216 674 OFFCURVE",
"1216 670 CURVE SMOOTH",
"1216 628 OFFCURVE",
"1214 592 OFFCURVE",
"1211 561 CURVE",
"946 489 OFFCURVE",
"813 376 OFFCURVE",
"813 223 CURVE SMOOTH",
"813 177 OFFCURVE",
"832 141 OFFCURVE",
"869 115 CURVE SMOOTH",
"902 92 OFFCURVE",
"943 81 OFFCURVE",
"991 81 CURVE SMOOTH",
"1024 81 OFFCURVE",
"1040 85 OFFCURVE",
"1040 92 CURVE SMOOTH",
"1040 93 OFFCURVE",
"1039 94 OFFCURVE",
"1036 94 CURVE SMOOTH",
"1028 94 OFFCURVE",
"1009 91 OFFCURVE",
"1002 91 CURVE SMOOTH",
"958 91 OFFCURVE",
"923 102 OFFCURVE",
"896 124 CURVE SMOOTH",
"866 147 OFFCURVE",
"851 180 OFFCURVE",
"851 223 CURVE SMOOTH",
"851 366 OFFCURVE",
"970 473 OFFCURVE",
"1209 544 CURVE",
"1204 499 OFFCURVE",
"1196 454 OFFCURVE",
"1185 407 CURVE",
"1179 422 OFFCURVE",
"1172 429 OFFCURVE",
"1164 429 CURVE SMOOTH",
"1150 429 OFFCURVE",
"1143 416 OFFCURVE",
"1143 389 CURVE SMOOTH",
"1143 367 OFFCURVE",
"1150 347 OFFCURVE",
"1165 329 CURVE",
"1137 234 OFFCURVE",
"1102 147 OFFCURVE",
"1059 68 CURVE SMOOTH",
"1001 -39 OFFCURVE",
"940 -107 OFFCURVE",
"877 -137 CURVE SMOOTH",
"864 -143 OFFCURVE",
"847 -148 OFFCURVE",
"824 -152 CURVE SMOOTH",
"819 -153 OFFCURVE",
"816 -156 OFFCURVE",
"816 -159 CURVE SMOOTH",
"816 -164 OFFCURVE",
"819 -166 OFFCURVE",
"825 -166 CURVE SMOOTH",
"845 -166 OFFCURVE",
"869 -158 OFFCURVE",
"898 -141 CURVE SMOOTH",
"963 -105 OFFCURVE",
"1023 -34 OFFCURVE",
"1080 71 CURVE SMOOTH",
"1123 152 OFFCURVE",
"1157 240 OFFCURVE",
"1184 337 CURVE",
"1218 365 OFFCURVE",
"1235 390 OFFCURVE",
"1235 413 CURVE SMOOTH",
"1235 420 OFFCURVE",
"1232 423 OFFCURVE",
"1227 423 CURVE SMOOTH",
"1220 423 OFFCURVE",
"1212 419 OFFCURVE",
"1203 411 CURVE",
"1213 459 OFFCURVE",
"1220 505 OFFCURVE",
"1224 548 CURVE",
"1308 569 LINE",
"1273 450 OFFCURVE",
"1246 360 OFFCURVE",
"1229 300 CURVE SMOOTH",
"1192 174 OFFCURVE",
"1157 84 OFFCURVE",
"1126 29 CURVE SMOOTH",
"1077 -57 OFFCURVE",
"1009 -123 OFFCURVE",
"922 -169 CURVE SMOOTH",
"822 -221 OFFCURVE",
"735 -178 OFFCURVE",
"611 -114 CURVE SMOOTH",
"352 20 LINE",
"374 51 OFFCURVE",
"398 86 OFFCURVE",
"423 125 CURVE SMOOTH",
"450 168 LINE",
"468 177 OFFCURVE",
"482 183 OFFCURVE",
"492 187 CURVE SMOOTH",
"516 198 OFFCURVE",
"539 210 OFFCURVE",
"560 221 CURVE SMOOTH",
"789 338 OFFCURVE",
"903 449 OFFCURVE",
"903 554 CURVE SMOOTH",
"903 605 OFFCURVE",
"871 643 OFFCURVE",
"822 643 CURVE SMOOTH",
"702 643 OFFCURVE",
"586 534 OFFCURVE",
"494 306 CURVE SMOOTH",
"467 239 LINE SMOOTH",
"453 204 OFFCURVE",
"443 183 OFFCURVE",
"437 176 CURVE",
"422 170 OFFCURVE",
"410 168 OFFCURVE",
"401 168 CURVE SMOOTH",
"398 168 LINE",
"411 194 OFFCURVE",
"425 227 OFFCURVE",
"440 267 CURVE",
"477 302 OFFCURVE",
"495 329 OFFCURVE",
"495 348 CURVE SMOOTH",
"495 357 OFFCURVE",
"492 361 OFFCURVE",
"487 361 CURVE SMOOTH",
"482 361 OFFCURVE",
"475 358 OFFCURVE",
"466 353 CURVE",
"487 438 OFFCURVE",
"497 519 OFFCURVE",
"497 594 CURVE SMOOTH",
"497 622 OFFCURVE",
"495 644 OFFCURVE",
"490 659 CURVE",
"487 661 LINE",
"486 661 OFFCURVE",
"485 659 OFFCURVE",
"485 655 CURVE SMOOTH",
"485 648 LINE",
"486 645 OFFCURVE",
"486 643 OFFCURVE",
"486 641 CURVE SMOOTH",
"486 596 OFFCURVE",
"483 545 OFFCURVE",
"478 490 CURVE SMOOTH",
"471 421 OFFCURVE",
"461 373 OFFCURVE",
"450 345 CURVE",
"439 366 OFFCURVE",
"429 376 OFFCURVE",
"419 376 CURVE SMOOTH",
"412 376 OFFCURVE",
"408 367 OFFCURVE",
"408 348 CURVE SMOOTH",
"408 336 OFFCURVE",
"411 320 OFFCURVE",
"418 301 CURVE SMOOTH",
"429 272 LINE",
"429 263 OFFCURVE",
"413 227 OFFCURVE",
"381 165 CURVE",
"323 165 OFFCURVE",
"270 179 OFFCURVE",
"221 208 CURVE SMOOTH",
"163 241 OFFCURVE",
"134 285 OFFCURVE",
"134 339 CURVE SMOOTH",
"134 388 OFFCURVE",
"156 420 OFFCURVE",
"200 436 CURVE",
"201 437 OFFCURVE",
"201 438 OFFCURVE",
"201 439 CURVE SMOOTH",
"201 441 OFFCURVE",
"200 442 OFFCURVE",
"198 442 CURVE SMOOTH",
"196 442 OFFCURVE",
"193 441 OFFCURVE",
"190 439 CURVE SMOOTH",
"131 408 OFFCURVE",
"101 364 OFFCURVE",
"101 308 CURVE SMOOTH",
"101 201 OFFCURVE",
"192 148 OFFCURVE",
"373 148 CURVE",
"358 115 OFFCURVE",
"334 78 OFFCURVE",
"302 35 CURVE",
"224 60 OFFCURVE",
"161 72 OFFCURVE",
"114 72 CURVE SMOOTH",
"72 72 OFFCURVE",
"35 64 OFFCURVE",
"4 47 CURVE SMOOTH",
"-35 27 OFFCURVE",
"-54 -2 OFFCURVE",
"-54 -40 CURVE SMOOTH",
"-54 -68 OFFCURVE",
"-39 -92 OFFCURVE",
"-9 -113 CURVE SMOOTH",
"18 -132 OFFCURVE",
"47 -142 OFFCURVE",
"76 -142 CURVE SMOOTH",
"130 -142 OFFCURVE",
"179 -128 OFFCURVE",
"224 -99 CURVE SMOOTH",
"257 -78 OFFCURVE",
"296 -43 OFFCURVE",
"339 6 CURVE",
"488 -56 OFFCURVE",
"613 -242 OFFCURVE",
"814 -242 CURVE SMOOTH",
"969 -242 OFFCURVE",
"1067 -121 OFFCURVE",
"1146 -4 CURVE SMOOTH",
"1195 69 OFFCURVE",
"1240 164 OFFCURVE",
"1281 281 CURVE SMOOTH",
"1312 381 OFFCURVE",
"1344 481 OFFCURVE",
"1376 582 CURVE",
"1496 603 LINE SMOOTH",
"1528 609 OFFCURVE",
"1544 623 OFFCURVE",
"1544 644 CURVE SMOOTH",
"1544 661 OFFCURVE",
"1534 675 OFFCURVE",
"1515 685 CURVE SMOOTH"
);
},
{
closed = 1;
nodes = (
"1455 609 OFFCURVE",
"1414 601 OFFCURVE",
"1385 598 CURVE",
"1416 656 OFFCURVE",
"1447 685 OFFCURVE",
"1479 685 CURVE SMOOTH",
"1517 685 OFFCURVE",
"1536 673 OFFCURVE",
"1536 650 CURVE SMOOTH",
"1536 637 OFFCURVE",
"1527 628 OFFCURVE",
"1509 621 CURVE"
);
},
{
closed = 1;
nodes = (
"656 513 OFFCURVE",
"753 613 OFFCURVE",
"829 613 CURVE SMOOTH",
"861 613 OFFCURVE",
"892 599 OFFCURVE",
"892 568 CURVE SMOOTH",
"892 513 OFFCURVE",
"833 439 OFFCURVE",
"716 344 CURVE SMOOTH",
"611 259 OFFCURVE",
"525 206 OFFCURVE",
"459 183 CURVE",
"494 238 OFFCURVE",
"520 282 OFFCURVE",
"537 313 CURVE SMOOTH"
);
},
{
closed = 1;
nodes = (
"392 152 LINE",
"415 157 OFFCURVE",
"428 160 OFFCURVE",
"429 161 CURVE",
"379 82 OFFCURVE",
"348 36 OFFCURVE",
"336 23 CURVE",
"315 30 LINE"
);
},
{
closed = 1;
nodes = (
"166 -102 OFFCURVE",
"122 -115 OFFCURVE",
"86 -115 CURVE SMOOTH",
"57 -115 OFFCURVE",
"31 -107 OFFCURVE",
"8 -92 CURVE SMOOTH",
"-19 -74 OFFCURVE",
"-33 -52 OFFCURVE",
"-33 -25 CURVE SMOOTH",
"-33 5 OFFCURVE",
"-15 28 OFFCURVE",
"21 45 CURVE SMOOTH",
"49 58 OFFCURVE",
"80 64 OFFCURVE",
"115 64 CURVE SMOOTH",
"152 64 OFFCURVE",
"211 51 OFFCURVE",
"292 25 CURVE",
"283 10 OFFCURVE",
"268 -5 OFFCURVE",
"249 -22 CURVE SMOOTH",
"233 -35 OFFCURVE",
"217 -49 OFFCURVE",
"200 -62 CURVE",
"231 -51 OFFCURVE",
"260 -33 OFFCURVE",
"286 -4 CURVE SMOOTH",
"306 19 LINE",
"312 17 OFFCURVE",
"319 14 OFFCURVE",
"327 9 CURVE",
"306 -20 OFFCURVE",
"270 -48 OFFCURVE",
"218 -75 CURVE SMOOTH"
);
}
);
};
layerId = "47CF47DF-B93A-4126-8606-39E7B9FB561A";
paths = (
{
closed = 1;
nodes = (
"969 -232 OFFCURVE",
"1067 -111 OFFCURVE",
"1146 6 CURVE SMOOTH",
"1195 79 OFFCURVE",
"1240 174 OFFCURVE",
"1281 291 CURVE SMOOTH",
"1312 391 OFFCURVE",
"1344 491 OFFCURVE",
"1376 592 CURVE",
"1496 613 LINE SMOOTH",
"1528 619 OFFCURVE",
"1544 633 OFFCURVE",
"1544 654 CURVE SMOOTH",
"1544 671 OFFCURVE",
"1534 685 OFFCURVE",
"1515 695 CURVE SMOOTH",
"1499 703 OFFCURVE",
"1481 707 OFFCURVE",
"1462 707 CURVE SMOOTH",
"1421 707 OFFCURVE",
"1389 698 OFFCURVE",
"1367 681 CURVE SMOOTH",
"1349 666 OFFCURVE",
"1332 637 OFFCURVE",
"1315 596 CURVE",
"1226 575 LINE",
"1227 594 OFFCURVE",
"1228 612 OFFCURVE",
"1228 629 CURVE SMOOTH",
"1228 666 OFFCURVE",
"1226 686 OFFCURVE",
"1222 687 CURVE",
"1218 686 OFFCURVE",
"1216 684 OFFCURVE",
"1216 680 CURVE SMOOTH",
"1216 638 OFFCURVE",
"1214 602 OFFCURVE",
"1211 571 CURVE",
"946 499 OFFCURVE",
"813 386 OFFCURVE",
"813 233 CURVE SMOOTH",
"813 187 OFFCURVE",
"832 151 OFFCURVE",
"869 125 CURVE SMOOTH",
"902 102 OFFCURVE",
"943 91 OFFCURVE",
"991 91 CURVE SMOOTH",
"1024 91 OFFCURVE",
"1040 95 OFFCURVE",
"1040 102 CURVE SMOOTH",
"1040 103 OFFCURVE",
"1039 104 OFFCURVE",
"1036 104 CURVE SMOOTH",
"1028 104 OFFCURVE",
"1009 101 OFFCURVE",
"1002 101 CURVE SMOOTH",
"958 101 OFFCURVE",
"923 112 OFFCURVE",
"896 134 CURVE SMOOTH",
"866 157 OFFCURVE",
"851 190 OFFCURVE",
"851 233 CURVE SMOOTH",
"851 376 OFFCURVE",
"970 483 OFFCURVE",
"1209 554 CURVE",
"1204 509 OFFCURVE",
"1196 464 OFFCURVE",
"1185 417 CURVE",
"1179 432 OFFCURVE",
"1172 439 OFFCURVE",
"1164 439 CURVE SMOOTH",
"1150 439 OFFCURVE",
"1143 426 OFFCURVE",
"1143 399 CURVE SMOOTH",
"1143 377 OFFCURVE",
"1150 357 OFFCURVE",
"1165 339 CURVE",
"1137 244 OFFCURVE",
"1102 157 OFFCURVE",
"1059 78 CURVE SMOOTH",
"1001 -29 OFFCURVE",
"940 -97 OFFCURVE",
"877 -127 CURVE SMOOTH",
"864 -133 OFFCURVE",
"847 -138 OFFCURVE",
"824 -142 CURVE SMOOTH",
"819 -143 OFFCURVE",
"816 -146 OFFCURVE",
"816 -149 CURVE SMOOTH",
"816 -154 OFFCURVE",
"819 -156 OFFCURVE",
"825 -156 CURVE SMOOTH",
"845 -156 OFFCURVE",
"869 -148 OFFCURVE",
"898 -131 CURVE SMOOTH",
"963 -95 OFFCURVE",
"1023 -24 OFFCURVE",
"1080 81 CURVE SMOOTH",
"1123 162 OFFCURVE",
"1157 250 OFFCURVE",
"1184 347 CURVE",
"1218 375 OFFCURVE",
"1235 400 OFFCURVE",
"1235 423 CURVE SMOOTH",
"1235 430 OFFCURVE",
"1232 433 OFFCURVE",
"1227 433 CURVE SMOOTH",
"1220 433 OFFCURVE",
"1212 429 OFFCURVE",
"1203 421 CURVE",
"1213 469 OFFCURVE",
"1220 515 OFFCURVE",
"1224 558 CURVE",
"1308 579 LINE",
"1273 460 OFFCURVE",
"1246 370 OFFCURVE",
"1229 310 CURVE SMOOTH",
"1192 184 OFFCURVE",
"1157 94 OFFCURVE",
"1126 39 CURVE SMOOTH",
"1077 -47 OFFCURVE",
"1009 -113 OFFCURVE",
"922 -159 CURVE SMOOTH",
"822 -211 OFFCURVE",
"735 -168 OFFCURVE",
"611 -104 CURVE SMOOTH",
"352 30 LINE",
"374 61 OFFCURVE",
"398 96 OFFCURVE",
"423 135 CURVE SMOOTH",
"450 178 LINE",
"468 187 OFFCURVE",
"482 193 OFFCURVE",
"492 197 CURVE SMOOTH",
"516 208 OFFCURVE",
"539 220 OFFCURVE",
"560 231 CURVE SMOOTH",
"789 348 OFFCURVE",
"903 459 OFFCURVE",
"903 564 CURVE SMOOTH",
"903 615 OFFCURVE",
"871 653 OFFCURVE",
"822 653 CURVE SMOOTH",
"702 653 OFFCURVE",
"586 544 OFFCURVE",
"494 316 CURVE SMOOTH",
"467 249 LINE SMOOTH",
"453 214 OFFCURVE",
"443 193 OFFCURVE",
"437 186 CURVE",
"422 180 OFFCURVE",
"410 178 OFFCURVE",
"401 178 CURVE SMOOTH",
"398 178 LINE",
"411 204 OFFCURVE",
"425 237 OFFCURVE",
"440 277 CURVE",
"477 312 OFFCURVE",
"495 339 OFFCURVE",
"495 358 CURVE SMOOTH",
"495 367 OFFCURVE",
"492 371 OFFCURVE",
"487 371 CURVE SMOOTH",
"482 371 OFFCURVE",
"475 368 OFFCURVE",
"466 363 CURVE",
"487 448 OFFCURVE",
"497 529 OFFCURVE",
"497 604 CURVE SMOOTH",
"497 632 OFFCURVE",
"495 654 OFFCURVE",
"490 669 CURVE",
"487 671 LINE",
"486 671 OFFCURVE",
"485 669 OFFCURVE",
"485 665 CURVE SMOOTH",
"485 658 LINE",
"486 655 OFFCURVE",
"486 653 OFFCURVE",
"486 651 CURVE SMOOTH",
"486 606 OFFCURVE",
"483 555 OFFCURVE",
"478 500 CURVE SMOOTH",
"471 431 OFFCURVE",
"461 383 OFFCURVE",
"450 355 CURVE",
"439 376 OFFCURVE",
"429 386 OFFCURVE",
"419 386 CURVE SMOOTH",
"412 386 OFFCURVE",
"408 377 OFFCURVE",
"408 358 CURVE SMOOTH",
"408 346 OFFCURVE",
"411 330 OFFCURVE",
"418 311 CURVE SMOOTH",
"429 282 LINE",
"429 273 OFFCURVE",
"413 237 OFFCURVE",
"381 175 CURVE",
"323 175 OFFCURVE",
"270 189 OFFCURVE",
"221 218 CURVE SMOOTH",
"163 251 OFFCURVE",
"134 295 OFFCURVE",
"134 349 CURVE SMOOTH",
"134 398 OFFCURVE",
"156 430 OFFCURVE",
"200 446 CURVE",
"201 447 OFFCURVE",
"201 448 OFFCURVE",
"201 449 CURVE SMOOTH",
"201 451 OFFCURVE",
"200 452 OFFCURVE",
"198 452 CURVE SMOOTH",
"196 452 OFFCURVE",
"193 451 OFFCURVE",
"190 449 CURVE SMOOTH",
"131 418 OFFCURVE",
"101 374 OFFCURVE",
"101 318 CURVE SMOOTH",
"101 211 OFFCURVE",
"192 158 OFFCURVE",
"373 158 CURVE",
"358 125 OFFCURVE",
"334 88 OFFCURVE",
"302 45 CURVE",
"224 70 OFFCURVE",
"161 82 OFFCURVE",
"114 82 CURVE SMOOTH",
"72 82 OFFCURVE",
"35 74 OFFCURVE",
"4 57 CURVE SMOOTH",
"-35 37 OFFCURVE",
"-54 8 OFFCURVE",
"-54 -30 CURVE SMOOTH",
"-54 -58 OFFCURVE",
"-39 -82 OFFCURVE",
"-9 -103 CURVE SMOOTH",
"18 -122 OFFCURVE",
"47 -132 OFFCURVE",
"76 -132 CURVE SMOOTH",
"130 -132 OFFCURVE",
"179 -118 OFFCURVE",
"224 -89 CURVE SMOOTH",
"257 -68 OFFCURVE",
"296 -33 OFFCURVE",
"339 16 CURVE",
"488 -46 OFFCURVE",
"613 -232 OFFCURVE",
"814 -232 CURVE SMOOTH"
);
},
{
closed = 1;
nodes = (
"57 -105 OFFCURVE",
"31 -97 OFFCURVE",
"8 -82 CURVE SMOOTH",
"-19 -64 OFFCURVE",
"-33 -42 OFFCURVE",
"-33 -15 CURVE SMOOTH",
"-33 15 OFFCURVE",
"-15 38 OFFCURVE",
"21 55 CURVE SMOOTH",
"49 68 OFFCURVE",
"80 74 OFFCURVE",
"115 74 CURVE SMOOTH",
"152 74 OFFCURVE",
"211 61 OFFCURVE",
"292 35 CURVE",
"283 20 OFFCURVE",
"268 5 OFFCURVE",
"249 -12 CURVE SMOOTH",
"233 -25 OFFCURVE",
"217 -39 OFFCURVE",
"200 -52 CURVE",
"231 -41 OFFCURVE",
"260 -23 OFFCURVE",
"286 6 CURVE SMOOTH",
"306 29 LINE",
"312 27 OFFCURVE",
"319 24 OFFCURVE",
"327 19 CURVE",
"306 -10 OFFCURVE",
"270 -38 OFFCURVE",
"218 -65 CURVE SMOOTH",
"166 -92 OFFCURVE",
"122 -105 OFFCURVE",
"86 -105 CURVE SMOOTH"
);
},
{
closed = 1;
nodes = (
"315 40 LINE",
"392 162 LINE",
"415 167 OFFCURVE",
"428 170 OFFCURVE",
"429 171 CURVE",
"379 92 OFFCURVE",
"348 46 OFFCURVE",
"336 33 CURVE"
);
},
{
closed = 1;
nodes = (
"494 248 OFFCURVE",
"520 292 OFFCURVE",
"537 323 CURVE SMOOTH",
"656 523 OFFCURVE",
"753 623 OFFCURVE",
"829 623 CURVE SMOOTH",
"861 623 OFFCURVE",
"892 609 OFFCURVE",
"892 578 CURVE SMOOTH",
"892 523 OFFCURVE",
"833 449 OFFCURVE",
"716 354 CURVE SMOOTH",
"611 269 OFFCURVE",
"525 216 OFFCURVE",
"459 193 CURVE"
);
},
{
closed = 1;
nodes = (
"1416 666 OFFCURVE",
"1447 695 OFFCURVE",
"1479 695 CURVE SMOOTH",
"1517 695 OFFCURVE",
"1536 683 OFFCURVE",
"1536 660 CURVE SMOOTH",
"1536 647 OFFCURVE",
"1527 638 OFFCURVE",
"1509 631 CURVE",
"1455 619 OFFCURVE",
"1414 611 OFFCURVE",
"1385 608 CURVE"
);
}
);
width = 1087;
}
);
unicode = 01C7;
},
{
glyphname = M;
lastChange = "2021-11-23 05:59:21 +0000";
layers = (
{
background = {
paths = (
{
closed = 1;
nodes = (
"672 542 OFFCURVE",
"688 599 OFFCURVE",
"721 616 CURVE SMOOTH",
"724 618 OFFCURVE",
"726 620 OFFCURVE",
"726 622 CURVE SMOOTH",
"726 623 OFFCURVE",
"725 624 OFFCURVE",
"724 624 CURVE SMOOTH",
"687 624 OFFCURVE",
"658 583 OFFCURVE",
"639 500 CURVE SMOOTH",
"626 443 OFFCURVE",
"619 387 OFFCURVE",
"619 333 CURVE SMOOTH",
"619 274 OFFCURVE",
"624 215 OFFCURVE",
"634 157 CURVE SMOOTH",
"648 79 OFFCURVE",
"655 24 OFFCURVE",
"655 -9 CURVE SMOOTH",
"655 -40 OFFCURVE",
"651 -61 OFFCURVE",
"643 -73 CURVE",
"638 -74 OFFCURVE",
"635 -77 OFFCURVE",
"635 -84 CURVE SMOOTH",
"635 -87 OFFCURVE",
"636 -88 OFFCURVE",
"637 -88 CURVE SMOOTH",
"644 -88 OFFCURVE",
"658 -78 OFFCURVE",
"679 -58 CURVE SMOOTH",
"706 -33 OFFCURVE",
"740 10 OFFCURVE",
"781 71 CURVE SMOOTH",
"786 80 OFFCURVE",
"826 143 OFFCURVE",
"901 260 CURVE SMOOTH",
"949 336 OFFCURVE",
"991 398 OFFCURVE",
"1027 445 CURVE",
"985 294 OFFCURVE",
"964 184 OFFCURVE",
"964 115 CURVE SMOOTH",
"964 16 OFFCURVE",
"999 -34 OFFCURVE",
"1068 -34 CURVE SMOOTH",
"1117 -34 OFFCURVE",
"1170 20 OFFCURVE",
"1227 129 CURVE SMOOTH",
"1229 132 OFFCURVE",
"1230 135 OFFCURVE",
"1230 137 CURVE SMOOTH",
"1230 138 OFFCURVE",
"1229 139 OFFCURVE",
"1228 140 CURVE",
"1226 140 OFFCURVE",
"1224 138 OFFCURVE",
"1221 133 CURVE SMOOTH",
"1198 96 LINE SMOOTH",
"1148 18 OFFCURVE",
"1107 -21 OFFCURVE",
"1076 -21 CURVE SMOOTH",
"1037 -21 OFFCURVE",
"1017 32 OFFCURVE",
"1017 137 CURVE SMOOTH",
"1017 204 OFFCURVE",
"1029 318 OFFCURVE",
"1054 478 CURVE",
"1158 605 OFFCURVE",
"1248 669 OFFCURVE",
"1325 669 CURVE SMOOTH",
"1374 669 OFFCURVE",
"1399 646 OFFCURVE",
"1399 599 CURVE SMOOTH",
"1399 586 OFFCURVE",
"1389 555 OFFCURVE",
"1389 546 CURVE SMOOTH",
"1389 545 OFFCURVE",
"1389 544 OFFCURVE",
"1390 543 CURVE",
"1395 544 OFFCURVE",
"1399 556 OFFCURVE",
"1403 578 CURVE SMOOTH",
"1406 595 OFFCURVE",
"1407 609 OFFCURVE",
"1407 618 CURVE SMOOTH",
"1407 645 OFFCURVE",
"1401 666 OFFCURVE",
"1388 683 CURVE SMOOTH",
"1373 702 OFFCURVE",
"1353 711 OFFCURVE",
"1328 711 CURVE SMOOTH",
"1289 711 OFFCURVE",
"1240 687 OFFCURVE",
"1181 639 CURVE SMOOTH",
"1138 604 OFFCURVE",
"1098 564 OFFCURVE",
"1060 519 CURVE",
"1063 537 OFFCURVE",
"1064 548 OFFCURVE",
"1064 551 CURVE SMOOTH",
"1064 557 OFFCURVE",
"1063 560 OFFCURVE",
"1061 560 CURVE SMOOTH",
"1060 560 OFFCURVE",
"1053 539 OFFCURVE",
"1042 497 CURVE",
"1005 451 OFFCURVE",
"967 397 OFFCURVE",
"928 335 CURVE SMOOTH",
"905 301 OFFCURVE",
"871 245 OFFCURVE",
"825 167 CURVE SMOOTH",
"744 32 OFFCURVE",
"687 -46 OFFCURVE",
"656 -66 CURVE",
"687 -17 OFFCURVE",
"703 44 OFFCURVE",
"703 116 CURVE SMOOTH",
"703 130 OFFCURVE",
"702 143 OFFCURVE",
"700 156 CURVE SMOOTH",
"681 276 OFFCURVE",
"672 372 OFFCURVE",
"672 444 CURVE SMOOTH"
);
},
{
closed = 1;
nodes = (
"626 574 OFFCURVE",
"625 591 OFFCURVE",
"623 602 CURVE SMOOTH",
"621 610 OFFCURVE",
"617 614 OFFCURVE",
"610 614 CURVE SMOOTH",
"605 614 OFFCURVE",
"600 611 OFFCURVE",
"596 606 CURVE",
"588 603 OFFCURVE",
"577 601 OFFCURVE",
"564 598 CURVE",
"565 613 OFFCURVE",
"566 628 OFFCURVE",
"566 643 CURVE SMOOTH",
"566 665 OFFCURVE",
"565 684 OFFCURVE",
"563 700 CURVE",
"562 703 OFFCURVE",
"561 705 OFFCURVE",
"560 705 CURVE SMOOTH",
"555 705 OFFCURVE",
"553 702 OFFCURVE",
"553 697 CURVE SMOOTH",
"553 650 OFFCURVE",
"552 616 OFFCURVE",
"550 596 CURVE",
"388 572 LINE SMOOTH",
"305 558 OFFCURVE",
"240 540 OFFCURVE",
"194 519 CURVE SMOOTH",
"131 490 OFFCURVE",
"99 455 OFFCURVE",
"99 412 CURVE SMOOTH",
"99 373 OFFCURVE",
"115 338 OFFCURVE",
"147 305 CURVE SMOOTH",
"179 273 OFFCURVE",
"214 257 OFFCURVE",
"253 257 CURVE SMOOTH",
"258 257 OFFCURVE",
"261 258 OFFCURVE",
"261 261 CURVE SMOOTH",
"261 262 OFFCURVE",
"259 263 OFFCURVE",
"255 264 CURVE SMOOTH",
"222 273 OFFCURVE",
"191 291 OFFCURVE",
"162 318 CURVE SMOOTH",
"131 349 OFFCURVE",
"116 380 OFFCURVE",
"116 412 CURVE SMOOTH",
"116 453 OFFCURVE",
"157 485 OFFCURVE",
"240 506 CURVE SMOOTH",
"273 514 OFFCURVE",
"332 522 OFFCURVE",
"415 531 CURVE SMOOTH",
"481 538 OFFCURVE",
"524 544 OFFCURVE",
"544 547 CURVE",
"531 458 OFFCURVE",
"504 368 OFFCURVE",
"463 278 CURVE",
"460 277 LINE",
"455 300 OFFCURVE",
"447 311 OFFCURVE",
"436 311 CURVE SMOOTH",
"419 311 OFFCURVE",
"411 281 OFFCURVE",
"411 261 CURVE SMOOTH",
"411 242 OFFCURVE",
"416 223 OFFCURVE",
"426 205 CURVE",
"393 144 OFFCURVE",
"355 90 OFFCURVE",
"314 42 CURVE SMOOTH",
"262 -19 OFFCURVE",
"211 -59 OFFCURVE",
"160 -79 CURVE",
"138 -85 OFFCURVE",
"121 -89 OFFCURVE",
"110 -90 CURVE SMOOTH",
"104 -91 OFFCURVE",
"101 -94 OFFCURVE",
"101 -98 CURVE SMOOTH",
"101 -103 OFFCURVE",
"105 -106 OFFCURVE",
"112 -106 CURVE SMOOTH",
"130 -106 OFFCURVE",
"151 -101 OFFCURVE",
"174 -90 CURVE SMOOTH",
"264 -49 OFFCURVE",
"351 48 OFFCURVE",
"435 200 CURVE",
"450 207 OFFCURVE",
"466 220 OFFCURVE",
"484 239 CURVE SMOOTH",
"503 259 OFFCURVE",
"512 276 OFFCURVE",
"512 290 CURVE SMOOTH",
"512 296 OFFCURVE",
"509 299 OFFCURVE",
"503 299 CURVE SMOOTH",
"497 299 OFFCURVE",
"489 296 OFFCURVE",
"480 291 CURVE",
"521 381 OFFCURVE",
"547 467 OFFCURVE",
"559 550 CURVE",
"574 553 OFFCURVE",
"587 557 OFFCURVE",
"596 561 CURVE",
"597 555 OFFCURVE",
"597 549 OFFCURVE",
"597 543 CURVE SMOOTH",
"597 465 OFFCURVE",
"573 373 OFFCURVE",
"524 268 CURVE SMOOTH",
"473 159 OFFCURVE",
"411 68 OFFCURVE",
"337 -5 CURVE SMOOTH",
"253 -87 OFFCURVE",
"169 -128 OFFCURVE",
"86 -128 CURVE SMOOTH",
"42 -128 OFFCURVE",
"14 -90 OFFCURVE",
"14 -46 CURVE SMOOTH",
"14 -32 OFFCURVE",
"17 -16 OFFCURVE",
"24 1 CURVE SMOOTH",
"31 18 OFFCURVE",
"35 27 OFFCURVE",
"35 27 CURVE",
"35 30 OFFCURVE",
"34 32 OFFCURVE",
"32 32 CURVE SMOOTH",
"31 32 OFFCURVE",
"29 31 OFFCURVE",
"27 28 CURVE SMOOTH",
"5 -1 OFFCURVE",
"-6 -31 OFFCURVE",
"-6 -61 CURVE SMOOTH",
"-6 -112 OFFCURVE",
"29 -144 OFFCURVE",
"81 -144 CURVE SMOOTH",
"160 -144 OFFCURVE",
"237 -113 OFFCURVE",
"314 -51 CURVE SMOOTH",
"399 18 OFFCURVE",
"471 108 OFFCURVE",
"531 219 CURVE SMOOTH",
"594 336 OFFCURVE",
"626 447 OFFCURVE",
"626 550 CURVE SMOOTH"
);
}
);
};
layerId = "47CF47DF-B93A-4126-8606-39E7B9FB561A";
paths = (
{
closed = 1;
nodes = (
"644 -78 OFFCURVE",
"658 -68 OFFCURVE",
"679 -48 CURVE SMOOTH",
"706 -23 OFFCURVE",
"740 20 OFFCURVE",
"781 81 CURVE SMOOTH",
"786 90 OFFCURVE",
"826 153 OFFCURVE",
"901 270 CURVE SMOOTH",
"949 346 OFFCURVE",
"991 408 OFFCURVE",
"1027 455 CURVE",
"985 304 OFFCURVE",
"964 194 OFFCURVE",
"964 125 CURVE SMOOTH",
"964 26 OFFCURVE",
"999 -24 OFFCURVE",
"1068 -24 CURVE SMOOTH",
"1117 -24 OFFCURVE",
"1170 30 OFFCURVE",
"1227 139 CURVE SMOOTH",
"1229 142 OFFCURVE",
"1230 145 OFFCURVE",
"1230 147 CURVE SMOOTH",
"1230 148 OFFCURVE",
"1229 149 OFFCURVE",
"1228 150 CURVE",
"1226 150 OFFCURVE",
"1224 148 OFFCURVE",
"1221 143 CURVE SMOOTH",
"1198 106 LINE SMOOTH",
"1148 28 OFFCURVE",
"1107 -11 OFFCURVE",
"1076 -11 CURVE SMOOTH",
"1037 -11 OFFCURVE",
"1017 42 OFFCURVE",
"1017 147 CURVE SMOOTH",
"1017 214 OFFCURVE",
"1029 328 OFFCURVE",
"1054 488 CURVE",
"1158 615 OFFCURVE",
"1248 679 OFFCURVE",
"1325 679 CURVE SMOOTH",
"1374 679 OFFCURVE",
"1399 656 OFFCURVE",
"1399 609 CURVE SMOOTH",
"1399 596 OFFCURVE",
"1389 565 OFFCURVE",
"1389 556 CURVE SMOOTH",
"1389 555 OFFCURVE",
"1389 554 OFFCURVE",
"1390 553 CURVE",
"1395 554 OFFCURVE",
"1399 566 OFFCURVE",
"1403 588 CURVE SMOOTH",
"1406 605 OFFCURVE",
"1407 619 OFFCURVE",
"1407 628 CURVE SMOOTH",
"1407 655 OFFCURVE",
"1401 676 OFFCURVE",
"1388 693 CURVE SMOOTH",
"1373 712 OFFCURVE",
"1353 721 OFFCURVE",
"1328 721 CURVE SMOOTH",
"1289 721 OFFCURVE",
"1240 697 OFFCURVE",
"1181 649 CURVE SMOOTH",
"1138 614 OFFCURVE",
"1098 574 OFFCURVE",
"1060 529 CURVE",
"1063 547 OFFCURVE",
"1064 558 OFFCURVE",
"1064 561 CURVE SMOOTH",
"1064 567 OFFCURVE",
"1063 570 OFFCURVE",
"1061 570 CURVE SMOOTH",
"1060 570 OFFCURVE",
"1053 549 OFFCURVE",
"1042 507 CURVE",
"1005 461 OFFCURVE",
"967 407 OFFCURVE",
"928 345 CURVE SMOOTH",
"905 311 OFFCURVE",
"871 255 OFFCURVE",
"825 177 CURVE SMOOTH",
"744 42 OFFCURVE",
"687 -36 OFFCURVE",
"656 -56 CURVE",
"687 -7 OFFCURVE",
"703 54 OFFCURVE",
"703 126 CURVE SMOOTH",
"703 140 OFFCURVE",
"702 153 OFFCURVE",
"700 166 CURVE SMOOTH",
"681 286 OFFCURVE",
"672 382 OFFCURVE",
"672 454 CURVE SMOOTH",
"672 552 OFFCURVE",
"688 609 OFFCURVE",
"721 626 CURVE SMOOTH",
"724 628 OFFCURVE",
"726 630 OFFCURVE",
"726 632 CURVE SMOOTH",
"726 633 OFFCURVE",
"725 634 OFFCURVE",
"724 634 CURVE SMOOTH",
"687 634 OFFCURVE",
"658 593 OFFCURVE",
"639 510 CURVE SMOOTH",
"626 453 OFFCURVE",
"619 397 OFFCURVE",
"619 343 CURVE SMOOTH",
"619 284 OFFCURVE",
"624 225 OFFCURVE",
"634 167 CURVE SMOOTH",
"648 89 OFFCURVE",
"655 34 OFFCURVE",
"655 1 CURVE SMOOTH",
"655 -30 OFFCURVE",
"651 -51 OFFCURVE",
"643 -63 CURVE",
"638 -64 OFFCURVE",
"635 -67 OFFCURVE",
"635 -74 CURVE SMOOTH",
"635 -77 OFFCURVE",
"636 -78 OFFCURVE",
"637 -78 CURVE SMOOTH"
);
},
{
closed = 1;
nodes = (
"160 -134 OFFCURVE",
"237 -103 OFFCURVE",
"314 -41 CURVE SMOOTH",
"399 28 OFFCURVE",
"471 118 OFFCURVE",
"531 229 CURVE SMOOTH",
"594 346 OFFCURVE",
"626 457 OFFCURVE",
"626 560 CURVE SMOOTH",
"626 584 OFFCURVE",
"625 601 OFFCURVE",
"623 612 CURVE SMOOTH",
"621 620 OFFCURVE",
"617 624 OFFCURVE",
"610 624 CURVE SMOOTH",
"605 624 OFFCURVE",
"600 621 OFFCURVE",
"596 616 CURVE",
"588 613 OFFCURVE",
"577 611 OFFCURVE",
"564 608 CURVE",
"565 623 OFFCURVE",
"566 638 OFFCURVE",
"566 653 CURVE SMOOTH",
"566 675 OFFCURVE",
"565 694 OFFCURVE",
"563 710 CURVE",
"562 713 OFFCURVE",
"561 715 OFFCURVE",
"560 715 CURVE SMOOTH",
"555 715 OFFCURVE",
"553 712 OFFCURVE",
"553 707 CURVE SMOOTH",
"553 660 OFFCURVE",
"552 626 OFFCURVE",
"550 606 CURVE",
"388 582 LINE SMOOTH",
"305 568 OFFCURVE",
"240 550 OFFCURVE",
"194 529 CURVE SMOOTH",
"131 500 OFFCURVE",
"99 465 OFFCURVE",
"99 422 CURVE SMOOTH",
"99 383 OFFCURVE",
"115 348 OFFCURVE",
"147 315 CURVE SMOOTH",
"179 283 OFFCURVE",
"214 267 OFFCURVE",
"253 267 CURVE SMOOTH",
"258 267 OFFCURVE",
"261 268 OFFCURVE",
"261 271 CURVE SMOOTH",
"261 272 OFFCURVE",
"259 273 OFFCURVE",
"255 274 CURVE SMOOTH",
"222 283 OFFCURVE",
"191 301 OFFCURVE",
"162 328 CURVE SMOOTH",
"131 359 OFFCURVE",
"116 390 OFFCURVE",
"116 422 CURVE SMOOTH",
"116 463 OFFCURVE",
"157 495 OFFCURVE",
"240 516 CURVE SMOOTH",
"273 524 OFFCURVE",
"332 532 OFFCURVE",
"415 541 CURVE SMOOTH",
"481 548 OFFCURVE",
"524 554 OFFCURVE",
"544 557 CURVE",
"531 468 OFFCURVE",
"504 378 OFFCURVE",
"463 288 CURVE",
"460 287 LINE",
"455 310 OFFCURVE",
"447 321 OFFCURVE",
"436 321 CURVE SMOOTH",
"419 321 OFFCURVE",
"411 291 OFFCURVE",
"411 271 CURVE SMOOTH",
"411 252 OFFCURVE",
"416 233 OFFCURVE",
"426 215 CURVE",
"393 154 OFFCURVE",
"355 100 OFFCURVE",
"314 52 CURVE SMOOTH",
"262 -9 OFFCURVE",
"211 -49 OFFCURVE",
"160 -69 CURVE",
"138 -75 OFFCURVE",
"121 -79 OFFCURVE",
"110 -80 CURVE SMOOTH",
"104 -81 OFFCURVE",
"101 -84 OFFCURVE",
"101 -88 CURVE SMOOTH",
"101 -93 OFFCURVE",
"105 -96 OFFCURVE",
"112 -96 CURVE SMOOTH",
"130 -96 OFFCURVE",
"151 -91 OFFCURVE",
"174 -80 CURVE SMOOTH",
"264 -39 OFFCURVE",
"351 58 OFFCURVE",
"435 210 CURVE",
"450 217 OFFCURVE",
"466 230 OFFCURVE",
"484 249 CURVE SMOOTH",
"503 269 OFFCURVE",
"512 286 OFFCURVE",
"512 300 CURVE SMOOTH",
"512 306 OFFCURVE",
"509 309 OFFCURVE",
"503 309 CURVE SMOOTH",
"497 309 OFFCURVE",
"489 306 OFFCURVE",
"480 301 CURVE",
"521 391 OFFCURVE",
"547 477 OFFCURVE",
"559 560 CURVE",
"574 563 OFFCURVE",
"587 567 OFFCURVE",
"596 571 CURVE",
"597 565 OFFCURVE",
"597 559 OFFCURVE",
"597 553 CURVE SMOOTH",
"597 475 OFFCURVE",
"573 383 OFFCURVE",
"524 278 CURVE SMOOTH",
"473 169 OFFCURVE",
"411 78 OFFCURVE",
"337 5 CURVE SMOOTH",
"253 -77 OFFCURVE",
"169 -118 OFFCURVE",
"86 -118 CURVE SMOOTH",
"42 -118 OFFCURVE",
"14 -80 OFFCURVE",
"14 -36 CURVE SMOOTH",
"14 -22 OFFCURVE",
"17 -6 OFFCURVE",
"24 11 CURVE SMOOTH",
"31 28 OFFCURVE",
"35 37 OFFCURVE",
"35 37 CURVE",
"35 40 OFFCURVE",
"34 42 OFFCURVE",
"32 42 CURVE SMOOTH",
"31 42 OFFCURVE",
"29 41 OFFCURVE",
"27 38 CURVE SMOOTH",
"5 9 OFFCURVE",
"-6 -21 OFFCURVE",
"-6 -51 CURVE SMOOTH",
"-6 -102 OFFCURVE",
"29 -134 OFFCURVE",
"81 -134 CURVE SMOOTH"
);
}
);
width = 1211;
}
);
note = M;
unicode = 004D;
},
{
glyphname = N;
lastChange = "2021-11-23 05:59:21 +0000";
layers = (
{
anchors = (
{
name = bottom;
position = "{546, 0}";
},
{
name = top;
position = "{800, 700}";
}
);
background = {
paths = (
{
closed = 1;
nodes = (
"722 150 OFFCURVE",
"691 263 OFFCURVE",
"662 416 CURVE SMOOTH",
"643 519 LINE SMOOTH",
"635 559 OFFCURVE",
"633 574 OFFCURVE",
"632 593 CURVE SMOOTH",
"631 607 OFFCURVE",
"626 614 OFFCURVE",
"619 614 CURVE SMOOTH",
"613 614 OFFCURVE",
"608 611 OFFCURVE",
"605 606 CURVE",
"595 603 OFFCURVE",
"581 599 OFFCURVE",
"562 596 CURVE",
"567 631 OFFCURVE",
"570 664 OFFCURVE",
"570 695 CURVE SMOOTH",
"570 715 OFFCURVE",
"569 732 OFFCURVE",
"568 746 CURVE",
"567 749 OFFCURVE",
"566 751 OFFCURVE",
"564 751 CURVE SMOOTH",
"560 751 OFFCURVE",
"558 748 OFFCURVE",
"558 743 CURVE SMOOTH",
"558 685 OFFCURVE",
"555 635 OFFCURVE",
"549 594 CURVE",
"496 586 OFFCURVE",
"443 578 OFFCURVE",
"390 571 CURVE SMOOTH",
"309 557 OFFCURVE",
"245 539 OFFCURVE",
"200 518 CURVE SMOOTH",
"138 489 OFFCURVE",
"107 454 OFFCURVE",
"107 412 CURVE SMOOTH",
"107 373 OFFCURVE",
"123 338 OFFCURVE",
"155 305 CURVE SMOOTH",
"187 273 OFFCURVE",
"222 257 OFFCURVE",
"261 257 CURVE SMOOTH",
"266 257 OFFCURVE",
"269 258 OFFCURVE",
"269 261 CURVE SMOOTH",
"269 262 OFFCURVE",
"267 263 OFFCURVE",
"263 264 CURVE SMOOTH",
"230 273 OFFCURVE",
"199 291 OFFCURVE",
"171 318 CURVE SMOOTH",
"140 349 OFFCURVE",
"124 380 OFFCURVE",
"124 412 CURVE SMOOTH",
"124 453 OFFCURVE",
"164 483 OFFCURVE",
"243 504 CURVE SMOOTH",
"276 513 OFFCURVE",
"332 522 OFFCURVE",
"411 530 CURVE SMOOTH",
"540 545 LINE",
"525 476 OFFCURVE",
"504 405 OFFCURVE",
"476 334 CURVE",
"463 324 LINE",
"456 347 OFFCURVE",
"447 358 OFFCURVE",
"436 358 CURVE SMOOTH",
"423 358 OFFCURVE",
"416 345 OFFCURVE",
"416 320 CURVE SMOOTH",
"416 296 OFFCURVE",
"424 274 OFFCURVE",
"440 253 CURVE",
"408 185 OFFCURVE",
"372 124 OFFCURVE",
"333 69 CURVE SMOOTH",
"279 -5 OFFCURVE",
"228 -52 OFFCURVE",
"180 -71 CURVE",
"147 -80 OFFCURVE",
"134 -79 OFFCURVE",
"134 -87 CURVE SMOOTH",
"134 -92 OFFCURVE",
"137 -94 OFFCURVE",
"144 -94 CURVE SMOOTH",
"161 -94 OFFCURVE",
"181 -88 OFFCURVE",
"202 -76 CURVE SMOOTH",
"287 -29 OFFCURVE",
"371 80 OFFCURVE",
"452 253 CURVE",
"479 270 OFFCURVE",
"512 308 OFFCURVE",
"512 335 CURVE SMOOTH",
"512 342 OFFCURVE",
"509 346 OFFCURVE",
"502 346 CURVE SMOOTH",
"499 346 OFFCURVE",
"495 345 OFFCURVE",
"491 343 CURVE",
"519 414 OFFCURVE",
"540 482 OFFCURVE",
"554 547 CURVE",
"576 551 OFFCURVE",
"593 556 OFFCURVE",
"604 561 CURVE",
"605 555 OFFCURVE",
"605 549 OFFCURVE",
"605 543 CURVE SMOOTH",
"605 465 OFFCURVE",
"581 373 OFFCURVE",
"532 268 CURVE SMOOTH",
"481 159 OFFCURVE",
"419 68 OFFCURVE",
"345 -5 CURVE SMOOTH",
"261 -87 OFFCURVE",
"177 -128 OFFCURVE",
"94 -128 CURVE SMOOTH",
"51 -128 OFFCURVE",
"22 -90 OFFCURVE",
"22 -46 CURVE SMOOTH",
"22 -32 OFFCURVE",
"25 -16 OFFCURVE",
"32 1 CURVE SMOOTH",
"39 18 OFFCURVE",
"43 27 OFFCURVE",
"43 27 CURVE",
"43 30 OFFCURVE",
"42 32 OFFCURVE",
"40 32 CURVE SMOOTH",
"39 32 OFFCURVE",
"37 31 OFFCURVE",
"35 28 CURVE SMOOTH",
"13 -1 OFFCURVE",
"2 -31 OFFCURVE",
"2 -61 CURVE SMOOTH",
"2 -112 OFFCURVE",
"37 -144 OFFCURVE",
"89 -144 CURVE SMOOTH",
"168 -144 OFFCURVE",
"245 -113 OFFCURVE",
"322 -51 CURVE SMOOTH",
"397 9 OFFCURVE",
"462 87 OFFCURVE",
"518 182 CURVE SMOOTH",
"575 277 OFFCURVE",
"611 372 OFFCURVE",
"627 466 CURVE",
"639 337 OFFCURVE",
"647 262 OFFCURVE",
"650 241 CURVE SMOOTH",
"664 148 OFFCURVE",
"686 78 OFFCURVE",
"717 29 CURVE",
"712 26 OFFCURVE",
"705 24 OFFCURVE",
"695 22 CURVE SMOOTH",
"688 21 OFFCURVE",
"684 19 OFFCURVE",
"684 17 CURVE SMOOTH",
"684 8 OFFCURVE",
"691 4 OFFCURVE",
"705 4 CURVE SMOOTH",
"714 4 OFFCURVE",
"722 6 OFFCURVE",
"729 11 CURVE",
"760 -32 OFFCURVE",
"794 -53 OFFCURVE",
"832 -53 CURVE SMOOTH",
"871 -53 OFFCURVE",
"911 -33 OFFCURVE",
"951 8 CURVE SMOOTH",
"955 12 OFFCURVE",
"957 16 OFFCURVE",
"957 19 CURVE SMOOTH",
"957 21 OFFCURVE",
"956 22 OFFCURVE",
"955 22 CURVE",
"956 22 OFFCURVE",
"946 13 OFFCURVE",
"923 -5 CURVE SMOOTH",
"900 -23 OFFCURVE",
"880 -32 OFFCURVE",
"861 -32 CURVE SMOOTH",
"826 -32 OFFCURVE",
"794 -2 OFFCURVE",
"765 57 CURVE",
"776 80 OFFCURVE",
"785 107 OFFCURVE",
"794 139 CURVE SMOOTH",
"797 148 OFFCURVE",
"804 177 OFFCURVE",
"815 225 CURVE SMOOTH",
"843 343 OFFCURVE",
"866 424 OFFCURVE",
"884 469 CURVE SMOOTH",
"923 565 OFFCURVE",
"974 628 OFFCURVE",
"1037 657 CURVE SMOOTH",
"1052 664 OFFCURVE",
"1067 668 OFFCURVE",
"1082 668 CURVE SMOOTH",
"1109 668 OFFCURVE",
"1133 658 OFFCURVE",
"1154 637 CURVE SMOOTH",
"1171 618 OFFCURVE",
"1184 595 OFFCURVE",
"1193 567 CURVE SMOOTH",
"1195 562 OFFCURVE",
"1197 559 OFFCURVE",
"1199 559 CURVE SMOOTH",
"1201 559 OFFCURVE",
"1202 560 OFFCURVE",
"1202 563 CURVE SMOOTH",
"1202 595 OFFCURVE",
"1187 628 OFFCURVE",
"1158 663 CURVE SMOOTH",
"1128 700 OFFCURVE",
"1097 719 OFFCURVE",
"1065 719 CURVE SMOOTH",
"1046 719 OFFCURVE",
"1027 714 OFFCURVE",
"1008 703 CURVE SMOOTH",
"944 667 OFFCURVE",
"895 600 OFFCURVE",
"860 502 CURVE SMOOTH",
"844 457 OFFCURVE",
"824 373 OFFCURVE",
"800 249 CURVE SMOOTH",
"784 165 OFFCURVE",
"769 108 OFFCURVE",
"755 77 CURVE"
);
}
);
};
layerId = "47CF47DF-B93A-4126-8606-39E7B9FB561A";
paths = (
{
closed = 1;
nodes = (
"168 -134 OFFCURVE",
"245 -103 OFFCURVE",
"322 -41 CURVE SMOOTH",
"397 19 OFFCURVE",
"462 97 OFFCURVE",
"518 192 CURVE SMOOTH",
"575 287 OFFCURVE",
"611 382 OFFCURVE",
"627 476 CURVE",
"639 347 OFFCURVE",
"647 272 OFFCURVE",
"650 251 CURVE SMOOTH",
"664 158 OFFCURVE",
"686 88 OFFCURVE",
"717 39 CURVE",
"712 36 OFFCURVE",
"705 34 OFFCURVE",
"695 32 CURVE SMOOTH",
"688 31 OFFCURVE",
"684 29 OFFCURVE",
"684 27 CURVE SMOOTH",
"684 18 OFFCURVE",
"691 14 OFFCURVE",
"705 14 CURVE SMOOTH",
"714 14 OFFCURVE",
"722 16 OFFCURVE",
"729 21 CURVE",
"760 -22 OFFCURVE",
"794 -43 OFFCURVE",
"832 -43 CURVE SMOOTH",
"871 -43 OFFCURVE",
"911 -23 OFFCURVE",
"951 18 CURVE SMOOTH",
"955 22 OFFCURVE",
"957 26 OFFCURVE",
"957 29 CURVE SMOOTH",
"957 31 OFFCURVE",
"956 32 OFFCURVE",
"955 32 CURVE",
"956 32 OFFCURVE",
"946 23 OFFCURVE",
"923 5 CURVE SMOOTH",
"900 -13 OFFCURVE",
"880 -22 OFFCURVE",
"861 -22 CURVE SMOOTH",
"826 -22 OFFCURVE",
"794 8 OFFCURVE",
"765 67 CURVE",
"776 90 OFFCURVE",
"785 117 OFFCURVE",
"794 149 CURVE SMOOTH",
"797 158 OFFCURVE",
"804 187 OFFCURVE",
"815 235 CURVE SMOOTH",
"843 353 OFFCURVE",
"866 434 OFFCURVE",
"884 479 CURVE SMOOTH",
"923 575 OFFCURVE",
"974 638 OFFCURVE",
"1037 667 CURVE SMOOTH",
"1052 674 OFFCURVE",
"1067 678 OFFCURVE",
"1082 678 CURVE SMOOTH",
"1109 678 OFFCURVE",
"1133 668 OFFCURVE",
"1154 647 CURVE SMOOTH",
"1171 628 OFFCURVE",
"1184 605 OFFCURVE",
"1193 577 CURVE SMOOTH",
"1195 572 OFFCURVE",
"1197 569 OFFCURVE",
"1199 569 CURVE SMOOTH",
"1201 569 OFFCURVE",
"1202 570 OFFCURVE",
"1202 573 CURVE SMOOTH",
"1202 605 OFFCURVE",
"1187 638 OFFCURVE",
"1158 673 CURVE SMOOTH",
"1128 710 OFFCURVE",
"1097 729 OFFCURVE",
"1065 729 CURVE SMOOTH",
"1046 729 OFFCURVE",
"1027 724 OFFCURVE",
"1008 713 CURVE SMOOTH",
"944 677 OFFCURVE",
"895 610 OFFCURVE",
"860 512 CURVE SMOOTH",
"844 467 OFFCURVE",
"824 383 OFFCURVE",
"800 259 CURVE SMOOTH",
"784 175 OFFCURVE",
"769 118 OFFCURVE",
"755 87 CURVE",
"722 160 OFFCURVE",
"690 273 OFFCURVE",
"662 426 CURVE SMOOTH",
"643 529 LINE SMOOTH",
"636 569 OFFCURVE",
"633 584 OFFCURVE",
"632 603 CURVE SMOOTH",
"631 617 OFFCURVE",
"626 624 OFFCURVE",
"619 624 CURVE SMOOTH",
"613 624 OFFCURVE",
"608 621 OFFCURVE",
"605 616 CURVE",
"595 613 OFFCURVE",
"581 609 OFFCURVE",
"562 606 CURVE",
"567 641 OFFCURVE",
"570 674 OFFCURVE",
"570 705 CURVE SMOOTH",
"570 725 OFFCURVE",
"569 742 OFFCURVE",
"568 756 CURVE",
"567 759 OFFCURVE",
"566 761 OFFCURVE",
"564 761 CURVE SMOOTH",
"560 761 OFFCURVE",
"558 758 OFFCURVE",
"558 753 CURVE SMOOTH",
"558 695 OFFCURVE",
"555 645 OFFCURVE",
"549 604 CURVE",
"496 596 OFFCURVE",
"443 588 OFFCURVE",
"390 581 CURVE SMOOTH",
"309 567 OFFCURVE",
"245 549 OFFCURVE",
"200 528 CURVE SMOOTH",
"138 499 OFFCURVE",
"107 464 OFFCURVE",
"107 422 CURVE SMOOTH",
"107 383 OFFCURVE",
"123 348 OFFCURVE",
"155 315 CURVE SMOOTH",
"187 283 OFFCURVE",
"222 267 OFFCURVE",
"261 267 CURVE SMOOTH",
"266 267 OFFCURVE",
"269 268 OFFCURVE",
"269 271 CURVE SMOOTH",
"269 272 OFFCURVE",
"267 273 OFFCURVE",
"263 274 CURVE SMOOTH",
"230 283 OFFCURVE",
"199 301 OFFCURVE",
"171 328 CURVE SMOOTH",
"140 359 OFFCURVE",
"124 390 OFFCURVE",
"124 422 CURVE SMOOTH",
"124 463 OFFCURVE",
"164 493 OFFCURVE",
"243 514 CURVE SMOOTH",
"276 523 OFFCURVE",
"332 531 OFFCURVE",
"411 540 CURVE SMOOTH",
"540 555 LINE",
"525 486 OFFCURVE",
"504 415 OFFCURVE",
"476 344 CURVE",
"463 334 LINE",
"456 357 OFFCURVE",
"447 368 OFFCURVE",
"436 368 CURVE SMOOTH",
"423 368 OFFCURVE",
"416 355 OFFCURVE",
"416 330 CURVE SMOOTH",
"416 306 OFFCURVE",
"424 284 OFFCURVE",
"440 263 CURVE",
"408 195 OFFCURVE",
"372 134 OFFCURVE",
"333 79 CURVE SMOOTH",
"279 5 OFFCURVE",
"228 -42 OFFCURVE",
"180 -61 CURVE",
"147 -70 OFFCURVE",
"134 -69 OFFCURVE",
"134 -77 CURVE SMOOTH",
"134 -82 OFFCURVE",
"137 -84 OFFCURVE",
"144 -84 CURVE SMOOTH",
"161 -84 OFFCURVE",
"181 -78 OFFCURVE",
"202 -66 CURVE SMOOTH",
"287 -19 OFFCURVE",
"371 90 OFFCURVE",
"452 263 CURVE",
"479 280 OFFCURVE",
"512 318 OFFCURVE",
"512 345 CURVE SMOOTH",
"512 352 OFFCURVE",
"509 356 OFFCURVE",
"502 356 CURVE SMOOTH",
"499 356 OFFCURVE",
"495 355 OFFCURVE",
"491 353 CURVE",
"519 424 OFFCURVE",
"540 492 OFFCURVE",
"554 557 CURVE",
"576 561 OFFCURVE",
"593 566 OFFCURVE",
"604 571 CURVE",
"605 565 OFFCURVE",
"605 559 OFFCURVE",
"605 553 CURVE SMOOTH",
"605 475 OFFCURVE",
"581 383 OFFCURVE",
"532 278 CURVE SMOOTH",
"481 169 OFFCURVE",
"419 78 OFFCURVE",
"345 5 CURVE SMOOTH",
"261 -77 OFFCURVE",
"177 -118 OFFCURVE",
"94 -118 CURVE SMOOTH",
"51 -118 OFFCURVE",
"22 -80 OFFCURVE",
"22 -36 CURVE SMOOTH",
"22 -22 OFFCURVE",
"25 -6 OFFCURVE",
"32 11 CURVE SMOOTH",
"39 28 OFFCURVE",
"43 37 OFFCURVE",
"43 37 CURVE",
"43 40 OFFCURVE",
"42 42 OFFCURVE",
"40 42 CURVE SMOOTH",
"39 42 OFFCURVE",
"37 41 OFFCURVE",
"35 38 CURVE SMOOTH",
"13 9 OFFCURVE",
"2 -21 OFFCURVE",
"2 -51 CURVE SMOOTH",
"2 -102 OFFCURVE",
"37 -134 OFFCURVE",
"89 -134 CURVE SMOOTH"
);
}
);
width = 956;
}
);
note = N;
unicode = 004E;
},
{
glyphname = Eng;
lastChange = "2021-11-23 05:59:21 +0000";
layers = (
{
background = {
paths = (
{
closed = 1;
nodes = (
"1128 700 OFFCURVE",
"1097 719 OFFCURVE",
"1065 719 CURVE SMOOTH",
"1046 719 OFFCURVE",
"1027 714 OFFCURVE",
"1008 703 CURVE SMOOTH",
"944 667 OFFCURVE",
"895 617 OFFCURVE",
"860 519 CURVE SMOOTH",
"844 474 OFFCURVE",
"818 373 OFFCURVE",
"794 249 CURVE SMOOTH",
"778 165 OFFCURVE",
"761 102 OFFCURVE",
"755 77 CURVE",
"722 150 OFFCURVE",
"690 263 OFFCURVE",
"662 416 CURVE SMOOTH",
"643 519 LINE SMOOTH",
"636 559 OFFCURVE",
"633 574 OFFCURVE",
"632 593 CURVE SMOOTH",
"631 607 OFFCURVE",
"626 614 OFFCURVE",
"619 614 CURVE SMOOTH",
"613 614 OFFCURVE",
"608 611 OFFCURVE",
"605 606 CURVE",
"595 603 OFFCURVE",
"581 599 OFFCURVE",
"562 596 CURVE",
"567 631 OFFCURVE",
"570 664 OFFCURVE",
"570 695 CURVE SMOOTH",
"570 715 OFFCURVE",
"569 732 OFFCURVE",
"568 746 CURVE",
"567 749 OFFCURVE",
"566 751 OFFCURVE",
"564 751 CURVE SMOOTH",
"560 751 OFFCURVE",
"558 748 OFFCURVE",
"558 743 CURVE SMOOTH",
"558 685 OFFCURVE",
"555 635 OFFCURVE",
"549 594 CURVE",
"496 586 OFFCURVE",
"443 578 OFFCURVE",
"390 571 CURVE SMOOTH",
"309 557 OFFCURVE",
"245 539 OFFCURVE",
"200 518 CURVE SMOOTH",
"138 489 OFFCURVE",
"107 454 OFFCURVE",
"107 412 CURVE SMOOTH",
"107 373 OFFCURVE",
"123 338 OFFCURVE",
"155 305 CURVE SMOOTH",
"187 273 OFFCURVE",
"222 257 OFFCURVE",
"261 257 CURVE SMOOTH",
"266 257 OFFCURVE",
"269 258 OFFCURVE",
"269 261 CURVE SMOOTH",
"269 262 OFFCURVE",
"267 263 OFFCURVE",
"263 264 CURVE SMOOTH",
"230 273 OFFCURVE",
"199 291 OFFCURVE",
"171 318 CURVE SMOOTH",
"140 349 OFFCURVE",
"124 380 OFFCURVE",
"124 412 CURVE SMOOTH",
"124 453 OFFCURVE",
"164 483 OFFCURVE",
"243 504 CURVE SMOOTH",
"276 513 OFFCURVE",
"332 521 OFFCURVE",
"411 530 CURVE SMOOTH",
"540 545 LINE",
"525 476 OFFCURVE",
"504 405 OFFCURVE",
"476 334 CURVE",
"463 324 LINE",
"456 347 OFFCURVE",
"447 358 OFFCURVE",
"436 358 CURVE SMOOTH",
"423 358 OFFCURVE",
"416 345 OFFCURVE",
"416 320 CURVE SMOOTH",
"416 296 OFFCURVE",
"424 274 OFFCURVE",
"440 253 CURVE",
"408 185 OFFCURVE",
"372 124 OFFCURVE",
"333 69 CURVE SMOOTH",
"279 -5 OFFCURVE",
"228 -52 OFFCURVE",
"180 -71 CURVE",
"147 -80 OFFCURVE",
"134 -79 OFFCURVE",
"134 -87 CURVE SMOOTH",
"134 -92 OFFCURVE",
"137 -94 OFFCURVE",
"144 -94 CURVE SMOOTH",
"161 -94 OFFCURVE",
"181 -88 OFFCURVE",
"202 -76 CURVE SMOOTH",
"287 -29 OFFCURVE",
"371 80 OFFCURVE",
"452 253 CURVE",
"479 270 OFFCURVE",
"512 308 OFFCURVE",
"512 335 CURVE SMOOTH",
"512 342 OFFCURVE",
"509 346 OFFCURVE",
"502 346 CURVE SMOOTH",
"499 346 OFFCURVE",
"495 345 OFFCURVE",
"491 343 CURVE",
"519 414 OFFCURVE",
"540 482 OFFCURVE",
"554 547 CURVE",
"576 551 OFFCURVE",
"593 556 OFFCURVE",
"604 561 CURVE",
"605 555 OFFCURVE",
"605 549 OFFCURVE",
"605 543 CURVE SMOOTH",
"605 465 OFFCURVE",
"581 373 OFFCURVE",
"532 268 CURVE SMOOTH",
"481 159 OFFCURVE",
"419 68 OFFCURVE",
"345 -5 CURVE SMOOTH",
"261 -87 OFFCURVE",
"177 -128 OFFCURVE",
"94 -128 CURVE SMOOTH",
"51 -128 OFFCURVE",
"22 -90 OFFCURVE",
"22 -46 CURVE SMOOTH",
"22 -32 OFFCURVE",
"25 -16 OFFCURVE",
"32 1 CURVE SMOOTH",
"43 27 LINE",
"43 30 OFFCURVE",
"42 32 OFFCURVE",
"40 32 CURVE SMOOTH",
"39 32 OFFCURVE",
"37 31 OFFCURVE",
"35 28 CURVE SMOOTH",
"13 -1 OFFCURVE",
"2 -31 OFFCURVE",
"2 -61 CURVE SMOOTH",
"2 -112 OFFCURVE",
"37 -144 OFFCURVE",
"89 -144 CURVE SMOOTH",
"168 -144 OFFCURVE",
"245 -113 OFFCURVE",
"322 -51 CURVE SMOOTH",
"397 9 OFFCURVE",
"462 87 OFFCURVE",
"518 182 CURVE SMOOTH",
"575 277 OFFCURVE",
"611 372 OFFCURVE",
"627 466 CURVE",
"639 337 OFFCURVE",
"647 262 OFFCURVE",
"650 241 CURVE SMOOTH",
"664 148 OFFCURVE",
"686 78 OFFCURVE",
"717 29 CURVE",
"734 6 LINE",
"722 -30 OFFCURVE",
"707 -64 OFFCURVE",
"695 -89 CURVE",
"669 -155 OFFCURVE",
"606 -283 OFFCURVE",
"526 -318 CURVE SMOOTH",
"432 -360 OFFCURVE",
"429 -257 OFFCURVE",
"493 -181 CURVE SMOOTH",
"510 -161 OFFCURVE",
"508 -156 OFFCURVE",
"500 -160 CURVE SMOOTH",
"497 -161 OFFCURVE",
"489 -165 OFFCURVE",
"486 -170 CURVE",
"426 -225 OFFCURVE",
"407 -288 OFFCURVE",
"421 -323 CURVE SMOOTH",
"434 -355 OFFCURVE",
"475 -367 OFFCURVE",
"543 -337 CURVE SMOOTH",
"640 -294 OFFCURVE",
"694 -204 OFFCURVE",
"716 -152 CURVE SMOOTH",
"730 -119 OFFCURVE",
"745 -75 OFFCURVE",
"762 -24 CURVE",
"783 -44 OFFCURVE",
"804 -53 OFFCURVE",
"832 -53 CURVE SMOOTH",
"871 -53 OFFCURVE",
"911 -33 OFFCURVE",
"951 8 CURVE SMOOTH",
"955 12 OFFCURVE",
"957 16 OFFCURVE",
"957 19 CURVE SMOOTH",
"957 21 OFFCURVE",
"956 22 OFFCURVE",
"955 22 CURVE",
"956 22 OFFCURVE",
"946 13 OFFCURVE",
"923 -5 CURVE SMOOTH",
"900 -23 OFFCURVE",
"880 -32 OFFCURVE",
"861 -32 CURVE SMOOTH",
"826 -32 OFFCURVE",
"794 -2 OFFCURVE",
"775 35 CURVE",
"762 -11 OFFCURVE",
"815 190 OFFCURVE",
"823 225 CURVE SMOOTH",
"851 343 OFFCURVE",
"866 424 OFFCURVE",
"884 469 CURVE SMOOTH",
"923 565 OFFCURVE",
"974 628 OFFCURVE",
"1037 657 CURVE SMOOTH",
"1052 664 OFFCURVE",
"1067 668 OFFCURVE",
"1082 668 CURVE SMOOTH",
"1109 668 OFFCURVE",
"1133 658 OFFCURVE",
"1154 637 CURVE SMOOTH",
"1171 618 OFFCURVE",
"1184 595 OFFCURVE",
"1193 567 CURVE SMOOTH",
"1195 562 OFFCURVE",
"1197 559 OFFCURVE",
"1199 559 CURVE SMOOTH",
"1201 559 OFFCURVE",
"1202 560 OFFCURVE",
"1202 563 CURVE SMOOTH",
"1202 595 OFFCURVE",
"1187 628 OFFCURVE",
"1158 663 CURVE SMOOTH"
);
}
);
};
layerId = "47CF47DF-B93A-4126-8606-39E7B9FB561A";
paths = (
{
closed = 1;
nodes = (
"640 -284 OFFCURVE",
"694 -194 OFFCURVE",
"716 -142 CURVE SMOOTH",
"730 -109 OFFCURVE",
"745 -65 OFFCURVE",
"762 -14 CURVE",
"783 -34 OFFCURVE",
"804 -43 OFFCURVE",
"832 -43 CURVE SMOOTH",
"871 -43 OFFCURVE",
"911 -23 OFFCURVE",
"951 18 CURVE SMOOTH",
"955 22 OFFCURVE",
"957 26 OFFCURVE",
"957 29 CURVE SMOOTH",
"957 31 OFFCURVE",
"956 32 OFFCURVE",
"955 32 CURVE",
"956 32 OFFCURVE",
"946 23 OFFCURVE",
"923 5 CURVE SMOOTH",
"900 -13 OFFCURVE",
"880 -22 OFFCURVE",
"861 -22 CURVE SMOOTH",
"826 -22 OFFCURVE",
"794 8 OFFCURVE",
"775 45 CURVE",
"762 -1 OFFCURVE",
"815 200 OFFCURVE",
"823 235 CURVE SMOOTH",
"851 353 OFFCURVE",
"866 434 OFFCURVE",
"884 479 CURVE SMOOTH",
"923 575 OFFCURVE",
"974 638 OFFCURVE",
"1037 667 CURVE SMOOTH",
"1052 674 OFFCURVE",
"1067 678 OFFCURVE",
"1082 678 CURVE SMOOTH",
"1109 678 OFFCURVE",
"1133 668 OFFCURVE",
"1154 647 CURVE SMOOTH",
"1171 628 OFFCURVE",
"1184 605 OFFCURVE",
"1193 577 CURVE SMOOTH",
"1195 572 OFFCURVE",
"1197 569 OFFCURVE",
"1199 569 CURVE SMOOTH",
"1201 569 OFFCURVE",
"1202 570 OFFCURVE",
"1202 573 CURVE SMOOTH",
"1202 605 OFFCURVE",
"1187 638 OFFCURVE",
"1158 673 CURVE SMOOTH",
"1128 710 OFFCURVE",
"1097 729 OFFCURVE",
"1065 729 CURVE SMOOTH",
"1046 729 OFFCURVE",
"1027 724 OFFCURVE",
"1008 713 CURVE SMOOTH",
"944 677 OFFCURVE",
"895 627 OFFCURVE",
"860 529 CURVE SMOOTH",
"844 484 OFFCURVE",
"818 383 OFFCURVE",
"794 259 CURVE SMOOTH",
"778 175 OFFCURVE",
"761 112 OFFCURVE",
"755 87 CURVE",
"722 160 OFFCURVE",
"690 273 OFFCURVE",
"662 426 CURVE SMOOTH",
"643 529 LINE SMOOTH",
"636 569 OFFCURVE",
"633 584 OFFCURVE",
"632 603 CURVE SMOOTH",
"631 617 OFFCURVE",
"626 624 OFFCURVE",
"619 624 CURVE SMOOTH",
"613 624 OFFCURVE",
"608 621 OFFCURVE",
"605 616 CURVE",
"595 613 OFFCURVE",
"581 609 OFFCURVE",
"562 606 CURVE",
"567 641 OFFCURVE",
"570 674 OFFCURVE",
"570 705 CURVE SMOOTH",
"570 725 OFFCURVE",
"569 742 OFFCURVE",
"568 756 CURVE",
"567 759 OFFCURVE",
"566 761 OFFCURVE",
"564 761 CURVE SMOOTH",
"560 761 OFFCURVE",
"558 758 OFFCURVE",
"558 753 CURVE SMOOTH",
"558 695 OFFCURVE",
"555 645 OFFCURVE",
"549 604 CURVE",
"496 596 OFFCURVE",
"443 588 OFFCURVE",
"390 581 CURVE SMOOTH",
"309 567 OFFCURVE",
"245 549 OFFCURVE",
"200 528 CURVE SMOOTH",
"138 499 OFFCURVE",
"107 464 OFFCURVE",
"107 422 CURVE SMOOTH",
"107 383 OFFCURVE",
"123 348 OFFCURVE",
"155 315 CURVE SMOOTH",
"187 283 OFFCURVE",
"222 267 OFFCURVE",
"261 267 CURVE SMOOTH",
"266 267 OFFCURVE",
"269 268 OFFCURVE",
"269 271 CURVE SMOOTH",
"269 272 OFFCURVE",
"267 273 OFFCURVE",
"263 274 CURVE SMOOTH",
"230 283 OFFCURVE",
"199 301 OFFCURVE",
"171 328 CURVE SMOOTH",
"140 359 OFFCURVE",
"124 390 OFFCURVE",
"124 422 CURVE SMOOTH",
"124 463 OFFCURVE",
"164 493 OFFCURVE",
"243 514 CURVE SMOOTH",
"276 523 OFFCURVE",
"332 531 OFFCURVE",
"411 540 CURVE SMOOTH",
"540 555 LINE",
"525 486 OFFCURVE",
"504 415 OFFCURVE",
"476 344 CURVE",
"463 334 LINE",
"456 357 OFFCURVE",
"447 368 OFFCURVE",
"436 368 CURVE SMOOTH",
"423 368 OFFCURVE",
"416 355 OFFCURVE",
"416 330 CURVE SMOOTH",
"416 306 OFFCURVE",
"424 284 OFFCURVE",
"440 263 CURVE",
"408 195 OFFCURVE",
"372 134 OFFCURVE",
"333 79 CURVE SMOOTH",
"279 5 OFFCURVE",
"228 -42 OFFCURVE",
"180 -61 CURVE",
"147 -70 OFFCURVE",
"134 -69 OFFCURVE",
"134 -77 CURVE SMOOTH",
"134 -82 OFFCURVE",
"137 -84 OFFCURVE",
"144 -84 CURVE SMOOTH",
"161 -84 OFFCURVE",
"181 -78 OFFCURVE",
"202 -66 CURVE SMOOTH",
"287 -19 OFFCURVE",
"371 90 OFFCURVE",
"452 263 CURVE",
"479 280 OFFCURVE",
"512 318 OFFCURVE",
"512 345 CURVE SMOOTH",
"512 352 OFFCURVE",
"509 356 OFFCURVE",
"502 356 CURVE SMOOTH",
"499 356 OFFCURVE",
"495 355 OFFCURVE",
"491 353 CURVE",
"519 424 OFFCURVE",
"540 492 OFFCURVE",
"554 557 CURVE",
"576 561 OFFCURVE",
"593 566 OFFCURVE",
"604 571 CURVE",
"605 565 OFFCURVE",
"605 559 OFFCURVE",
"605 553 CURVE SMOOTH",
"605 475 OFFCURVE",
"581 383 OFFCURVE",
"532 278 CURVE SMOOTH",
"481 169 OFFCURVE",
"419 78 OFFCURVE",
"345 5 CURVE SMOOTH",
"261 -77 OFFCURVE",
"177 -118 OFFCURVE",
"94 -118 CURVE SMOOTH",
"51 -118 OFFCURVE",
"22 -80 OFFCURVE",
"22 -36 CURVE SMOOTH",
"22 -22 OFFCURVE",
"25 -6 OFFCURVE",
"32 11 CURVE SMOOTH",
"43 37 LINE",
"43 40 OFFCURVE",
"42 42 OFFCURVE",
"40 42 CURVE SMOOTH",
"39 42 OFFCURVE",
"37 41 OFFCURVE",
"35 38 CURVE SMOOTH",
"13 9 OFFCURVE",
"2 -21 OFFCURVE",
"2 -51 CURVE SMOOTH",
"2 -102 OFFCURVE",
"37 -134 OFFCURVE",
"89 -134 CURVE SMOOTH",
"168 -134 OFFCURVE",
"245 -103 OFFCURVE",
"322 -41 CURVE SMOOTH",
"397 19 OFFCURVE",
"462 97 OFFCURVE",
"518 192 CURVE SMOOTH",
"575 287 OFFCURVE",
"611 382 OFFCURVE",
"627 476 CURVE",
"639 347 OFFCURVE",
"647 272 OFFCURVE",
"650 251 CURVE SMOOTH",
"664 158 OFFCURVE",
"686 88 OFFCURVE",
"717 39 CURVE",
"734 16 LINE",
"722 -20 OFFCURVE",
"707 -54 OFFCURVE",
"695 -79 CURVE",
"669 -145 OFFCURVE",
"606 -273 OFFCURVE",
"526 -308 CURVE SMOOTH",
"432 -350 OFFCURVE",
"429 -247 OFFCURVE",
"493 -171 CURVE SMOOTH",
"510 -151 OFFCURVE",
"508 -146 OFFCURVE",
"500 -150 CURVE SMOOTH",
"497 -151 OFFCURVE",
"489 -155 OFFCURVE",
"486 -160 CURVE",
"426 -215 OFFCURVE",
"407 -278 OFFCURVE",
"421 -313 CURVE SMOOTH",
"434 -345 OFFCURVE",
"475 -357 OFFCURVE",
"543 -327 CURVE SMOOTH"
);
}
);
width = 956;
}
);
unicode = 014A;
},
{
glyphname = O;
lastChange = "2021-11-23 05:59:21 +0000";
layers = (
{
anchors = (
{
name = bottom;
position = "{191, -9}";
},
{
name = center;
position = "{317, 350}";
},
{
name = ogonek;
position = "{313, 0}";
},
{
name = top;
position = "{453, 643}";
},
{
name = topleft;
position = "{20, 700}";
},
{
name = topright;
position = "{550, 501}";
}
);
background = {
paths = (
{
closed = 1;
nodes = (
"117 17 OFFCURVE",
"74 62 OFFCURVE",
"74 148 CURVE SMOOTH",
"74 166 OFFCURVE",
"78 186 OFFCURVE",
"87 209 CURVE",
"103 188 OFFCURVE",
"119 178 OFFCURVE",
"134 178 CURVE SMOOTH",
"140 178 OFFCURVE",
"143 180 OFFCURVE",
"143 185 CURVE SMOOTH",
"143 187 OFFCURVE",
"137 191 OFFCURVE",
"124 197 CURVE SMOOTH",
"109 204 OFFCURVE",
"99 213 OFFCURVE",
"93 224 CURVE",
"116 278 OFFCURVE",
"156 333 OFFCURVE",
"212 388 CURVE SMOOTH",
"276 452 OFFCURVE",
"333 484 OFFCURVE",
"382 484 CURVE SMOOTH",
"391 484 OFFCURVE",
"396 486 OFFCURVE",
"396 491 CURVE SMOOTH",
"396 496 OFFCURVE",
"392 498 OFFCURVE",
"383 498 CURVE SMOOTH",
"323 498 OFFCURVE",
"263 473 OFFCURVE",
"202 422 CURVE SMOOTH",
"145 375 OFFCURVE",
"105 321 OFFCURVE",
"82 262 CURVE",
"81 267 OFFCURVE",
"81 272 OFFCURVE",
"81 278 CURVE SMOOTH",
"81 313 OFFCURVE",
"89 347 OFFCURVE",
"105 379 CURVE SMOOTH",
"133 434 OFFCURVE",
"174 477 OFFCURVE",
"229 507 CURVE SMOOTH",
"280 536 OFFCURVE",
"338 550 OFFCURVE",
"403 550 CURVE SMOOTH",
"416 550 OFFCURVE",
"428 549 OFFCURVE",
"441 547 CURVE",
"428 478 OFFCURVE",
"408 407 OFFCURVE",
"380 334 CURVE",
"375 329 LINE",
"368 352 OFFCURVE",
"359 363 OFFCURVE",
"348 363 CURVE SMOOTH",
"335 363 OFFCURVE",
"328 350 OFFCURVE",
"328 325 CURVE SMOOTH",
"328 302 OFFCURVE",
"335 281 OFFCURVE",
"350 261 CURVE",
"306 162 OFFCURVE",
"257 79 OFFCURVE",
"202 13 CURVE"
);
},
{
closed = 1;
nodes = (
"541 525 OFFCURVE",
"595 458 OFFCURVE",
"595 370 CURVE SMOOTH",
"595 281 OFFCURVE",
"554 198 OFFCURVE",
"472 123 CURVE SMOOTH",
"392 50 OFFCURVE",
"307 13 OFFCURVE",
"216 12 CURVE",
"269 79 OFFCURVE",
"317 160 OFFCURVE",
"360 256 CURVE",
"373 263 OFFCURVE",
"387 276 OFFCURVE",
"402 293 CURVE SMOOTH",
"417 311 OFFCURVE",
"424 327 OFFCURVE",
"424 340 CURVE SMOOTH",
"424 347 OFFCURVE",
"421 351 OFFCURVE",
"414 351 CURVE SMOOTH",
"409 351 OFFCURVE",
"404 349 OFFCURVE",
"397 345 CURVE",
"423 415 OFFCURVE",
"442 481 OFFCURVE",
"454 544 CURVE"
);
},
{
closed = 1;
nodes = (
"467 694 OFFCURVE",
"466 711 OFFCURVE",
"464 726 CURVE SMOOTH",
"464 729 OFFCURVE",
"463 731 OFFCURVE",
"461 731 CURVE SMOOTH",
"457 731 OFFCURVE",
"455 728 OFFCURVE",
"455 723 CURVE SMOOTH",
"455 661 OFFCURVE",
"451 607 OFFCURVE",
"444 561 CURVE",
"431 563 OFFCURVE",
"417 564 OFFCURVE",
"403 564 CURVE SMOOTH",
"282 564 OFFCURVE",
"185 526 OFFCURVE",
"112 449 CURVE SMOOTH",
"71 407 OFFCURVE",
"51 362 OFFCURVE",
"51 313 CURVE SMOOTH",
"51 285 OFFCURVE",
"58 258 OFFCURVE",
"72 233 CURVE",
"64 205 OFFCURVE",
"60 177 OFFCURVE",
"60 148 CURVE SMOOTH",
"60 59 OFFCURVE",
"99 4 OFFCURVE",
"177 -16 CURVE",
"137 -59 OFFCURVE",
"100 -85 OFFCURVE",
"66 -96 CURVE",
"42 -100 OFFCURVE",
"31 -100 OFFCURVE",
"31 -107 CURVE SMOOTH",
"31 -112 OFFCURVE",
"34 -115 OFFCURVE",
"41 -115 CURVE SMOOTH",
"84 -115 OFFCURVE",
"134 -83 OFFCURVE",
"191 -19 CURVE",
"204 -21 OFFCURVE",
"218 -22 OFFCURVE",
"233 -22 CURVE SMOOTH",
"333 -22 OFFCURVE",
"424 16 OFFCURVE",
"506 91 CURVE SMOOTH",
"590 169 OFFCURVE",
"632 257 OFFCURVE",
"632 356 CURVE SMOOTH",
"632 407 OFFCURVE",
"616 451 OFFCURVE",
"583 488 CURVE SMOOTH",
"550 525 OFFCURVE",
"508 549 OFFCURVE",
"457 559 CURVE",
"464 601 OFFCURVE",
"467 639 OFFCURVE",
"467 674 CURVE SMOOTH"
);
}
);
};
layerId = "47CF47DF-B93A-4126-8606-39E7B9FB561A";
paths = (
{
closed = 1;
nodes = (
"84 -105 OFFCURVE",
"134 -73 OFFCURVE",
"191 -9 CURVE",
"204 -11 OFFCURVE",
"218 -12 OFFCURVE",
"233 -12 CURVE SMOOTH",
"333 -12 OFFCURVE",
"424 26 OFFCURVE",
"506 101 CURVE SMOOTH",
"590 179 OFFCURVE",
"632 267 OFFCURVE",
"632 366 CURVE SMOOTH",
"632 417 OFFCURVE",
"616 461 OFFCURVE",
"583 498 CURVE SMOOTH",
"550 535 OFFCURVE",
"508 559 OFFCURVE",
"457 569 CURVE",
"461 587 OFFCURVE",
"465 611 OFFCURVE",
"465 628 CURVE SMOOTH",
"465 648 OFFCURVE",
"464 665 OFFCURVE",
"462 680 CURVE SMOOTH",
"462 683 OFFCURVE",
"461 685 OFFCURVE",
"459 685 CURVE SMOOTH",
"455 685 OFFCURVE",
"453 682 OFFCURVE",
"453 677 CURVE SMOOTH",
"453 622 OFFCURVE",
"448 593 OFFCURVE",
"444 571 CURVE",
"431 573 OFFCURVE",
"417 574 OFFCURVE",
"403 574 CURVE SMOOTH",
"282 574 OFFCURVE",
"185 536 OFFCURVE",
"112 459 CURVE SMOOTH",
"71 417 OFFCURVE",
"51 372 OFFCURVE",
"51 323 CURVE SMOOTH",
"51 295 OFFCURVE",
"58 268 OFFCURVE",
"72 243 CURVE",
"64 215 OFFCURVE",
"60 187 OFFCURVE",
"60 158 CURVE SMOOTH",
"60 69 OFFCURVE",
"99 14 OFFCURVE",
"177 -6 CURVE",
"137 -49 OFFCURVE",
"100 -75 OFFCURVE",
"66 -86 CURVE",
"42 -90 OFFCURVE",
"31 -90 OFFCURVE",
"31 -97 CURVE SMOOTH",
"31 -102 OFFCURVE",
"34 -105 OFFCURVE",
"41 -105 CURVE SMOOTH"
);
},
{
closed = 1;
nodes = (
"117 27 OFFCURVE",
"74 72 OFFCURVE",
"74 158 CURVE SMOOTH",
"74 176 OFFCURVE",
"78 196 OFFCURVE",
"87 219 CURVE",
"103 198 OFFCURVE",
"119 188 OFFCURVE",
"134 188 CURVE SMOOTH",
"140 188 OFFCURVE",
"143 190 OFFCURVE",
"143 195 CURVE SMOOTH",
"143 197 OFFCURVE",
"137 201 OFFCURVE",
"124 207 CURVE SMOOTH",
"109 214 OFFCURVE",
"99 223 OFFCURVE",
"93 234 CURVE",
"116 288 OFFCURVE",
"156 343 OFFCURVE",
"212 398 CURVE SMOOTH",
"276 462 OFFCURVE",
"333 494 OFFCURVE",
"382 494 CURVE SMOOTH",
"391 494 OFFCURVE",
"396 496 OFFCURVE",
"396 501 CURVE SMOOTH",
"396 506 OFFCURVE",
"392 508 OFFCURVE",
"383 508 CURVE SMOOTH",
"323 508 OFFCURVE",
"263 483 OFFCURVE",
"202 432 CURVE SMOOTH",
"145 385 OFFCURVE",
"105 331 OFFCURVE",
"82 272 CURVE",
"81 277 OFFCURVE",
"81 282 OFFCURVE",
"81 288 CURVE SMOOTH",
"81 323 OFFCURVE",
"89 357 OFFCURVE",
"105 389 CURVE SMOOTH",
"133 444 OFFCURVE",
"174 487 OFFCURVE",
"229 517 CURVE SMOOTH",
"280 546 OFFCURVE",
"338 560 OFFCURVE",
"403 560 CURVE SMOOTH",
"416 560 OFFCURVE",
"428 559 OFFCURVE",
"441 557 CURVE",
"428 488 OFFCURVE",
"408 417 OFFCURVE",
"380 344 CURVE",
"375 339 LINE",
"368 362 OFFCURVE",
"359 373 OFFCURVE",
"348 373 CURVE SMOOTH",
"335 373 OFFCURVE",
"328 360 OFFCURVE",
"328 335 CURVE SMOOTH",
"328 312 OFFCURVE",
"335 291 OFFCURVE",
"350 271 CURVE",
"306 172 OFFCURVE",
"257 89 OFFCURVE",
"202 23 CURVE"
);
},
{
closed = 1;
nodes = (
"269 89 OFFCURVE",
"317 170 OFFCURVE",
"360 266 CURVE",
"373 273 OFFCURVE",
"387 286 OFFCURVE",
"402 303 CURVE SMOOTH",
"417 321 OFFCURVE",
"424 337 OFFCURVE",
"424 350 CURVE SMOOTH",
"424 357 OFFCURVE",
"421 361 OFFCURVE",
"414 361 CURVE SMOOTH",
"409 361 OFFCURVE",
"404 359 OFFCURVE",
"397 355 CURVE",
"423 425 OFFCURVE",
"442 491 OFFCURVE",
"454 554 CURVE",
"541 535 OFFCURVE",
"595 468 OFFCURVE",
"595 380 CURVE SMOOTH",
"595 291 OFFCURVE",
"554 208 OFFCURVE",
"472 133 CURVE SMOOTH",
"392 60 OFFCURVE",
"307 23 OFFCURVE",
"216 22 CURVE"
);
}
);
width = 633;
}
);
note = O;
unicode = 004F;
},
{
glyphname = Oslash;
lastChange = "2021-11-23 05:59:21 +0000";
layers = (
{
anchors = (
{
name = bottom;
position = "{119, -32}";
},
{
name = top;
position = "{507, 549}";
}
);
background = {
paths = (
{
closed = 1;
nodes = (
"699 582 OFFCURVE",
"694 583 OFFCURVE",
"687 583 CURVE SMOOTH",
"667 583 OFFCURVE",
"640 570 OFFCURVE",
"607 544 CURVE",
"536 481 LINE",
"503 498 OFFCURVE",
"464 507 OFFCURVE",
"418 507 CURVE SMOOTH",
"359 507 OFFCURVE",
"299 493 OFFCURVE",
"237 464 CURVE SMOOTH",
"172 434 OFFCURVE",
"123 396 OFFCURVE",
"90 351 CURVE SMOOTH",
"86 346 OFFCURVE",
"84 341 OFFCURVE",
"84 337 CURVE",
"85 335 LINE",
"86 335 LINE SMOOTH",
"89 335 OFFCURVE",
"93 337 OFFCURVE",
"98 341 CURVE SMOOTH",
"159 391 OFFCURVE",
"215 426 OFFCURVE",
"267 445 CURVE",
"106 306 OFFCURVE",
"26 182 OFFCURVE",
"26 72 CURVE SMOOTH",
"26 26 OFFCURVE",
"40 -6 OFFCURVE",
"68 -24 CURVE",
"-7 -125 OFFCURVE",
"-44 -194 OFFCURVE",
"-44 -229 CURVE SMOOTH",
"-44 -237 OFFCURVE",
"-32 -248 OFFCURVE",
"-23 -248 CURVE SMOOTH",
"-22 -248 OFFCURVE",
"-22 -248 OFFCURVE",
"-21 -247 CURVE",
"-21 -242 OFFCURVE",
"-19 -233 OFFCURVE",
"-15 -219 CURVE SMOOTH",
"-1 -169 OFFCURVE",
"33 -107 OFFCURVE",
"86 -33 CURVE",
"101 -39 OFFCURVE",
"119 -42 OFFCURVE",
"139 -42 CURVE SMOOTH",
"199 -42 OFFCURVE",
"267 -23 OFFCURVE",
"342 14 CURVE SMOOTH",
"418 52 OFFCURVE",
"481 99 OFFCURVE",
"531 156 CURVE SMOOTH",
"587 219 OFFCURVE",
"615 281 OFFCURVE",
"615 342 CURVE SMOOTH",
"615 393 OFFCURVE",
"598 434 OFFCURVE",
"563 463 CURVE",
"651 536 OFFCURVE",
"696 574 OFFCURVE",
"700 579 CURVE"
);
},
{
closed = 1;
nodes = (
"586 314 OFFCURVE",
"560 253 OFFCURVE",
"507 188 CURVE SMOOTH",
"459 129 OFFCURVE",
"399 79 OFFCURVE",
"327 38 CURVE SMOOTH",
"255 -3 OFFCURVE",
"191 -24 OFFCURVE",
"134 -24 CURVE SMOOTH",
"120 -24 OFFCURVE",
"108 -22 OFFCURVE",
"97 -18 CURVE",
"200 121 OFFCURVE",
"350 278 OFFCURVE",
"549 451 CURVE",
"574 432 OFFCURVE",
"586 406 OFFCURVE",
"586 372 CURVE SMOOTH"
);
},
{
closed = 1;
nodes = (
"340 301 OFFCURVE",
"192 142 OFFCURVE",
"79 -9 CURVE",
"59 6 OFFCURVE",
"49 31 OFFCURVE",
"49 66 CURVE SMOOTH",
"49 130 OFFCURVE",
"85 204 OFFCURVE",
"156 288 CURVE SMOOTH",
"224 367 OFFCURVE",
"290 418 OFFCURVE",
"355 442 CURVE SMOOTH",
"362 445 OFFCURVE",
"366 447 OFFCURVE",
"368 450 CURVE",
"362 459 OFFCURVE",
"348 464 OFFCURVE",
"327 464 CURVE SMOOTH",
"320 464 OFFCURVE",
"312 463 OFFCURVE",
"304 462 CURVE",
"345 476 OFFCURVE",
"388 483 OFFCURVE",
"431 483 CURVE SMOOTH",
"466 483 OFFCURVE",
"497 478 OFFCURVE",
"522 467 CURVE"
);
}
);
};
layerId = "47CF47DF-B93A-4126-8606-39E7B9FB561A";
paths = (
{
closed = 1;
nodes = (
"-22 -238 OFFCURVE",
"-22 -238 OFFCURVE",
"-21 -237 CURVE",
"-21 -232 OFFCURVE",
"-19 -223 OFFCURVE",
"-15 -209 CURVE SMOOTH",
"-1 -159 OFFCURVE",
"33 -97 OFFCURVE",
"86 -23 CURVE",
"101 -29 OFFCURVE",
"119 -32 OFFCURVE",
"139 -32 CURVE SMOOTH",
"199 -32 OFFCURVE",
"267 -13 OFFCURVE",
"342 24 CURVE SMOOTH",
"418 62 OFFCURVE",
"481 109 OFFCURVE",
"531 166 CURVE SMOOTH",
"587 229 OFFCURVE",
"615 291 OFFCURVE",
"615 352 CURVE SMOOTH",
"615 403 OFFCURVE",
"598 444 OFFCURVE",
"563 473 CURVE",
"651 546 OFFCURVE",
"696 584 OFFCURVE",
"700 589 CURVE",
"699 592 OFFCURVE",
"694 593 OFFCURVE",
"687 593 CURVE SMOOTH",
"667 593 OFFCURVE",
"640 580 OFFCURVE",
"607 554 CURVE",
"536 491 LINE",
"503 508 OFFCURVE",
"464 517 OFFCURVE",
"418 517 CURVE SMOOTH",
"359 517 OFFCURVE",
"299 503 OFFCURVE",
"237 474 CURVE SMOOTH",
"172 444 OFFCURVE",
"123 406 OFFCURVE",
"90 361 CURVE SMOOTH",
"86 356 OFFCURVE",
"84 351 OFFCURVE",
"84 347 CURVE",
"85 345 LINE",
"86 345 LINE SMOOTH",
"89 345 OFFCURVE",
"93 347 OFFCURVE",
"98 351 CURVE SMOOTH",
"159 401 OFFCURVE",
"215 436 OFFCURVE",
"267 455 CURVE",
"106 316 OFFCURVE",
"26 192 OFFCURVE",
"26 82 CURVE SMOOTH",
"26 36 OFFCURVE",
"40 4 OFFCURVE",
"68 -14 CURVE",
"-7 -115 OFFCURVE",
"-44 -184 OFFCURVE",
"-44 -219 CURVE SMOOTH",
"-44 -227 OFFCURVE",
"-32 -238 OFFCURVE",
"-23 -238 CURVE SMOOTH"
);
},
{
closed = 1;
nodes = (
"59 16 OFFCURVE",
"49 41 OFFCURVE",
"49 76 CURVE SMOOTH",
"49 140 OFFCURVE",
"85 214 OFFCURVE",
"156 298 CURVE SMOOTH",
"224 377 OFFCURVE",
"290 428 OFFCURVE",
"355 452 CURVE SMOOTH",
"362 455 OFFCURVE",
"366 457 OFFCURVE",
"368 460 CURVE",
"362 469 OFFCURVE",
"348 474 OFFCURVE",
"327 474 CURVE SMOOTH",
"320 474 OFFCURVE",
"312 473 OFFCURVE",
"304 472 CURVE",
"345 486 OFFCURVE",
"388 493 OFFCURVE",
"431 493 CURVE SMOOTH",
"466 493 OFFCURVE",
"497 488 OFFCURVE",
"522 477 CURVE",
"340 311 OFFCURVE",
"192 152 OFFCURVE",
"79 1 CURVE"
);
},
{
closed = 1;
nodes = (
"120 -14 OFFCURVE",
"108 -12 OFFCURVE",
"97 -8 CURVE",
"200 131 OFFCURVE",
"350 288 OFFCURVE",
"549 461 CURVE",
"574 442 OFFCURVE",
"586 416 OFFCURVE",
"586 382 CURVE SMOOTH",
"586 324 OFFCURVE",
"560 263 OFFCURVE",
"507 198 CURVE SMOOTH",
"459 139 OFFCURVE",
"399 89 OFFCURVE",
"327 48 CURVE SMOOTH",
"255 7 OFFCURVE",
"191 -14 OFFCURVE",
"134 -14 CURVE SMOOTH"
);
}
);
width = 634;
}
);
note = Oslash;
unicode = 00D8;
},
